<svg xmlns="http://www.w3.org/2000/svg" viewBox="0 0 900 640" font-family="Helvetica, Arial, sans-serif" font-size="13">
  <!-- Generated from the model (echo "drawing"): side view in the part frame (x = out of the back
       face, y = up it), rotated 45deg because the back face leans back that far in the car.
       2.8 px/mm. notch_h 65, hood_over 40 (underside closing in 15deg), back dished
       2, ledge 30 deep falling 18, upright 40..65 out, stalk
       -20deg to square-out (25deg above level in the car). -->
  <rect x="0" y="0" width="900" height="640" fill="#ffffff"/>
  <defs>
    <marker id="a" viewBox="0 0 10 10" refX="9" refY="5" markerWidth="7" markerHeight="7" orient="auto-start-reverse"><path d="M0,0 L10,5 L0,10 z" fill="#c0392b"/></marker>
    <marker id="g" viewBox="0 0 10 10" refX="9" refY="5" markerWidth="7" markerHeight="7" orient="auto-start-reverse"><path d="M0,0 L10,5 L0,10 z" fill="#1f7a4d"/></marker>
    <marker id="w" viewBox="0 0 10 10" refX="9" refY="5" markerWidth="6" markerHeight="6" orient="auto-start-reverse"><path d="M0,0 L10,5 L0,10 z" fill="#ffffff"/></marker>
  </defs>
  <text x="12" y="24" font-size="14" font-weight="bold">Side view (from the vent side), as it sits in the car</text>
  <path d="M251.3,395.3 L256.5,399.4 L265.1,406.4 L273.6,413.4 L281.9,420.5 L290.2,427.8 L298.3,435.2 L306.3,442.7 L314.2,450.3 L321.9,458.0 L329.6,465.9 L337.2,473.8 L344.6,481.9 L351.9,490.1 L359.1,498.4 L366.2,506.8 L373.1,515.4 L380.0,524.0 L346.3,557.7 L217.6,429.0 Z" fill="#d7d7d7"/>
  <path d="M380.0,524.0 L475.0,500.2 L510.7,535.9 L417.6,628.9 L346.3,557.7 Z" fill="#d7d7d7"/>
  <path d="M208.6,419.9 L351.7,337.3 L312.1,297.7 L169.0,380.3 Z" fill="#bdb3a4"/>
  <path d="M475.0,500.2 L418.4,305.0 L258.7,397.3 L267.3,404.2 L275.8,411.2 L284.1,418.4 L292.3,425.6 L300.5,433.0 L308.5,440.5 L316.4,448.1 L324.1,455.9 L331.8,463.7 L339.3,471.7 L346.8,479.7 L354.1,487.9 L361.3,496.2 L368.4,504.6 L375.3,513.2 L382.2,521.8 Z" fill="#3b6ea8"/>
  <path d="M357.7,343.3 L420.4,307.0 L329.2,215.8 L274.5,184.2 L249.7,131.0 L229.4,140.4 L229.4,239.0 L286.2,271.9 Z" fill="#3b6ea8"/>
  <path d="M258.7,397.3 L353.2,342.7 L349.2,338.8 L254.8,393.3 Z" fill="#8a7b5a"/>
  <line x1="262.7" y1="158.9" x2="313.4" y2="135.2" stroke="#3b6ea8" stroke-width="28" stroke-linecap="round"/>
  <circle cx="313.4" cy="135.2" r="23.8" fill="#3b6ea8"/>
  <path d="M360.1,215.4 L403.2,195.3 L325.1,27.8 L282.0,47.9 Z" fill="#222" opacity="0.25"/>
  <path d="M415.0,293.2 L475.0,500.2 L486.9,504.2 L510.7,528.0" fill="none" stroke="#f2c14e" stroke-width="3" stroke-dasharray="6 4"/>
  <line x1="380" y1="524" x2="380" y2="314.0" stroke="#555555" stroke-width="1.2" stroke-dasharray="4 4"/>
  <path d="M380,434.4 A89.6,89.6 0 0 0 316.6,460.6" fill="none" stroke="#555555" stroke-width="1.5"/>
  <line x1="303.4" y1="135.2" x2="463.4" y2="135.2" stroke="#555555" stroke-width="1.2" stroke-dasharray="4 4"/>
  <line x1="326.5" y1="577.5" x2="199.8" y2="450.7" stroke="#c0392b" stroke-width="2" marker-start="url(#a)" marker-end="url(#a)"/>
  <line x1="320.6" y1="583.4" x2="346.3" y2="557.7" stroke="#c0392b" stroke-dasharray="3 3"/>
  <line x1="191.9" y1="454.7" x2="217.6" y2="429.0" stroke="#c0392b" stroke-dasharray="3 3"/>
  <line x1="189.1" y1="428.1" x2="153.4" y2="392.5" stroke="#c0392b" stroke-width="2" marker-start="url(#a)" marker-end="url(#a)"/>
  <line x1="149.2" y1="400.1" x2="169.0" y2="380.3" stroke="#c0392b" stroke-dasharray="3 3"/>
  <line x1="243.4" y1="383.4" x2="318.6" y2="308.2" stroke="#c0392b" stroke-width="2" marker-start="url(#a)" marker-end="url(#a)"/>
  <path d="M290.9,355.7 A56.0,56.0 0 0 1 299.8,367.3" fill="none" stroke="#c0392b" stroke-width="2"/>
  <line x1="251.3" y1="395.3" x2="296.8" y2="349.8" stroke="#c0392b" stroke-dasharray="3 3"/>
  <line x1="435.4" y1="575.5" x2="490.9" y2="520.0" stroke="#c0392b" stroke-width="2" marker-start="url(#a)" marker-end="url(#a)"/>
  <line x1="477.0" y1="502.2" x2="498.8" y2="524.0" stroke="#c0392b" stroke-dasharray="3 3"/>
  <line x1="469.1" y1="438.9" x2="500.8" y2="470.5" stroke="#c0392b" stroke-width="2" marker-start="url(#a)" marker-end="url(#a)"/>
  <line x1="380.0" y1="524.0" x2="473.1" y2="430.9" stroke="#c0392b" stroke-dasharray="3 3"/>
  <line x1="475.0" y1="500.2" x2="508.7" y2="466.6" stroke="#c0392b" stroke-dasharray="3 3"/>
  <line x1="282.0" y1="424.0" x2="408.7" y2="297.3" stroke="#ffffff" stroke-width="1.5" marker-start="url(#w)" marker-end="url(#w)"/>
  <line x1="309.7" y1="293.3" x2="357.2" y2="245.8" stroke="#ffffff" stroke-width="1.5" marker-start="url(#w)" marker-end="url(#w)"/>
  <line x1="467.1" y1="175.5" x2="372.1" y2="80.5" stroke="#1f7a4d" stroke-width="2" marker-start="url(#g)" marker-end="url(#g)"/>
  <line x1="382.0" y1="264.6" x2="475.0" y2="171.6" stroke="#1f7a4d" stroke-dasharray="3 3"/>
  <line x1="331.2" y1="117.4" x2="376.0" y2="72.6" stroke="#1f7a4d" stroke-dasharray="3 3"/>
  <line x1="307.7" y1="243.8" x2="248.3" y2="184.4" stroke="#1f7a4d" stroke-width="1.5" stroke-dasharray="3 3"/>
  <path d="M264.2,200.3 A61.6,61.6 0 0 0 254.4,213.0" fill="none" stroke="#1f7a4d" stroke-width="2"/>
  <text x="376.1" y="462.7" fill="#ffffff" font-size="12" font-weight="bold">wedge</text>
  <text x="368.1" y="478.7" fill="#ffffff" font-size="11">VHB on the back,</text>
  <text x="368.1" y="493.7" fill="#ffffff" font-size="11">dished 2 mm</text>
  <text x="310.4" y="387.6" fill="#ffffff" font-size="11" font-weight="bold">upright_front = 65 (kept)</text>
  <text x="307.5" y="261.6" fill="#ffffff" font-size="11" font-weight="bold">up_d = 25</text>
  <line x1="222.0" y1="186.0" x2="258.9" y2="206.3" stroke="#1f7a4d" stroke-width="0.8"/>
  <text x="218.0" y="190.0" fill="#1f7a4d" font-size="12" font-weight="bold" text-anchor="end">upright_lean = 15°</text>
  <text x="218.0" y="205.0" fill="#1f7a4d" font-size="12" text-anchor="end">bend 24 above</text>
  <text x="218.0" y="220.0" fill="#1f7a4d" font-size="12" text-anchor="end">the notch top</text>
  <line x1="230.0" y1="296.0" x2="281.0" y2="345.8" stroke="#c0392b" stroke-width="0.8"/>
  <text x="226.0" y="300.0" fill="#c0392b" font-size="12" font-weight="bold" text-anchor="end">hood_over = 40 ✓</text>
  <line x1="154.0" y1="400.0" x2="171.3" y2="410.3" stroke="#c0392b" stroke-width="0.8"/>
  <text x="150.0" y="404.0" fill="#c0392b" font-size="12" font-weight="bold" text-anchor="end">hood_t ≈ 20 ?</text>
  <line x1="154.0" y1="448.0" x2="295.7" y2="361.2" stroke="#c0392b" stroke-width="0.8"/>
  <text x="150.0" y="452.0" fill="#c0392b" font-size="12" font-weight="bold" text-anchor="end">hood closes in 15° ✓</text>
  <text x="150.0" y="467.0" fill="#c0392b" font-size="12" text-anchor="end">(the top follows it)</text>
  <line x1="240.0" y1="536.0" x2="262.2" y2="513.1" stroke="#c0392b" stroke-width="0.8"/>
  <text x="236.0" y="540.0" fill="#c0392b" font-size="12" font-weight="bold" text-anchor="end">notch_h = 65 ✓</text>
  <text x="14.0" y="62.0" fill="#555555" font-size="12" font-weight="bold">Back face ≈ 45° from upright</text>
  <text x="14.0" y="77.0" fill="#555555" font-size="12">(grey dashed line = true vertical,</text>
  <text x="14.0" y="92.0" fill="#555555" font-size="12"> level through the ball)</text>
  <line x1="338.0" y1="42.0" x2="302.8" y2="112.4" stroke="#333" stroke-width="0.8"/>
  <text x="342.0" y="46.0" fill="#333" font-size="12" font-weight="bold">17 mm ball: stalk ≈ 25°</text>
  <text x="342.0" y="61.0" fill="#333" font-size="12">above level (dashed)</text>
  <line x1="466.0" y1="80.0" x2="409.7" y2="118.1" stroke="#1f7a4d" stroke-width="0.8"/>
  <text x="470.0" y="84.0" fill="#1f7a4d" font-size="12" font-weight="bold">rise = 50</text>
  <text x="470.0" y="99.0" fill="#1f7a4d" font-size="12">up the back face,</text>
  <text x="470.0" y="114.0" fill="#1f7a4d" font-size="12">above the notch top</text>
  <line x1="444.0" y1="318.0" x2="445.0" y2="396.7" stroke="#9a7417" stroke-width="0.8"/>
  <text x="448.0" y="322.0" fill="#9a7417" font-size="12">USB-C groove, all the</text>
  <text x="448.0" y="337.0" fill="#9a7417" font-size="12">way down, pocket over</text>
  <text x="448.0" y="352.0" fill="#9a7417" font-size="12">the ledge's edge</text>
  <line x1="504.0" y1="448.0" x2="488.5" y2="458.3" stroke="#c0392b" stroke-width="0.8"/>
  <text x="508.0" y="452.0" fill="#c0392b" font-size="12" font-weight="bold">floor_drop = 18 ✓</text>
  <text x="508.0" y="467.0" fill="#c0392b" font-size="12">(test fit)</text>
  <line x1="496.0" y1="578.0" x2="475.0" y2="535.9" stroke="#c0392b" stroke-width="0.8"/>
  <text x="500.0" y="582.0" fill="#c0392b" font-size="12" font-weight="bold">floor_depth ≈ 30 ✓</text>
  <g transform="translate(0,30)">
  <text x="610" y="330" font-size="16" font-weight="bold">Looking into the notch</text>
  <path d="M649,490 L649,390 L763,390 L769,396 L769,490" fill="none" stroke="#999" stroke-width="6" stroke-linejoin="round"/>
  <path d="M652,490 L652,393 L760,393 L766,399 L766,490 Z" fill="#3b6ea8" opacity="0.6"/>
  <text x="694" y="450" fill="#fff" font-size="12">wedge</text>
  <text x="588" y="482" fill="#666">vent side</text>
  <text x="776" y="482" fill="#666">cluster side</text>
  <text x="570" y="366" fill="#c0392b" font-weight="bold">vent_return = [0, 0] ✓</text>
  <text x="570" y="380" fill="#c0392b" font-size="12">(square)</text>
  <text x="738" y="366" fill="#c0392b" font-weight="bold">cluster_return ?</text>
  <text x="738" y="380" fill="#c0392b" font-size="12">[across, deep]</text>
  <line x1="649" y1="508" x2="769" y2="508" stroke="#c0392b" stroke-width="2" marker-start="url(#a)" marker-end="url(#a)"/>
  <line x1="649" y1="493" x2="649" y2="515" stroke="#c0392b" stroke-dasharray="3 3"/>
  <line x1="769" y1="493" x2="769" y2="515" stroke="#c0392b" stroke-dasharray="3 3"/>
  <text x="658" y="530" fill="#c0392b" font-weight="bold">notch_w (mouth) ?</text>
  <text x="662" y="554" fill="#333">↓ toward the driver</text>
  </g>
  <text x="610" y="70" font-size="12" fill="#333">Red = measure in the car</text>
  <text x="610" y="86" font-size="12" fill="#333">(✓ = done, ? = still an estimate).</text>
  <text x="610" y="102" font-size="12" fill="#333">Green = where the charger goes.</text>
  <text x="610" y="128" font-size="12" fill="#333">The model is square to the back face:</text>
  <text x="610" y="144" font-size="12" fill="#333">its "up" runs up that face, so every</text>
  <text x="610" y="160" font-size="12" fill="#333">dimension here tilts with the face.</text>
  <text x="610" y="186" font-size="12" fill="#333">Print part="gauge" (~20 min) and</text>
  <text x="610" y="202" font-size="12" fill="#333">hold both templates in the notch</text>
  <text x="610" y="218" font-size="12" fill="#333">before the full print.</text>
</svg>
