solid OpenSCAD_Model
  facet normal 0 -1 0
    outer loop
      vertex 63.5 22.3 0
      vertex 64.3 22.3 1.6000000000000112
      vertex 63.5 22.3 1.6000000000000112
    endloop
  endfacet
  facet normal -1 0 0
    outer loop
      vertex 63.5 22.3 0
      vertex 63.5 22.3 1.6000000000000112
      vertex 63.5 42.010000000000005 1.6000000000000112
    endloop
  endfacet
  facet normal 0 0 1
    outer loop
      vertex 63.5 22.3 1.6000000000000112
      vertex 64.3 22.3 1.6000000000000112
      vertex 63.5 42.010000000000005 1.6000000000000112
    endloop
  endfacet
  facet normal 0 -1 0
    outer loop
      vertex 63.5 22.3 0
      vertex 67.7 22.3 1.6000000000000112
      vertex 64.3 22.3 1.6000000000000112
    endloop
  endfacet
  facet normal -1 0 0
    outer loop
      vertex 63.5 22.3 0
      vertex 63.5 42.010000000000005 1.6000000000000112
      vertex 63.5 42.010000000000005 0
    endloop
  endfacet
  facet normal 0 0 -1
    outer loop
      vertex 63.5 42.010000000000005 0
      vertex 64.56812533193975 42.010000000000005 0
      vertex 63.5 22.3 0
    endloop
  endfacet
  facet normal 0 0 1
    outer loop
      vertex 63.5 42.010000000000005 1.6000000000000112
      vertex 64.3 22.3 1.6000000000000112
      vertex 64.3 42.010000000000005 1.6000000000000112
    endloop
  endfacet
  facet normal 0 1 0
    outer loop
      vertex 63.5 42.010000000000005 1.6000000000000112
      vertex 64.3 42.010000000000005 1.6000000000000112
      vertex 63.5 42.010000000000005 0
    endloop
  endfacet
  facet normal 0 1 0
    outer loop
      vertex 63.5 42.010000000000005 0
      vertex 64.3 42.010000000000005 1.6000000000000112
      vertex 64.56812533193975 42.010000000000005 1.6000000000000112
    endloop
  endfacet
  facet normal 0 1 0
    outer loop
      vertex 63.5 42.010000000000005 0
      vertex 64.56812533193975 42.010000000000005 1.6000000000000112
      vertex 64.56812533193975 42.010000000000005 0
    endloop
  endfacet
  facet normal 0 0 -1
    outer loop
      vertex 64.56812533193975 42.010000000000005 0
      vertex 67.43187466806025 42.010000000000005 0
      vertex 63.5 22.3 0
    endloop
  endfacet
  facet normal 0 -1 0
    outer loop
      vertex 63.5 22.3 0
      vertex 68.5 22.3 1.6000000000000112
      vertex 67.7 22.3 1.6000000000000112
    endloop
  endfacet
  facet normal 0 -1 0
    outer loop
      vertex 63.5 22.3 0
      vertex 68.5 22.3 0
      vertex 68.5 22.3 1.6000000000000112
    endloop
  endfacet
  facet normal 0 0 -1
    outer loop
      vertex 63.5 22.3 0
      vertex 68.5 42.010000000000005 0
      vertex 68.5 22.3 0
    endloop
  endfacet
  facet normal 1 0 0
    outer loop
      vertex 68.5 22.3 0
      vertex 68.5 42.010000000000005 0
      vertex 68.5 22.3 1.6000000000000112
    endloop
  endfacet
  facet normal 0 0 1
    outer loop
      vertex 68.5 22.3 1.6000000000000112
      vertex 67.7 42.010000000000005 1.6000000000000112
      vertex 67.7 22.3 1.6000000000000112
    endloop
  endfacet
  facet normal 0 0 -1
    outer loop
      vertex 63.5 22.3 0
      vertex 67.43187466806025 42.010000000000005 0
      vertex 68.5 42.010000000000005 0
    endloop
  endfacet
  facet normal 1 0 0
    outer loop
      vertex 68.5 22.3 1.6000000000000112
      vertex 68.5 42.010000000000005 0
      vertex 68.5 42.010000000000005 1.6000000000000112
    endloop
  endfacet
  facet normal 0 0 1
    outer loop
      vertex 68.5 22.3 1.6000000000000112
      vertex 68.5 42.010000000000005 1.6000000000000112
      vertex 67.7 42.010000000000005 1.6000000000000112
    endloop
  endfacet
  facet normal 0 1 0
    outer loop
      vertex 67.43187466806025 42.010000000000005 0
      vertex 67.43187466806025 42.010000000000005 1.6000000000000112
      vertex 67.7 42.010000000000005 1.6000000000000112
    endloop
  endfacet
  facet normal 0 1 0
    outer loop
      vertex 68.5 42.010000000000005 0
      vertex 67.43187466806025 42.010000000000005 0
      vertex 68.5 42.010000000000005 1.6000000000000112
    endloop
  endfacet
  facet normal 0 1 0
    outer loop
      vertex 68.5 42.010000000000005 1.6000000000000112
      vertex 67.43187466806025 42.010000000000005 0
      vertex 67.7 42.010000000000005 1.6000000000000112
    endloop
  endfacet
  facet normal 0 0 1
    outer loop
      vertex 64.3 22.3 3.2000000000000113
      vertex 64.5511112605664 25.61177143234622 3.2000000000000113
      vertex 64.5 26 3.2000000000000113
    endloop
  endfacet
  facet normal 0 0 1
    outer loop
      vertex 64.3 22.3 3.2000000000000113
      vertex 64.70096189432334 25.25 3.2000000000000113
      vertex 64.5511112605664 25.61177143234622 3.2000000000000113
    endloop
  endfacet
  facet normal 0 0 1
    outer loop
      vertex 64.3 22.3 3.2000000000000113
      vertex 64.93933982822018 24.939339828220177 3.2000000000000113
      vertex 64.70096189432334 25.25 3.2000000000000113
    endloop
  endfacet
  facet normal -1 0 0
    outer loop
      vertex 64.3 22.3 3.2000000000000113
      vertex 64.3 42.010000000000005 3.2000000000000113
      vertex 64.3 22.3 1.6000000000000112
    endloop
  endfacet
  facet normal 0 0 1
    outer loop
      vertex 64.3 22.3 3.2000000000000113
      vertex 64.5 26 3.2000000000000113
      vertex 64.3 42.010000000000005 3.2000000000000113
    endloop
  endfacet
  facet normal 0 0 1
    outer loop
      vertex 64.5 26 3.2000000000000113
      vertex 64.5511112605664 26.38822856765378 3.2000000000000113
      vertex 64.3 42.010000000000005 3.2000000000000113
    endloop
  endfacet
  facet normal 0 0 1
    outer loop
      vertex 64.5511112605664 26.38822856765378 3.2000000000000113
      vertex 64.70096189432334 26.75 3.2000000000000113
      vertex 64.3 42.010000000000005 3.2000000000000113
    endloop
  endfacet
  facet normal 0 0 1
    outer loop
      vertex 64.70096189432334 26.75 3.2000000000000113
      vertex 64.93933982822018 27.060660171779823 3.2000000000000113
      vertex 64.3 42.010000000000005 3.2000000000000113
    endloop
  endfacet
  facet normal 0 0 1
    outer loop
      vertex 64.3 22.3 3.2000000000000113
      vertex 65.25 24.700961894323342 3.2000000000000113
      vertex 64.93933982822018 24.939339828220177 3.2000000000000113
    endloop
  endfacet
  facet normal 0 0 1
    outer loop
      vertex 64.3 22.3 3.2000000000000113
      vertex 65.61177143234622 24.551111260566397 3.2000000000000113
      vertex 65.25 24.700961894323342 3.2000000000000113
    endloop
  endfacet
  facet normal 0 0 1
    outer loop
      vertex 64.3 22.3 3.2000000000000113
      vertex 66 24.5 3.2000000000000113
      vertex 65.61177143234622 24.551111260566397 3.2000000000000113
    endloop
  endfacet
  facet normal 0 -1 0
    outer loop
      vertex 64.3 22.3 3.2000000000000113
      vertex 64.3 22.3 1.6000000000000112
      vertex 67.7 22.3 1.6000000000000112
    endloop
  endfacet
  facet normal 0 0 1
    outer loop
      vertex 64.3 22.3 3.2000000000000113
      vertex 66.38822856765378 24.551111260566397 3.2000000000000113
      vertex 66 24.5 3.2000000000000113
    endloop
  endfacet
  facet normal 0 0 1
    outer loop
      vertex 64.93933982822018 27.060660171779823 3.2000000000000113
      vertex 65.25 27.299038105676658 3.2000000000000113
      vertex 64.3 42.010000000000005 3.2000000000000113
    endloop
  endfacet
  facet normal 0 0 1
    outer loop
      vertex 65.25 27.299038105676658 3.2000000000000113
      vertex 65.61177143234622 27.448888739433603 3.2000000000000113
      vertex 64.3 42.010000000000005 3.2000000000000113
    endloop
  endfacet
  facet normal 0 0 1
    outer loop
      vertex 65.61177143234622 27.448888739433603 3.2000000000000113
      vertex 66 27.5 3.2000000000000113
      vertex 64.3 42.010000000000005 3.2000000000000113
    endloop
  endfacet
  facet normal 0 0 1
    outer loop
      vertex 64.3 42.010000000000005 3.2000000000000113
      vertex 66 27.5 3.2000000000000113
      vertex 66.38822856765378 27.448888739433603 3.2000000000000113
    endloop
  endfacet
  facet normal 0 0 1
    outer loop
      vertex 64.3 42.010000000000005 3.2000000000000113
      vertex 66.38822856765378 27.448888739433603 3.2000000000000113
      vertex 66.75 27.299038105676658 3.2000000000000113
    endloop
  endfacet
  facet normal -1 0 0
    outer loop
      vertex 64.3 42.010000000000005 3.2000000000000113
      vertex 64.3 42.010000000000005 1.6000000000000112
      vertex 64.3 22.3 1.6000000000000112
    endloop
  endfacet
  facet normal 0 1 0
    outer loop
      vertex 64.56812533193975 42.010000000000005 3.2000000000000113
      vertex 64.56812533193975 42.010000000000005 1.6000000000000112
      vertex 64.3 42.010000000000005 1.6000000000000112
    endloop
  endfacet
  facet normal 0 1 0
    outer loop
      vertex 64.3 42.010000000000005 3.2000000000000113
      vertex 64.56812533193975 42.010000000000005 3.2000000000000113
      vertex 64.3 42.010000000000005 1.6000000000000112
    endloop
  endfacet
  facet normal 0 0 1
    outer loop
      vertex 64.3 42.010000000000005 3.2000000000000113
      vertex 66.75 27.299038105676658 3.2000000000000113
      vertex 64.56812533193975 42.010000000000005 3.2000000000000113
    endloop
  endfacet
  facet normal 0 0 1
    outer loop
      vertex 64.3 22.3 3.2000000000000113
      vertex 67.7 22.3 3.2000000000000113
      vertex 66.38822856765378 24.551111260566397 3.2000000000000113
    endloop
  endfacet
  facet normal 0 -1 0
    outer loop
      vertex 64.3 22.3 3.2000000000000113
      vertex 67.7 22.3 1.6000000000000112
      vertex 67.7 22.3 3.2000000000000113
    endloop
  endfacet
  facet normal 0 0 1
    outer loop
      vertex 66.38822856765378 24.551111260566397 3.2000000000000113
      vertex 67.7 22.3 3.2000000000000113
      vertex 66.75 24.700961894323342 3.2000000000000113
    endloop
  endfacet
  facet normal 0 0 1
    outer loop
      vertex 66.75 24.700961894323342 3.2000000000000113
      vertex 67.7 22.3 3.2000000000000113
      vertex 67.06066017177982 24.939339828220177 3.2000000000000113
    endloop
  endfacet
  facet normal 0 0 1
    outer loop
      vertex 66.75 27.299038105676658 3.2000000000000113
      vertex 67.06066017177982 27.060660171779823 3.2000000000000113
      vertex 67.7 42.010000000000005 3.2000000000000113
    endloop
  endfacet
  facet normal 0 0 1
    outer loop
      vertex 67.06066017177982 24.939339828220177 3.2000000000000113
      vertex 67.7 22.3 3.2000000000000113
      vertex 67.29903810567666 25.25 3.2000000000000113
    endloop
  endfacet
  facet normal 0 0 1
    outer loop
      vertex 67.7 22.3 3.2000000000000113
      vertex 67.4488887394336 25.61177143234622 3.2000000000000113
      vertex 67.29903810567666 25.25 3.2000000000000113
    endloop
  endfacet
  facet normal 0 0 1
    outer loop
      vertex 67.7 22.3 3.2000000000000113
      vertex 67.5 26 3.2000000000000113
      vertex 67.4488887394336 25.61177143234622 3.2000000000000113
    endloop
  endfacet
  facet normal 1 0 0
    outer loop
      vertex 67.7 22.3 3.2000000000000113
      vertex 67.7 22.3 1.6000000000000112
      vertex 67.7 42.010000000000005 1.6000000000000112
    endloop
  endfacet
  facet normal 0 0 1
    outer loop
      vertex 67.7 22.3 3.2000000000000113
      vertex 67.7 42.010000000000005 3.2000000000000113
      vertex 67.5 26 3.2000000000000113
    endloop
  endfacet
  facet normal 0 0 1
    outer loop
      vertex 67.06066017177982 27.060660171779823 3.2000000000000113
      vertex 67.29903810567666 26.75 3.2000000000000113
      vertex 67.7 42.010000000000005 3.2000000000000113
    endloop
  endfacet
  facet normal 0 0 1
    outer loop
      vertex 67.4488887394336 26.38822856765378 3.2000000000000113
      vertex 67.7 42.010000000000005 3.2000000000000113
      vertex 67.29903810567666 26.75 3.2000000000000113
    endloop
  endfacet
  facet normal 0 0 1
    outer loop
      vertex 67.4488887394336 26.38822856765378 3.2000000000000113
      vertex 67.5 26 3.2000000000000113
      vertex 67.7 42.010000000000005 3.2000000000000113
    endloop
  endfacet
  facet normal 0 0 1
    outer loop
      vertex 64.56812533193975 42.010000000000005 3.2000000000000113
      vertex 66.75 27.299038105676658 3.2000000000000113
      vertex 67.43187466806025 42.010000000000005 3.2000000000000113
    endloop
  endfacet
  facet normal 1 0 0
    outer loop
      vertex 67.7 22.3 3.2000000000000113
      vertex 67.7 42.010000000000005 1.6000000000000112
      vertex 67.7 42.010000000000005 3.2000000000000113
    endloop
  endfacet
  facet normal 0 0 1
    outer loop
      vertex 66.75 27.299038105676658 3.2000000000000113
      vertex 67.7 42.010000000000005 3.2000000000000113
      vertex 67.43187466806025 42.010000000000005 3.2000000000000113
    endloop
  endfacet
  facet normal 0 1 0
    outer loop
      vertex 67.7 42.010000000000005 3.2000000000000113
      vertex 67.7 42.010000000000005 1.6000000000000112
      vertex 67.43187466806025 42.010000000000005 1.6000000000000112
    endloop
  endfacet
  facet normal 0 1 0
    outer loop
      vertex 67.43187466806025 42.010000000000005 3.2000000000000113
      vertex 67.7 42.010000000000005 3.2000000000000113
      vertex 67.43187466806025 42.010000000000005 1.6000000000000112
    endloop
  endfacet
  facet normal -0.8668875466710271 0.4985037426406021 0
    outer loop
      vertex 66 44.49999999791384 0
      vertex 64.56812533193975 42.010000000000005 0
      vertex 64.56812533193975 42.010000000000005 1.6000000000000112
    endloop
  endfacet
  facet normal -0.8668875466710273 0.4985037426406022 0
    outer loop
      vertex 66 44.49999999791384 0
      vertex 64.56812533193975 42.010000000000005 1.6000000000000112
      vertex 66 44.49999999791384 3.2000000000000113
    endloop
  endfacet
  facet normal -0.8668875466710272 0.49850374264060215 0
    outer loop
      vertex 64.56812533193975 42.010000000000005 3.2000000000000113
      vertex 66 44.49999999791384 3.2000000000000113
      vertex 64.56812533193975 42.010000000000005 1.6000000000000112
    endloop
  endfacet
  facet normal 0 0 -1
    outer loop
      vertex 66 44.49999999791384 0
      vertex 67.43187466806025 42.010000000000005 0
      vertex 64.56812533193975 42.010000000000005 0
    endloop
  endfacet
  facet normal 0.8668875466710273 0.4985037426406022 0
    outer loop
      vertex 66 44.49999999791384 0
      vertex 66 44.49999999791384 3.2000000000000113
      vertex 67.43187466806025 42.010000000000005 0
    endloop
  endfacet
  facet normal 0.8668875466710272 0.4985037426406021 0
    outer loop
      vertex 66 44.49999999791384 3.2000000000000113
      vertex 67.43187466806025 42.010000000000005 1.6000000000000112
      vertex 67.43187466806025 42.010000000000005 0
    endloop
  endfacet
  facet normal 0 0 1
    outer loop
      vertex 64.56812533193975 42.010000000000005 3.2000000000000113
      vertex 67.43187466806025 42.010000000000005 3.2000000000000113
      vertex 66 44.49999999791384 3.2000000000000113
    endloop
  endfacet
  facet normal 0.8668875466710272 0.49850374264060215 0
    outer loop
      vertex 66 44.49999999791384 3.2000000000000113
      vertex 67.43187466806025 42.010000000000005 3.2000000000000113
      vertex 67.43187466806025 42.010000000000005 1.6000000000000112
    endloop
  endfacet
  facet normal -0.9914448613738093 -0.13052619222006073 0
    outer loop
      vertex 64.5 26 3.2000000000000113
      vertex 64.5511112605664 25.61177143234622 3.2000000000000113
      vertex 64.5 26 6.440000000000012
    endloop
  endfacet
  facet normal -0.9914448613738093 0.13052619222006073 0
    outer loop
      vertex 64.5 26 3.2000000000000113
      vertex 64.5511112605664 26.38822856765378 6.440000000000012
      vertex 64.5511112605664 26.38822856765378 3.2000000000000113
    endloop
  endfacet
  facet normal -0.9238795325112904 -0.3826834323650809 0
    outer loop
      vertex 64.5511112605664 25.61177143234622 3.2000000000000113
      vertex 64.70096189432334 25.25 3.2000000000000113
      vertex 64.5511112605664 25.61177143234622 6.440000000000012
    endloop
  endfacet
  facet normal -0.9238795325112904 0.3826834323650809 0
    outer loop
      vertex 64.5511112605664 26.38822856765378 3.2000000000000113
      vertex 64.70096189432334 26.75 6.440000000000012
      vertex 64.70096189432334 26.75 3.2000000000000113
    endloop
  endfacet
  facet normal -0.9914448613738093 -0.13052619222006073 0
    outer loop
      vertex 64.5511112605664 25.61177143234622 3.2000000000000113
      vertex 64.5511112605664 25.61177143234622 6.440000000000012
      vertex 64.5 26 6.440000000000012
    endloop
  endfacet
  facet normal -0.9914448613738093 0.13052619222006073 0
    outer loop
      vertex 64.5 26 3.2000000000000113
      vertex 64.5 26 6.440000000000012
      vertex 64.5511112605664 26.38822856765378 6.440000000000012
    endloop
  endfacet
  facet normal -0.9238795325112904 -0.3826834323650809 0
    outer loop
      vertex 64.70096189432334 25.25 3.2000000000000113
      vertex 64.70096189432334 25.25 6.440000000000012
      vertex 64.5511112605664 25.61177143234622 6.440000000000012
    endloop
  endfacet
  facet normal -0.9238795325112904 0.3826834323650809 0
    outer loop
      vertex 64.5511112605664 26.38822856765378 3.2000000000000113
      vertex 64.5511112605664 26.38822856765378 6.440000000000012
      vertex 64.70096189432334 26.75 6.440000000000012
    endloop
  endfacet
  facet normal 0 0 1
    outer loop
      vertex 64.5 26 6.440000000000012
      vertex 64.5511112605664 25.61177143234622 6.440000000000012
      vertex 64.5511112605664 26.38822856765378 6.440000000000012
    endloop
  endfacet
  facet normal 0 0 1
    outer loop
      vertex 64.5511112605664 25.61177143234622 6.440000000000012
      vertex 64.70096189432334 25.25 6.440000000000012
      vertex 64.5511112605664 26.38822856765378 6.440000000000012
    endloop
  endfacet
  facet normal 0 0 1
    outer loop
      vertex 64.5511112605664 26.38822856765378 6.440000000000012
      vertex 64.70096189432334 25.25 6.440000000000012
      vertex 64.70096189432334 26.75 6.440000000000012
    endloop
  endfacet
  facet normal -0.6087614290087253 -0.7933533402912316 0
    outer loop
      vertex 64.93933982822018 24.939339828220177 3.2000000000000113
      vertex 65.25 24.700961894323342 3.2000000000000113
      vertex 64.93933982822018 24.939339828220177 6.440000000000012
    endloop
  endfacet
  facet normal -0.38268343236509184 -0.9238795325112859 0
    outer loop
      vertex 65.25 24.700961894323342 3.2000000000000113
      vertex 65.61177143234622 24.551111260566397 3.2000000000000113
      vertex 65.25 24.700961894323342 6.440000000000012
    endloop
  endfacet
  facet normal -0.7933533402912295 -0.608761429008728 0
    outer loop
      vertex 64.70096189432334 25.25 3.2000000000000113
      vertex 64.93933982822018 24.939339828220177 3.2000000000000113
      vertex 64.70096189432334 25.25 6.440000000000012
    endloop
  endfacet
  facet normal -0.7933533402912295 0.608761429008728 0
    outer loop
      vertex 64.70096189432334 26.75 3.2000000000000113
      vertex 64.93933982822018 27.060660171779823 6.440000000000012
      vertex 64.93933982822018 27.060660171779823 3.2000000000000113
    endloop
  endfacet
  facet normal -0.6087614290087253 0.7933533402912316 0
    outer loop
      vertex 64.93933982822018 27.060660171779823 3.2000000000000113
      vertex 65.25 27.299038105676658 6.440000000000012
      vertex 65.25 27.299038105676658 3.2000000000000113
    endloop
  endfacet
  facet normal -0.13052619222005063 -0.9914448613738105 0
    outer loop
      vertex 65.61177143234622 24.551111260566397 3.2000000000000113
      vertex 66 24.5 3.2000000000000113
      vertex 65.61177143234622 24.551111260566397 6.440000000000012
    endloop
  endfacet
  facet normal -0.38268343236509184 0.9238795325112859 0
    outer loop
      vertex 65.25 27.299038105676658 3.2000000000000113
      vertex 65.61177143234622 27.448888739433603 6.440000000000012
      vertex 65.61177143234622 27.448888739433603 3.2000000000000113
    endloop
  endfacet
  facet normal -0.13052619222005063 0.9914448613738105 0
    outer loop
      vertex 65.61177143234622 27.448888739433603 3.2000000000000113
      vertex 66 27.5 6.440000000000012
      vertex 66 27.5 3.2000000000000113
    endloop
  endfacet
  facet normal -0.7933533402912295 -0.608761429008728 0
    outer loop
      vertex 64.93933982822018 24.939339828220177 3.2000000000000113
      vertex 64.93933982822018 24.939339828220177 6.440000000000012
      vertex 64.70096189432334 25.25 6.440000000000012
    endloop
  endfacet
  facet normal -0.6087614290087253 -0.7933533402912316 0
    outer loop
      vertex 65.25 24.700961894323342 3.2000000000000113
      vertex 65.25 24.700961894323342 6.440000000000012
      vertex 64.93933982822018 24.939339828220177 6.440000000000012
    endloop
  endfacet
  facet normal -0.7933533402912295 0.608761429008728 0
    outer loop
      vertex 64.70096189432334 26.75 3.2000000000000113
      vertex 64.70096189432334 26.75 6.440000000000012
      vertex 64.93933982822018 27.060660171779823 6.440000000000012
    endloop
  endfacet
  facet normal -0.6087614290087253 0.7933533402912316 0
    outer loop
      vertex 64.93933982822018 27.060660171779823 3.2000000000000113
      vertex 64.93933982822018 27.060660171779823 6.440000000000012
      vertex 65.25 27.299038105676658 6.440000000000012
    endloop
  endfacet
  facet normal -0.38268343236509184 0.9238795325112859 0
    outer loop
      vertex 65.25 27.299038105676658 3.2000000000000113
      vertex 65.25 27.299038105676658 6.440000000000012
      vertex 65.61177143234622 27.448888739433603 6.440000000000012
    endloop
  endfacet
  facet normal 0 0 1
    outer loop
      vertex 64.70096189432334 25.25 6.440000000000012
      vertex 64.93933982822018 24.939339828220177 6.440000000000012
      vertex 64.70096189432334 26.75 6.440000000000012
    endloop
  endfacet
  facet normal 0 0 1
    outer loop
      vertex 64.70096189432334 26.75 6.440000000000012
      vertex 64.93933982822018 24.939339828220177 6.440000000000012
      vertex 64.93933982822018 27.060660171779823 6.440000000000012
    endloop
  endfacet
  facet normal 0 0 1
    outer loop
      vertex 64.93933982822018 24.939339828220177 6.440000000000012
      vertex 65.25 24.700961894323342 6.440000000000012
      vertex 64.93933982822018 27.060660171779823 6.440000000000012
    endloop
  endfacet
  facet normal 0 0 1
    outer loop
      vertex 64.93933982822018 27.060660171779823 6.440000000000012
      vertex 65.25 24.700961894323342 6.440000000000012
      vertex 65.25 27.299038105676658 6.440000000000012
    endloop
  endfacet
  facet normal 0 0 1
    outer loop
      vertex 65.25 24.700961894323342 6.440000000000012
      vertex 65.61177143234622 24.551111260566397 6.440000000000012
      vertex 65.25 27.299038105676658 6.440000000000012
    endloop
  endfacet
  facet normal -0.38268343236509184 -0.9238795325112859 0
    outer loop
      vertex 65.61177143234622 24.551111260566397 3.2000000000000113
      vertex 65.61177143234622 24.551111260566397 6.440000000000012
      vertex 65.25 24.700961894323342 6.440000000000012
    endloop
  endfacet
  facet normal -0.13052619222005063 -0.9914448613738105 0
    outer loop
      vertex 65.61177143234622 24.551111260566397 6.440000000000012
      vertex 66 24.5 3.2000000000000113
      vertex 66 24.5 6.440000000000012
    endloop
  endfacet
  facet normal -0.13052619222005063 0.9914448613738105 0
    outer loop
      vertex 65.61177143234622 27.448888739433603 3.2000000000000113
      vertex 65.61177143234622 27.448888739433603 6.440000000000012
      vertex 66 27.5 6.440000000000012
    endloop
  endfacet
  facet normal 0 0 1
    outer loop
      vertex 65.25 27.299038105676658 6.440000000000012
      vertex 65.61177143234622 24.551111260566397 6.440000000000012
      vertex 65.61177143234622 27.448888739433603 6.440000000000012
    endloop
  endfacet
  facet normal 0 0 1
    outer loop
      vertex 65.61177143234622 24.551111260566397 6.440000000000012
      vertex 66 24.5 6.440000000000012
      vertex 65.61177143234622 27.448888739433603 6.440000000000012
    endloop
  endfacet
  facet normal 0 0 1
    outer loop
      vertex 65.61177143234622 27.448888739433603 6.440000000000012
      vertex 66 24.5 6.440000000000012
      vertex 66 27.5 6.440000000000012
    endloop
  endfacet
  facet normal 0.13052619222005063 -0.9914448613738105 0
    outer loop
      vertex 66 24.5 3.2000000000000113
      vertex 66.38822856765378 24.551111260566397 3.2000000000000113
      vertex 66 24.5 6.440000000000012
    endloop
  endfacet
  facet normal 0.38268343236509184 -0.9238795325112859 0
    outer loop
      vertex 66.38822856765378 24.551111260566397 3.2000000000000113
      vertex 66.75 24.700961894323342 3.2000000000000113
      vertex 66.38822856765378 24.551111260566397 6.440000000000012
    endloop
  endfacet
  facet normal 0.13052619222005063 0.9914448613738105 0
    outer loop
      vertex 66 27.5 3.2000000000000113
      vertex 66.38822856765378 27.448888739433603 6.440000000000012
      vertex 66.38822856765378 27.448888739433603 3.2000000000000113
    endloop
  endfacet
  facet normal 0.6087614290087253 -0.7933533402912316 0
    outer loop
      vertex 66.75 24.700961894323342 3.2000000000000113
      vertex 67.06066017177982 24.939339828220177 3.2000000000000113
      vertex 66.75 24.700961894323342 6.440000000000012
    endloop
  endfacet
  facet normal 0.7933533402912295 -0.608761429008728 0
    outer loop
      vertex 67.06066017177982 24.939339828220177 3.2000000000000113
      vertex 67.29903810567666 25.25 3.2000000000000113
      vertex 67.06066017177982 24.939339828220177 6.440000000000012
    endloop
  endfacet
  facet normal 0.38268343236509184 0.9238795325112859 0
    outer loop
      vertex 66.38822856765378 27.448888739433603 3.2000000000000113
      vertex 66.75 27.299038105676658 6.440000000000012
      vertex 66.75 27.299038105676658 3.2000000000000113
    endloop
  endfacet
  facet normal 0.6087614290087253 0.7933533402912316 0
    outer loop
      vertex 66.75 27.299038105676658 3.2000000000000113
      vertex 67.06066017177982 27.060660171779823 6.440000000000012
      vertex 67.06066017177982 27.060660171779823 3.2000000000000113
    endloop
  endfacet
  facet normal 0.7933533402912295 0.608761429008728 0
    outer loop
      vertex 67.06066017177982 27.060660171779823 3.2000000000000113
      vertex 67.29903810567666 26.75 6.440000000000012
      vertex 67.29903810567666 26.75 3.2000000000000113
    endloop
  endfacet
  facet normal 0.13052619222005063 -0.9914448613738105 0
    outer loop
      vertex 66.38822856765378 24.551111260566397 3.2000000000000113
      vertex 66.38822856765378 24.551111260566397 6.440000000000012
      vertex 66 24.5 6.440000000000012
    endloop
  endfacet
  facet normal 0.13052619222005063 0.9914448613738105 0
    outer loop
      vertex 66 27.5 3.2000000000000113
      vertex 66 27.5 6.440000000000012
      vertex 66.38822856765378 27.448888739433603 6.440000000000012
    endloop
  endfacet
  facet normal 0.38268343236509184 0.9238795325112859 0
    outer loop
      vertex 66.38822856765378 27.448888739433603 3.2000000000000113
      vertex 66.38822856765378 27.448888739433603 6.440000000000012
      vertex 66.75 27.299038105676658 6.440000000000012
    endloop
  endfacet
  facet normal 0 0 1
    outer loop
      vertex 66 24.5 6.440000000000012
      vertex 66.38822856765378 24.551111260566397 6.440000000000012
      vertex 66 27.5 6.440000000000012
    endloop
  endfacet
  facet normal 0 0 1
    outer loop
      vertex 66.38822856765378 24.551111260566397 6.440000000000012
      vertex 66.38822856765378 27.448888739433603 6.440000000000012
      vertex 66 27.5 6.440000000000012
    endloop
  endfacet
  facet normal 0 0 1
    outer loop
      vertex 66.38822856765378 24.551111260566397 6.440000000000012
      vertex 66.75 24.700961894323342 6.440000000000012
      vertex 66.38822856765378 27.448888739433603 6.440000000000012
    endloop
  endfacet
  facet normal 0.38268343236509184 -0.9238795325112859 0
    outer loop
      vertex 66.75 24.700961894323342 3.2000000000000113
      vertex 66.75 24.700961894323342 6.440000000000012
      vertex 66.38822856765378 24.551111260566397 6.440000000000012
    endloop
  endfacet
  facet normal 0.6087614290087253 -0.7933533402912316 0
    outer loop
      vertex 67.06066017177982 24.939339828220177 3.2000000000000113
      vertex 67.06066017177982 24.939339828220177 6.440000000000012
      vertex 66.75 24.700961894323342 6.440000000000012
    endloop
  endfacet
  facet normal 0.6087614290087253 0.7933533402912316 0
    outer loop
      vertex 66.75 27.299038105676658 3.2000000000000113
      vertex 66.75 27.299038105676658 6.440000000000012
      vertex 67.06066017177982 27.060660171779823 6.440000000000012
    endloop
  endfacet
  facet normal 0.7933533402912295 -0.608761429008728 0
    outer loop
      vertex 67.29903810567666 25.25 3.2000000000000113
      vertex 67.29903810567666 25.25 6.440000000000012
      vertex 67.06066017177982 24.939339828220177 6.440000000000012
    endloop
  endfacet
  facet normal 0.7933533402912295 0.608761429008728 0
    outer loop
      vertex 67.06066017177982 27.060660171779823 3.2000000000000113
      vertex 67.06066017177982 27.060660171779823 6.440000000000012
      vertex 67.29903810567666 26.75 6.440000000000012
    endloop
  endfacet
  facet normal 0 0 1
    outer loop
      vertex 66.75 24.700961894323342 6.440000000000012
      vertex 67.06066017177982 24.939339828220177 6.440000000000012
      vertex 66.75 27.299038105676658 6.440000000000012
    endloop
  endfacet
  facet normal 0 0 1
    outer loop
      vertex 66.38822856765378 27.448888739433603 6.440000000000012
      vertex 66.75 24.700961894323342 6.440000000000012
      vertex 66.75 27.299038105676658 6.440000000000012
    endloop
  endfacet
  facet normal 0 0 1
    outer loop
      vertex 66.75 27.299038105676658 6.440000000000012
      vertex 67.06066017177982 24.939339828220177 6.440000000000012
      vertex 67.06066017177982 27.060660171779823 6.440000000000012
    endloop
  endfacet
  facet normal 0 0 1
    outer loop
      vertex 67.06066017177982 24.939339828220177 6.440000000000012
      vertex 67.29903810567666 25.25 6.440000000000012
      vertex 67.06066017177982 27.060660171779823 6.440000000000012
    endloop
  endfacet
  facet normal 0 0 1
    outer loop
      vertex 67.06066017177982 27.060660171779823 6.440000000000012
      vertex 67.29903810567666 25.25 6.440000000000012
      vertex 67.29903810567666 26.75 6.440000000000012
    endloop
  endfacet
  facet normal 0.9238795325112904 -0.3826834323650809 0
    outer loop
      vertex 67.29903810567666 25.25 3.2000000000000113
      vertex 67.4488887394336 25.61177143234622 3.2000000000000113
      vertex 67.29903810567666 25.25 6.440000000000012
    endloop
  endfacet
  facet normal 0.9914448613738093 -0.13052619222006073 0
    outer loop
      vertex 67.4488887394336 25.61177143234622 3.2000000000000113
      vertex 67.5 26 3.2000000000000113
      vertex 67.4488887394336 25.61177143234622 6.440000000000012
    endloop
  endfacet
  facet normal 0.9914448613738093 0.13052619222006073 0
    outer loop
      vertex 67.4488887394336 26.38822856765378 3.2000000000000113
      vertex 67.5 26 6.440000000000012
      vertex 67.5 26 3.2000000000000113
    endloop
  endfacet
  facet normal 0.9238795325112904 0.3826834323650809 0
    outer loop
      vertex 67.4488887394336 26.38822856765378 3.2000000000000113
      vertex 67.29903810567666 26.75 3.2000000000000113
      vertex 67.4488887394336 26.38822856765378 6.440000000000012
    endloop
  endfacet
  facet normal 0.9238795325112904 -0.3826834323650809 0
    outer loop
      vertex 67.4488887394336 25.61177143234622 3.2000000000000113
      vertex 67.4488887394336 25.61177143234622 6.440000000000012
      vertex 67.29903810567666 25.25 6.440000000000012
    endloop
  endfacet
  facet normal 0.9914448613738093 -0.13052619222006073 0
    outer loop
      vertex 67.5 26 3.2000000000000113
      vertex 67.5 26 6.440000000000012
      vertex 67.4488887394336 25.61177143234622 6.440000000000012
    endloop
  endfacet
  facet normal 0.9914448613738093 0.13052619222006073 0
    outer loop
      vertex 67.4488887394336 26.38822856765378 3.2000000000000113
      vertex 67.4488887394336 26.38822856765378 6.440000000000012
      vertex 67.5 26 6.440000000000012
    endloop
  endfacet
  facet normal 0.9238795325112904 0.3826834323650809 0
    outer loop
      vertex 67.29903810567666 26.75 3.2000000000000113
      vertex 67.29903810567666 26.75 6.440000000000012
      vertex 67.4488887394336 26.38822856765378 6.440000000000012
    endloop
  endfacet
  facet normal 0 0 1
    outer loop
      vertex 67.29903810567666 25.25 6.440000000000012
      vertex 67.4488887394336 25.61177143234622 6.440000000000012
      vertex 67.29903810567666 26.75 6.440000000000012
    endloop
  endfacet
  facet normal 0 0 1
    outer loop
      vertex 67.4488887394336 25.61177143234622 6.440000000000012
      vertex 67.4488887394336 26.38822856765378 6.440000000000012
      vertex 67.29903810567666 26.75 6.440000000000012
    endloop
  endfacet
  facet normal 0 0 1
    outer loop
      vertex 67.4488887394336 25.61177143234622 6.440000000000012
      vertex 67.5 26 6.440000000000012
      vertex 67.4488887394336 26.38822856765378 6.440000000000012
    endloop
  endfacet
endsolid OpenSCAD_Model
