solid OpenSCAD_Model
  facet normal 1 0 0
    outer loop
      vertex 2.2000000029802322 -3.7999999970197678 0
      vertex 2.2000000029802322 -3 0
      vertex 2.2000000029802322 -3.7999999970197678 5
    endloop
  endfacet
  facet normal -0.34550767803987836 -0.9384159229336914 0
    outer loop
      vertex 2.2000000029802322 -3.7999999970197678 0
      vertex 2.2000000029802322 -3.7999999970197678 5
      vertex 0.027160488069057465 -3 5
    endloop
  endfacet
  facet normal 0 0 -1
    outer loop
      vertex 2.2000000029802322 -3.7999999970197678 0
      vertex 0.027160488069057465 -3 0
      vertex 2.2000000029802322 -3 0
    endloop
  endfacet
  facet normal 0 0 -1
    outer loop
      vertex 0 -3 0
      vertex 11.99 -0.7 0
      vertex 0.027160488069057465 -3 0
    endloop
  endfacet
  facet normal -0.34550767803987836 -0.9384159229336914 0
    outer loop
      vertex 2.2000000029802322 -3.7999999970197678 0
      vertex 0.027160488069057465 -3 5
      vertex 0.027160488069057465 -3 0
    endloop
  endfacet
  facet normal 0 -1 0
    outer loop
      vertex 0 -3 0
      vertex 0.027160488069057465 -3 0
      vertex 0 -3 5
    endloop
  endfacet
  facet normal -1 0 0
    outer loop
      vertex 0 -3 0
      vertex 0 -3 5
      vertex 0 -0.7 0
    endloop
  endfacet
  facet normal 0 0 -1
    outer loop
      vertex 0 -3 0
      vertex 0 -0.7 0
      vertex 11.99 -0.7 0
    endloop
  endfacet
  facet normal 0 0 -1
    outer loop
      vertex 0.027160488069057465 -3 0
      vertex 11.99 -0.7 0
      vertex 2.2000000029802322 -3 0
    endloop
  endfacet
  facet normal 0 -1 0
    outer loop
      vertex 0.027160488069057465 -3 0
      vertex 0.027160488069057465 -3 5
      vertex 0 -3 5
    endloop
  endfacet
  facet normal 1 0 0
    outer loop
      vertex 2.2000000029802322 -3 0
      vertex 2.2000000029802322 -3 5
      vertex 2.2000000029802322 -3.7999999970197678 5
    endloop
  endfacet
  facet normal -1 0 0
    outer loop
      vertex 0 -3 5
      vertex 0 -0.7 5
      vertex 0 -0.7 0
    endloop
  endfacet
  facet normal 0 0 -1
    outer loop
      vertex 2.2000000029802322 -3 0
      vertex 11.99 -0.7 0
      vertex 30.85393192262734 2.997906776745451 0
    endloop
  endfacet
  facet normal 0 -1 0
    outer loop
      vertex 2.2000000029802322 -3 0
      vertex 30.85393192262734 -3 5
      vertex 2.2000000029802322 -3 5
    endloop
  endfacet
  facet normal 0 0 1
    outer loop
      vertex 2.2000000029802322 -3.7999999970197678 5
      vertex 2.2000000029802322 -3 5
      vertex 0.027160488069057465 -3 5
    endloop
  endfacet
  facet normal 0 0 1
    outer loop
      vertex 0 -3 5
      vertex 0.027160488069057465 -3 5
      vertex 0 -0.7 5
    endloop
  endfacet
  facet normal 0 0 1
    outer loop
      vertex 0.027160488069057465 -3 5
      vertex 2.2000000029802322 -3 5
      vertex 0 -0.7 5
    endloop
  endfacet
  facet normal 0 0 1
    outer loop
      vertex 2.2000000029802322 -3 5
      vertex 11.99 -0.7 5
      vertex 0 -0.7 5
    endloop
  endfacet
  facet normal 0 0 1
    outer loop
      vertex 2.2000000029802322 -3 5
      vertex 30.85393192262734 3 5
      vertex 11.99 -0.7 5
    endloop
  endfacet
  facet normal -1 0 0
    outer loop
      vertex 0 3 0
      vertex 0 0.7 0
      vertex 0 0.7 5
    endloop
  endfacet
  facet normal 0 0 -1
    outer loop
      vertex 0.027160488069057465 3 0
      vertex 0 0.7 0
      vertex 0 3 0
    endloop
  endfacet
  facet normal 0 0 -1
    outer loop
      vertex 0.027160488069057465 3 0
      vertex 2.2000000029802322 3 0
      vertex 0 0.7 0
    endloop
  endfacet
  facet normal 0 0 -1
    outer loop
      vertex 0.027160488069057465 3 0
      vertex 2.2000000029802322 3.7999999970197678 0
      vertex 2.2000000029802322 3 0
    endloop
  endfacet
  facet normal 0 1 0
    outer loop
      vertex 0.027160488069057465 3 0
      vertex 0 3 0
      vertex 0.027160488069057465 3 5
    endloop
  endfacet
  facet normal 1 0 0
    outer loop
      vertex 2.2000000029802322 3 0
      vertex 2.2000000029802322 3.7999999970197678 0
      vertex 2.2000000029802322 3 5
    endloop
  endfacet
  facet normal -1 0 0
    outer loop
      vertex 0 3 0
      vertex 0 0.7 5
      vertex 0 3 5
    endloop
  endfacet
  facet normal 0 1 0
    outer loop
      vertex 0 3 0
      vertex 0 3 5
      vertex 0.027160488069057465 3 5
    endloop
  endfacet
  facet normal -0.34550767803987836 0.9384159229336914 0
    outer loop
      vertex 0.027160488069057465 3 0
      vertex 0.027160488069057465 3 5
      vertex 2.2000000029802322 3.7999999970197678 5
    endloop
  endfacet
  facet normal -0.34550767803987836 0.9384159229336914 0
    outer loop
      vertex 0.027160488069057465 3 0
      vertex 2.2000000029802322 3.7999999970197678 5
      vertex 2.2000000029802322 3.7999999970197678 0
    endloop
  endfacet
  facet normal 1 0 0
    outer loop
      vertex 2.2000000029802322 3.7999999970197678 0
      vertex 2.2000000029802322 3.7999999970197678 5
      vertex 2.2000000029802322 3 5
    endloop
  endfacet
  facet normal 0 0 -1
    outer loop
      vertex 2.2000000029802322 3 0
      vertex 30.85393192262734 2.997906776745451 0
      vertex 0 0.7 0
    endloop
  endfacet
  facet normal 0 1 0
    outer loop
      vertex 2.2000000029802322 3 0
      vertex 2.2000000029802322 3 5
      vertex 30.85393192262734 3 0
    endloop
  endfacet
  facet normal 0 0 -1
    outer loop
      vertex 30.85393192262734 2.997906776745451 0
      vertex 11.99 0.7 0
      vertex 0 0.7 0
    endloop
  endfacet
  facet normal 0 0 -1
    outer loop
      vertex 30.85393192262734 2.997906776745451 0
      vertex 11.99 -0.7 0
      vertex 11.99 0.7 0
    endloop
  endfacet
  facet normal 0 0 1
    outer loop
      vertex 0 3 5
      vertex 0 0.7 5
      vertex 11.99 0.7 5
    endloop
  endfacet
  facet normal 0 0 1
    outer loop
      vertex 0.027160488069057465 3 5
      vertex 2.2000000029802322 3 5
      vertex 2.2000000029802322 3.7999999970197678 5
    endloop
  endfacet
  facet normal 0 0 1
    outer loop
      vertex 0.027160488069057465 3 5
      vertex 0 3 5
      vertex 11.99 0.7 5
    endloop
  endfacet
  facet normal 0 0 1
    outer loop
      vertex 0.027160488069057465 3 5
      vertex 11.99 0.7 5
      vertex 2.2000000029802322 3 5
    endloop
  endfacet
  facet normal 0 0 1
    outer loop
      vertex 30.85393192262734 3 5
      vertex 11.99 0.7 5
      vertex 11.99 -0.7 5
    endloop
  endfacet
  facet normal 0 0 1
    outer loop
      vertex 2.2000000029802322 3 5
      vertex 11.99 0.7 5
      vertex 30.85393192262734 3 5
    endloop
  endfacet
  facet normal 0 -1 0
    outer loop
      vertex 2.2000000029802322 -3 0
      vertex 30.85393192262734 -3 0
      vertex 30.85393192262734 -3 5
    endloop
  endfacet
  facet normal 0 0 -1
    outer loop
      vertex 2.2000000029802322 -3 0
      vertex 30.85393192262734 2.997906776745451 0
      vertex 30.85393192262734 -3 0
    endloop
  endfacet
  facet normal 0 0 1
    outer loop
      vertex 2.2000000029802322 -3 5
      vertex 30.85393192262734 -3 5
      vertex 30.85393192262734 3 5
    endloop
  endfacet
  facet normal 0 0 -1
    outer loop
      vertex 2.2000000029802322 3 0
      vertex 30.85393192262734 3 0
      vertex 30.85393192262734 2.997906776745451 0
    endloop
  endfacet
  facet normal 0 1 0
    outer loop
      vertex 2.2000000029802322 3 5
      vertex 30.85393192262734 3 5
      vertex 30.85393192262734 3 0
    endloop
  endfacet
  facet normal -1 0 0
    outer loop
      vertex 30.85393192262734 -5 0
      vertex 30.85393192262734 -3 5
      vertex 30.85393192262734 -3 0
    endloop
  endfacet
  facet normal 0 0 -1
    outer loop
      vertex 32.0086953976878 -6.8126155734062195 0
      vertex 36.00108479352082 -6.638304091989994 0
      vertex 32.169891636980424 -6.879385240375996 0
    endloop
  endfacet
  facet normal 0 0 -1
    outer loop
      vertex 32.0086953976878 -6.8126155734062195 0
      vertex 31.85393192262734 -6.732050806283951 0
      vertex 36.139507141126046 -6.5320888832211494 0
    endloop
  endfacet
  facet normal 0 0 -1
    outer loop
      vertex 31.85393192262734 -6.732050806283951 0
      vertex 31.70677905173386 -6.638304091989994 0
      vertex 36.26814548314894 -6.414213560521603 0
    endloop
  endfacet
  facet normal 0 0 -1
    outer loop
      vertex 31.70677905173386 -6.638304091989994 0
      vertex 31.568356704128632 -6.5320888832211494 0
      vertex 36.38602080584849 -6.285575218498707 0
    endloop
  endfacet
  facet normal 0 0 -1
    outer loop
      vertex 31.568356704128632 -6.5320888832211494 0
      vertex 31.439718362105737 -6.414213560521603 0
      vertex 36.49223601461733 -6.147152870893478 0
    endloop
  endfacet
  facet normal 0 0 -1
    outer loop
      vertex 31.439718362105737 -6.414213560521603 0
      vertex 31.32184303940619 -6.285575218498707 0
      vertex 36.58598272891129 -6 0
    endloop
  endfacet
  facet normal 0 0 -1
    outer loop
      vertex 32.336293835354695 -6.931851655244827 0
      vertex 35.699168447566876 -6.8126155734062195 0
      vertex 32.50663556547249 -6.969615504145622 0
    endloop
  endfacet
  facet normal 0 0 -1
    outer loop
      vertex 32.50663556547249 -6.969615504145622 0
      vertex 35.537972208274255 -6.879385240375996 0
      vertex 32.67962043376053 -6.992389395833015 0
    endloop
  endfacet
  facet normal 0 0 -1
    outer loop
      vertex 32.67962043376053 -6.992389395833015 0
      vertex 35.37157000989998 -6.931851655244827 0
      vertex 32.85393192262734 -7 0
    endloop
  endfacet
  facet normal 0 0 -1
    outer loop
      vertex 32.169891636980424 -6.879385240375996 0
      vertex 35.85393192262734 -6.732050806283951 0
      vertex 32.336293835354695 -6.931851655244827 0
    endloop
  endfacet
  facet normal 0 0 -1
    outer loop
      vertex 32.85393192262734 -7 0
      vertex 35.201228279782185 -6.969615504145622 0
      vertex 34.85393192262734 -7 0
    endloop
  endfacet
  facet normal 0 0 -1
    outer loop
      vertex 32.85393192262734 -7 0
      vertex 35.37157000989998 -6.931851655244827 0
      vertex 35.201228279782185 -6.969615504145622 0
    endloop
  endfacet
  facet normal 0 0 -1
    outer loop
      vertex 32.67962043376053 -6.992389395833015 0
      vertex 35.537972208274255 -6.879385240375996 0
      vertex 35.37157000989998 -6.931851655244827 0
    endloop
  endfacet
  facet normal 0 0 -1
    outer loop
      vertex 31.32184303940619 -6.285575218498707 0
      vertex 31.215627830637345 -6.147152870893478 0
      vertex 36.66654749603356 -5.845236524939537 0
    endloop
  endfacet
  facet normal 0 0 -1
    outer loop
      vertex 31.215627830637345 -6.147152870893478 0
      vertex 31.12188111634339 -6 0
      vertex 36.733317163003335 -5.684040285646915 0
    endloop
  endfacet
  facet normal 0 0 -1
    outer loop
      vertex 31.04131634922112 -5.845236524939537 0
      vertex 36.78578357787217 -5.517638087272644 0
      vertex 31.12188111634339 -6 0
    endloop
  endfacet
  facet normal 0 0 -1
    outer loop
      vertex 31.04131634922112 -5.845236524939537 0
      vertex 30.974546682251344 -5.684040285646915 0
      vertex 36.82354742677296 -5.347296357154846 0
    endloop
  endfacet
  facet normal 0 0 -1
    outer loop
      vertex 30.974546682251344 -5.684040285646915 0
      vertex 30.922080267382512 -5.517638087272644 0
      vertex 36.846321318460355 -5.174311488866806 0
    endloop
  endfacet
  facet normal 0 0 -1
    outer loop
      vertex 30.922080267382512 -5.517638087272644 0
      vertex 30.884316418481717 -5.347296357154846 0
      vertex 36.85393192262734 -5 0
    endloop
  endfacet
  facet normal 0 0 -1
    outer loop
      vertex 32.50663556547249 -6.969615504145622 0
      vertex 35.699168447566876 -6.8126155734062195 0
      vertex 35.537972208274255 -6.879385240375996 0
    endloop
  endfacet
  facet normal 0 0 -1
    outer loop
      vertex 32.336293835354695 -6.931851655244827 0
      vertex 35.85393192262734 -6.732050806283951 0
      vertex 35.699168447566876 -6.8126155734062195 0
    endloop
  endfacet
  facet normal 0 0 -1
    outer loop
      vertex 34.85393192262734 -7 0
      vertex 35.201228279782185 -6.969615504145622 0
      vertex 35.028243411494145 -6.992389395833015 0
    endloop
  endfacet
  facet normal 0 0 -1
    outer loop
      vertex 32.169891636980424 -6.879385240375996 0
      vertex 36.00108479352082 -6.638304091989994 0
      vertex 35.85393192262734 -6.732050806283951 0
    endloop
  endfacet
  facet normal 0 0 -1
    outer loop
      vertex 32.0086953976878 -6.8126155734062195 0
      vertex 36.139507141126046 -6.5320888832211494 0
      vertex 36.00108479352082 -6.638304091989994 0
    endloop
  endfacet
  facet normal 0 0 -1
    outer loop
      vertex 31.85393192262734 -6.732050806283951 0
      vertex 36.26814548314894 -6.414213560521603 0
      vertex 36.139507141126046 -6.5320888832211494 0
    endloop
  endfacet
  facet normal 0 0 -1
    outer loop
      vertex 31.70677905173386 -6.638304091989994 0
      vertex 36.38602080584849 -6.285575218498707 0
      vertex 36.26814548314894 -6.414213560521603 0
    endloop
  endfacet
  facet normal 0 0 -1
    outer loop
      vertex 31.568356704128632 -6.5320888832211494 0
      vertex 36.49223601461733 -6.147152870893478 0
      vertex 36.38602080584849 -6.285575218498707 0
    endloop
  endfacet
  facet normal 0 0 -1
    outer loop
      vertex 31.439718362105737 -6.414213560521603 0
      vertex 36.58598272891129 -6 0
      vertex 36.49223601461733 -6.147152870893478 0
    endloop
  endfacet
  facet normal 0 0 -1
    outer loop
      vertex 31.32184303940619 -6.285575218498707 0
      vertex 36.66654749603356 -5.845236524939537 0
      vertex 36.58598272891129 -6 0
    endloop
  endfacet
  facet normal 0 0 -1
    outer loop
      vertex 31.215627830637345 -6.147152870893478 0
      vertex 36.733317163003335 -5.684040285646915 0
      vertex 36.66654749603356 -5.845236524939537 0
    endloop
  endfacet
  facet normal 0 0 -1
    outer loop
      vertex 31.12188111634339 -6 0
      vertex 36.78578357787217 -5.517638087272644 0
      vertex 36.733317163003335 -5.684040285646915 0
    endloop
  endfacet
  facet normal 0 0 -1
    outer loop
      vertex 31.04131634922112 -5.845236524939537 0
      vertex 36.82354742677296 -5.347296357154846 0
      vertex 36.78578357787217 -5.517638087272644 0
    endloop
  endfacet
  facet normal 0 0 -1
    outer loop
      vertex 30.974546682251344 -5.684040285646915 0
      vertex 36.846321318460355 -5.174311488866806 0
      vertex 36.82354742677296 -5.347296357154846 0
    endloop
  endfacet
  facet normal 0 0 -1
    outer loop
      vertex 30.922080267382512 -5.517638087272644 0
      vertex 36.85393192262734 -5 0
      vertex 36.846321318460355 -5.174311488866806 0
    endloop
  endfacet
  facet normal -0.6087614496139754 -0.7933533244802667 0
    outer loop
      vertex 31.70677905173386 -6.638304091989994 0
      vertex 31.568356704128632 -6.5320888832211494 10
      vertex 31.568356704128632 -6.5320888832211494 0
    endloop
  endfacet
  facet normal -0.3007058164710832 -0.9537169453986121 0
    outer loop
      vertex 32.169891636980424 -6.879385240375996 0
      vertex 32.336293835354695 -6.931851655244827 0
      vertex 32.169891636980424 -6.879385240375996 10
    endloop
  endfacet
  facet normal -0.3826834247884422 -0.923879535649637 0
    outer loop
      vertex 32.0086953976878 -6.8126155734062195 0
      vertex 32.169891636980424 -6.879385240375996 0
      vertex 32.0086953976878 -6.8126155734062195 10
    endloop
  endfacet
  facet normal -0.4617486194440415 -0.8870108299460169 0
    outer loop
      vertex 32.0086953976878 -6.8126155734062195 0
      vertex 31.85393192262734 -6.732050806283951 10
      vertex 31.85393192262734 -6.732050806283951 0
    endloop
  endfacet
  facet normal -0.5372995938957164 -0.8433914550192565 0
    outer loop
      vertex 31.85393192262734 -6.732050806283951 0
      vertex 31.70677905173386 -6.638304091989994 10
      vertex 31.70677905173386 -6.638304091989994 0
    endloop
  endfacet
  facet normal -0.6755902067746475 -0.7372773375807703 0
    outer loop
      vertex 31.568356704128632 -6.5320888832211494 0
      vertex 31.439718362105737 -6.414213560521603 10
      vertex 31.439718362105737 -6.414213560521603 0
    endloop
  endfacet
  facet normal -0.7372773375807703 -0.6755902067746475 0
    outer loop
      vertex 31.439718362105737 -6.414213560521603 0
      vertex 31.32184303940619 -6.285575218498707 10
      vertex 31.32184303940619 -6.285575218498707 0
    endloop
  endfacet
  facet normal -0.7933533244802667 -0.6087614496139754 0
    outer loop
      vertex 31.32184303940619 -6.285575218498707 0
      vertex 31.215627830637345 -6.147152870893478 10
      vertex 31.215627830637345 -6.147152870893478 0
    endloop
  endfacet
  facet normal -0.8870108299460169 -0.4617486194440415 0
    outer loop
      vertex 31.04131634922112 -5.845236524939537 0
      vertex 31.12188111634339 -6 0
      vertex 31.04131634922112 -5.845236524939537 10
    endloop
  endfacet
  facet normal -0.923879535649637 -0.3826834247884422 0
    outer loop
      vertex 31.04131634922112 -5.845236524939537 0
      vertex 30.974546682251344 -5.684040285646915 10
      vertex 30.974546682251344 -5.684040285646915 0
    endloop
  endfacet
  facet normal -0.9537169453986121 -0.3007058164710832 0
    outer loop
      vertex 30.974546682251344 -5.684040285646915 0
      vertex 30.922080267382512 -5.517638087272644 10
      vertex 30.922080267382512 -5.517638087272644 0
    endloop
  endfacet
  facet normal -0.9762960113487004 -0.21643959486336686 0
    outer loop
      vertex 30.922080267382512 -5.517638087272644 0
      vertex 30.884316418481717 -5.347296357154846 10
      vertex 30.884316418481717 -5.347296357154846 0
    endloop
  endfacet
  facet normal -0.8433914550192565 -0.5372995938957164 0
    outer loop
      vertex 31.215627830637345 -6.147152870893478 0
      vertex 31.12188111634339 -6 10
      vertex 31.12188111634339 -6 0
    endloop
  endfacet
  facet normal -0.9914448600888599 -0.13052620198021944 0
    outer loop
      vertex 30.884316418481717 -5.347296357154846 0
      vertex 30.861542526794324 -5.174311488866806 10
      vertex 30.861542526794324 -5.174311488866806 0
    endloop
  endfacet
  facet normal -0.9990482215310877 -0.04361938852815862 0
    outer loop
      vertex 30.861542526794324 -5.174311488866806 0
      vertex 30.85393192262734 -5 10
      vertex 30.85393192262734 -5 0
    endloop
  endfacet
  facet normal -0.21643959486336686 -0.9762960113487004 0
    outer loop
      vertex 32.336293835354695 -6.931851655244827 0
      vertex 32.50663556547249 -6.969615504145622 0
      vertex 32.336293835354695 -6.931851655244827 10
    endloop
  endfacet
  facet normal -0.13052620198021944 -0.9914448600888599 0
    outer loop
      vertex 32.50663556547249 -6.969615504145622 0
      vertex 32.67962043376053 -6.992389395833015 0
      vertex 32.50663556547249 -6.969615504145622 10
    endloop
  endfacet
  facet normal -0.04361938852815862 -0.9990482215310877 0
    outer loop
      vertex 32.67962043376053 -6.992389395833015 0
      vertex 32.85393192262734 -7 0
      vertex 32.67962043376053 -6.992389395833015 10
    endloop
  endfacet
  facet normal 0 -1 0
    outer loop
      vertex 32.85393192262734 -7 0
      vertex 34.85393192262734 -7 0
      vertex 32.85393192262734 -7 10
    endloop
  endfacet
  facet normal 0.04361938852815862 -0.9990482215310877 0
    outer loop
      vertex 34.85393192262734 -7 0
      vertex 35.028243411494145 -6.992389395833015 0
      vertex 34.85393192262734 -7 10
    endloop
  endfacet
  facet normal 0.13052620198021944 -0.9914448600888599 0
    outer loop
      vertex 35.028243411494145 -6.992389395833015 0
      vertex 35.201228279782185 -6.969615504145622 0
      vertex 35.028243411494145 -6.992389395833015 10
    endloop
  endfacet
  facet normal 0.21643959486336686 -0.9762960113487004 0
    outer loop
      vertex 35.201228279782185 -6.969615504145622 0
      vertex 35.37157000989998 -6.931851655244827 0
      vertex 35.201228279782185 -6.969615504145622 10
    endloop
  endfacet
  facet normal 0.3007058164710832 -0.9537169453986121 0
    outer loop
      vertex 35.37157000989998 -6.931851655244827 0
      vertex 35.537972208274255 -6.879385240375996 0
      vertex 35.37157000989998 -6.931851655244827 10
    endloop
  endfacet
  facet normal 0.3826834247884422 -0.923879535649637 0
    outer loop
      vertex 35.537972208274255 -6.879385240375996 0
      vertex 35.699168447566876 -6.8126155734062195 0
      vertex 35.537972208274255 -6.879385240375996 10
    endloop
  endfacet
  facet normal 0.4617486194440415 -0.8870108299460169 0
    outer loop
      vertex 35.699168447566876 -6.8126155734062195 0
      vertex 35.85393192262734 -6.732050806283951 0
      vertex 35.699168447566876 -6.8126155734062195 10
    endloop
  endfacet
  facet normal 0.5372995938957164 -0.8433914550192565 0
    outer loop
      vertex 35.85393192262734 -6.732050806283951 0
      vertex 36.00108479352082 -6.638304091989994 0
      vertex 35.85393192262734 -6.732050806283951 10
    endloop
  endfacet
  facet normal 0.6087614496139754 -0.7933533244802667 0
    outer loop
      vertex 36.00108479352082 -6.638304091989994 0
      vertex 36.139507141126046 -6.5320888832211494 0
      vertex 36.00108479352082 -6.638304091989994 10
    endloop
  endfacet
  facet normal 0.6755902067746475 -0.7372773375807703 0
    outer loop
      vertex 36.139507141126046 -6.5320888832211494 0
      vertex 36.26814548314894 -6.414213560521603 0
      vertex 36.139507141126046 -6.5320888832211494 10
    endloop
  endfacet
  facet normal 0.7372773375807703 -0.6755902067746475 0
    outer loop
      vertex 36.26814548314894 -6.414213560521603 0
      vertex 36.38602080584849 -6.285575218498707 0
      vertex 36.26814548314894 -6.414213560521603 10
    endloop
  endfacet
  facet normal 0.7933533244802667 -0.6087614496139754 0
    outer loop
      vertex 36.38602080584849 -6.285575218498707 0
      vertex 36.49223601461733 -6.147152870893478 0
      vertex 36.38602080584849 -6.285575218498707 10
    endloop
  endfacet
  facet normal 0.8433914550192565 -0.5372995938957164 0
    outer loop
      vertex 36.49223601461733 -6.147152870893478 0
      vertex 36.58598272891129 -6 0
      vertex 36.49223601461733 -6.147152870893478 10
    endloop
  endfacet
  facet normal 0.8870108299460169 -0.4617486194440415 0
    outer loop
      vertex 36.58598272891129 -6 0
      vertex 36.66654749603356 -5.845236524939537 0
      vertex 36.58598272891129 -6 10
    endloop
  endfacet
  facet normal 0.923879535649637 -0.3826834247884422 0
    outer loop
      vertex 36.66654749603356 -5.845236524939537 0
      vertex 36.733317163003335 -5.684040285646915 0
      vertex 36.66654749603356 -5.845236524939537 10
    endloop
  endfacet
  facet normal 0.9537169453986121 -0.3007058164710832 0
    outer loop
      vertex 36.733317163003335 -5.684040285646915 0
      vertex 36.78578357787217 -5.517638087272644 0
      vertex 36.733317163003335 -5.684040285646915 10
    endloop
  endfacet
  facet normal 0.9762960113487004 -0.21643959486336686 0
    outer loop
      vertex 36.78578357787217 -5.517638087272644 0
      vertex 36.82354742677296 -5.347296357154846 0
      vertex 36.78578357787217 -5.517638087272644 10
    endloop
  endfacet
  facet normal 0.9914448600888599 -0.13052620198021944 0
    outer loop
      vertex 36.82354742677296 -5.347296357154846 0
      vertex 36.846321318460355 -5.174311488866806 0
      vertex 36.82354742677296 -5.347296357154846 10
    endloop
  endfacet
  facet normal 0.9990482215310877 -0.04361938852815862 0
    outer loop
      vertex 36.846321318460355 -5.174311488866806 0
      vertex 36.85393192262734 -5 0
      vertex 36.846321318460355 -5.174311488866806 10
    endloop
  endfacet
  facet normal 0 0 -1
    outer loop
      vertex 30.884316418481717 -5.347296357154846 0
      vertex 30.861542526794324 -5.174311488866806 0
      vertex 36.85393192262734 5 0
    endloop
  endfacet
  facet normal 0 0 -1
    outer loop
      vertex 30.884316418481717 -5.347296357154846 0
      vertex 36.85393192262734 5 0
      vertex 36.85393192262734 -5 0
    endloop
  endfacet
  facet normal 0 0 -1
    outer loop
      vertex 30.861542526794324 -5.174311488866806 0
      vertex 30.85393192262734 -5 0
      vertex 36.846321318460355 5.174311488866806 0
    endloop
  endfacet
  facet normal 0 0 -1
    outer loop
      vertex 30.85393192262734 -5 0
      vertex 30.85393192262734 -3 0
      vertex 36.82354742677296 5.347296357154846 0
    endloop
  endfacet
  facet normal 1 0 0
    outer loop
      vertex 36.85393192262734 -5 0
      vertex 36.85393192262734 5 0
      vertex 36.85393192262734 -5 10
    endloop
  endfacet
  facet normal -0.6087614496139754 -0.7933533244802667 0
    outer loop
      vertex 31.70677905173386 -6.638304091989994 0
      vertex 31.70677905173386 -6.638304091989994 10
      vertex 31.568356704128632 -6.5320888832211494 10
    endloop
  endfacet
  facet normal -0.4617486194440415 -0.8870108299460169 0
    outer loop
      vertex 32.0086953976878 -6.8126155734062195 0
      vertex 32.0086953976878 -6.8126155734062195 10
      vertex 31.85393192262734 -6.732050806283951 10
    endloop
  endfacet
  facet normal -0.3826834247884422 -0.923879535649637 0
    outer loop
      vertex 32.169891636980424 -6.879385240375996 0
      vertex 32.169891636980424 -6.879385240375996 10
      vertex 32.0086953976878 -6.8126155734062195 10
    endloop
  endfacet
  facet normal -0.5372995938957164 -0.8433914550192565 0
    outer loop
      vertex 31.85393192262734 -6.732050806283951 0
      vertex 31.85393192262734 -6.732050806283951 10
      vertex 31.70677905173386 -6.638304091989994 10
    endloop
  endfacet
  facet normal -0.6755902067746475 -0.7372773375807703 0
    outer loop
      vertex 31.568356704128632 -6.5320888832211494 0
      vertex 31.568356704128632 -6.5320888832211494 10
      vertex 31.439718362105737 -6.414213560521603 10
    endloop
  endfacet
  facet normal -0.7372773375807703 -0.6755902067746475 0
    outer loop
      vertex 31.439718362105737 -6.414213560521603 0
      vertex 31.439718362105737 -6.414213560521603 10
      vertex 31.32184303940619 -6.285575218498707 10
    endloop
  endfacet
  facet normal -0.7933533244802667 -0.6087614496139754 0
    outer loop
      vertex 31.32184303940619 -6.285575218498707 0
      vertex 31.32184303940619 -6.285575218498707 10
      vertex 31.215627830637345 -6.147152870893478 10
    endloop
  endfacet
  facet normal -0.8870108299460169 -0.4617486194440415 0
    outer loop
      vertex 31.12188111634339 -6 0
      vertex 31.12188111634339 -6 10
      vertex 31.04131634922112 -5.845236524939537 10
    endloop
  endfacet
  facet normal -0.923879535649637 -0.3826834247884422 0
    outer loop
      vertex 31.04131634922112 -5.845236524939537 0
      vertex 31.04131634922112 -5.845236524939537 10
      vertex 30.974546682251344 -5.684040285646915 10
    endloop
  endfacet
  facet normal -0.9537169453986121 -0.3007058164710832 0
    outer loop
      vertex 30.974546682251344 -5.684040285646915 0
      vertex 30.974546682251344 -5.684040285646915 10
      vertex 30.922080267382512 -5.517638087272644 10
    endloop
  endfacet
  facet normal -0.9762960113487004 -0.21643959486336686 0
    outer loop
      vertex 30.922080267382512 -5.517638087272644 0
      vertex 30.922080267382512 -5.517638087272644 10
      vertex 30.884316418481717 -5.347296357154846 10
    endloop
  endfacet
  facet normal -0.9914448600888599 -0.13052620198021944 0
    outer loop
      vertex 30.884316418481717 -5.347296357154846 0
      vertex 30.884316418481717 -5.347296357154846 10
      vertex 30.861542526794324 -5.174311488866806 10
    endloop
  endfacet
  facet normal -0.8433914550192565 -0.5372995938957164 0
    outer loop
      vertex 31.215627830637345 -6.147152870893478 0
      vertex 31.215627830637345 -6.147152870893478 10
      vertex 31.12188111634339 -6 10
    endloop
  endfacet
  facet normal -1 0 0
    outer loop
      vertex 30.85393192262734 -5 0
      vertex 30.85393192262734 -5 10
      vertex 30.85393192262734 -3 5
    endloop
  endfacet
  facet normal -0.9990482215310877 -0.04361938852815862 0
    outer loop
      vertex 30.861542526794324 -5.174311488866806 0
      vertex 30.861542526794324 -5.174311488866806 10
      vertex 30.85393192262734 -5 10
    endloop
  endfacet
  facet normal -0.3007058164710832 -0.9537169453986121 0
    outer loop
      vertex 32.336293835354695 -6.931851655244827 0
      vertex 32.336293835354695 -6.931851655244827 10
      vertex 32.169891636980424 -6.879385240375996 10
    endloop
  endfacet
  facet normal -0.21643959486336686 -0.9762960113487004 0
    outer loop
      vertex 32.50663556547249 -6.969615504145622 0
      vertex 32.50663556547249 -6.969615504145622 10
      vertex 32.336293835354695 -6.931851655244827 10
    endloop
  endfacet
  facet normal -0.13052620198021944 -0.9914448600888599 0
    outer loop
      vertex 32.67962043376053 -6.992389395833015 0
      vertex 32.67962043376053 -6.992389395833015 10
      vertex 32.50663556547249 -6.969615504145622 10
    endloop
  endfacet
  facet normal -0.04361938852815862 -0.9990482215310877 0
    outer loop
      vertex 32.85393192262734 -7 0
      vertex 32.85393192262734 -7 10
      vertex 32.67962043376053 -6.992389395833015 10
    endloop
  endfacet
  facet normal 0 -1 0
    outer loop
      vertex 34.85393192262734 -7 0
      vertex 34.85393192262734 -7 10
      vertex 32.85393192262734 -7 10
    endloop
  endfacet
  facet normal 0.04361938852815862 -0.9990482215310877 0
    outer loop
      vertex 35.028243411494145 -6.992389395833015 0
      vertex 35.028243411494145 -6.992389395833015 10
      vertex 34.85393192262734 -7 10
    endloop
  endfacet
  facet normal 0.13052620198021944 -0.9914448600888599 0
    outer loop
      vertex 35.201228279782185 -6.969615504145622 0
      vertex 35.201228279782185 -6.969615504145622 10
      vertex 35.028243411494145 -6.992389395833015 10
    endloop
  endfacet
  facet normal 0.21643959486336686 -0.9762960113487004 0
    outer loop
      vertex 35.37157000989998 -6.931851655244827 0
      vertex 35.37157000989998 -6.931851655244827 10
      vertex 35.201228279782185 -6.969615504145622 10
    endloop
  endfacet
  facet normal 0.3007058164710832 -0.9537169453986121 0
    outer loop
      vertex 35.537972208274255 -6.879385240375996 0
      vertex 35.537972208274255 -6.879385240375996 10
      vertex 35.37157000989998 -6.931851655244827 10
    endloop
  endfacet
  facet normal 0.3826834247884422 -0.923879535649637 0
    outer loop
      vertex 35.699168447566876 -6.8126155734062195 0
      vertex 35.699168447566876 -6.8126155734062195 10
      vertex 35.537972208274255 -6.879385240375996 10
    endloop
  endfacet
  facet normal 0.4617486194440415 -0.8870108299460169 0
    outer loop
      vertex 35.85393192262734 -6.732050806283951 0
      vertex 35.85393192262734 -6.732050806283951 10
      vertex 35.699168447566876 -6.8126155734062195 10
    endloop
  endfacet
  facet normal 0.5372995938957164 -0.8433914550192565 0
    outer loop
      vertex 36.00108479352082 -6.638304091989994 0
      vertex 36.00108479352082 -6.638304091989994 10
      vertex 35.85393192262734 -6.732050806283951 10
    endloop
  endfacet
  facet normal 0.6087614496139754 -0.7933533244802667 0
    outer loop
      vertex 36.139507141126046 -6.5320888832211494 0
      vertex 36.139507141126046 -6.5320888832211494 10
      vertex 36.00108479352082 -6.638304091989994 10
    endloop
  endfacet
  facet normal 0.6755902067746475 -0.7372773375807703 0
    outer loop
      vertex 36.26814548314894 -6.414213560521603 0
      vertex 36.26814548314894 -6.414213560521603 10
      vertex 36.139507141126046 -6.5320888832211494 10
    endloop
  endfacet
  facet normal 0.7372773375807703 -0.6755902067746475 0
    outer loop
      vertex 36.38602080584849 -6.285575218498707 0
      vertex 36.38602080584849 -6.285575218498707 10
      vertex 36.26814548314894 -6.414213560521603 10
    endloop
  endfacet
  facet normal 0.7933533244802667 -0.6087614496139754 0
    outer loop
      vertex 36.49223601461733 -6.147152870893478 0
      vertex 36.49223601461733 -6.147152870893478 10
      vertex 36.38602080584849 -6.285575218498707 10
    endloop
  endfacet
  facet normal 0.8433914550192565 -0.5372995938957164 0
    outer loop
      vertex 36.58598272891129 -6 0
      vertex 36.58598272891129 -6 10
      vertex 36.49223601461733 -6.147152870893478 10
    endloop
  endfacet
  facet normal 0.8870108299460169 -0.4617486194440415 0
    outer loop
      vertex 36.66654749603356 -5.845236524939537 0
      vertex 36.66654749603356 -5.845236524939537 10
      vertex 36.58598272891129 -6 10
    endloop
  endfacet
  facet normal 0.923879535649637 -0.3826834247884422 0
    outer loop
      vertex 36.733317163003335 -5.684040285646915 0
      vertex 36.733317163003335 -5.684040285646915 10
      vertex 36.66654749603356 -5.845236524939537 10
    endloop
  endfacet
  facet normal 0.9537169453986121 -0.3007058164710832 0
    outer loop
      vertex 36.78578357787217 -5.517638087272644 0
      vertex 36.78578357787217 -5.517638087272644 10
      vertex 36.733317163003335 -5.684040285646915 10
    endloop
  endfacet
  facet normal 0.9762960113487004 -0.21643959486336686 0
    outer loop
      vertex 36.82354742677296 -5.347296357154846 0
      vertex 36.82354742677296 -5.347296357154846 10
      vertex 36.78578357787217 -5.517638087272644 10
    endloop
  endfacet
  facet normal 0.9914448600888599 -0.13052620198021944 0
    outer loop
      vertex 36.846321318460355 -5.174311488866806 0
      vertex 36.846321318460355 -5.174311488866806 10
      vertex 36.82354742677296 -5.347296357154846 10
    endloop
  endfacet
  facet normal 0.9990482215310877 -0.04361938852815862 0
    outer loop
      vertex 36.85393192262734 -5 0
      vertex 36.85393192262734 -5 10
      vertex 36.846321318460355 -5.174311488866806 10
    endloop
  endfacet
  facet normal 0 0 1
    outer loop
      vertex 32.0086953976878 -6.8126155734062195 10
      vertex 32.169891636980424 -6.879385240375996 10
      vertex 36.00108479352082 -6.638304091989994 10
    endloop
  endfacet
  facet normal 0 0 1
    outer loop
      vertex 32.0086953976878 -6.8126155734062195 10
      vertex 36.139507141126046 -6.5320888832211494 10
      vertex 31.85393192262734 -6.732050806283951 10
    endloop
  endfacet
  facet normal 0 0 1
    outer loop
      vertex 31.85393192262734 -6.732050806283951 10
      vertex 36.26814548314894 -6.414213560521603 10
      vertex 31.70677905173386 -6.638304091989994 10
    endloop
  endfacet
  facet normal 0 0 1
    outer loop
      vertex 31.70677905173386 -6.638304091989994 10
      vertex 36.38602080584849 -6.285575218498707 10
      vertex 31.568356704128632 -6.5320888832211494 10
    endloop
  endfacet
  facet normal 0 0 1
    outer loop
      vertex 31.568356704128632 -6.5320888832211494 10
      vertex 36.49223601461733 -6.147152870893478 10
      vertex 31.439718362105737 -6.414213560521603 10
    endloop
  endfacet
  facet normal 0 0 1
    outer loop
      vertex 31.439718362105737 -6.414213560521603 10
      vertex 36.58598272891129 -6 10
      vertex 31.32184303940619 -6.285575218498707 10
    endloop
  endfacet
  facet normal 0 0 1
    outer loop
      vertex 32.336293835354695 -6.931851655244827 10
      vertex 32.50663556547249 -6.969615504145622 10
      vertex 35.699168447566876 -6.8126155734062195 10
    endloop
  endfacet
  facet normal 0 0 1
    outer loop
      vertex 32.50663556547249 -6.969615504145622 10
      vertex 32.67962043376053 -6.992389395833015 10
      vertex 35.537972208274255 -6.879385240375996 10
    endloop
  endfacet
  facet normal 0 0 1
    outer loop
      vertex 32.67962043376053 -6.992389395833015 10
      vertex 32.85393192262734 -7 10
      vertex 35.37157000989998 -6.931851655244827 10
    endloop
  endfacet
  facet normal 0 0 1
    outer loop
      vertex 32.169891636980424 -6.879385240375996 10
      vertex 32.336293835354695 -6.931851655244827 10
      vertex 35.85393192262734 -6.732050806283951 10
    endloop
  endfacet
  facet normal 0 0 1
    outer loop
      vertex 32.85393192262734 -7 10
      vertex 34.85393192262734 -7 10
      vertex 35.201228279782185 -6.969615504145622 10
    endloop
  endfacet
  facet normal 0 0 1
    outer loop
      vertex 32.85393192262734 -7 10
      vertex 35.201228279782185 -6.969615504145622 10
      vertex 35.37157000989998 -6.931851655244827 10
    endloop
  endfacet
  facet normal 0 0 1
    outer loop
      vertex 32.67962043376053 -6.992389395833015 10
      vertex 35.37157000989998 -6.931851655244827 10
      vertex 35.537972208274255 -6.879385240375996 10
    endloop
  endfacet
  facet normal 0 0 1
    outer loop
      vertex 31.32184303940619 -6.285575218498707 10
      vertex 36.66654749603356 -5.845236524939537 10
      vertex 31.215627830637345 -6.147152870893478 10
    endloop
  endfacet
  facet normal 0 0 1
    outer loop
      vertex 31.215627830637345 -6.147152870893478 10
      vertex 36.733317163003335 -5.684040285646915 10
      vertex 31.12188111634339 -6 10
    endloop
  endfacet
  facet normal 0 0 1
    outer loop
      vertex 31.04131634922112 -5.845236524939537 10
      vertex 31.12188111634339 -6 10
      vertex 36.78578357787217 -5.517638087272644 10
    endloop
  endfacet
  facet normal 0 0 1
    outer loop
      vertex 31.04131634922112 -5.845236524939537 10
      vertex 36.82354742677296 -5.347296357154846 10
      vertex 30.974546682251344 -5.684040285646915 10
    endloop
  endfacet
  facet normal 0 0 1
    outer loop
      vertex 30.974546682251344 -5.684040285646915 10
      vertex 36.846321318460355 -5.174311488866806 10
      vertex 30.922080267382512 -5.517638087272644 10
    endloop
  endfacet
  facet normal 0 0 1
    outer loop
      vertex 30.922080267382512 -5.517638087272644 10
      vertex 36.85393192262734 -5 10
      vertex 30.884316418481717 -5.347296357154846 10
    endloop
  endfacet
  facet normal 0 0 1
    outer loop
      vertex 32.50663556547249 -6.969615504145622 10
      vertex 35.537972208274255 -6.879385240375996 10
      vertex 35.699168447566876 -6.8126155734062195 10
    endloop
  endfacet
  facet normal 0 0 1
    outer loop
      vertex 32.336293835354695 -6.931851655244827 10
      vertex 35.699168447566876 -6.8126155734062195 10
      vertex 35.85393192262734 -6.732050806283951 10
    endloop
  endfacet
  facet normal 0 0 1
    outer loop
      vertex 34.85393192262734 -7 10
      vertex 35.028243411494145 -6.992389395833015 10
      vertex 35.201228279782185 -6.969615504145622 10
    endloop
  endfacet
  facet normal 0 0 1
    outer loop
      vertex 32.169891636980424 -6.879385240375996 10
      vertex 35.85393192262734 -6.732050806283951 10
      vertex 36.00108479352082 -6.638304091989994 10
    endloop
  endfacet
  facet normal 0 0 1
    outer loop
      vertex 32.0086953976878 -6.8126155734062195 10
      vertex 36.00108479352082 -6.638304091989994 10
      vertex 36.139507141126046 -6.5320888832211494 10
    endloop
  endfacet
  facet normal 0 0 1
    outer loop
      vertex 31.85393192262734 -6.732050806283951 10
      vertex 36.139507141126046 -6.5320888832211494 10
      vertex 36.26814548314894 -6.414213560521603 10
    endloop
  endfacet
  facet normal 0 0 1
    outer loop
      vertex 31.70677905173386 -6.638304091989994 10
      vertex 36.26814548314894 -6.414213560521603 10
      vertex 36.38602080584849 -6.285575218498707 10
    endloop
  endfacet
  facet normal 0 0 1
    outer loop
      vertex 31.568356704128632 -6.5320888832211494 10
      vertex 36.38602080584849 -6.285575218498707 10
      vertex 36.49223601461733 -6.147152870893478 10
    endloop
  endfacet
  facet normal 0 0 1
    outer loop
      vertex 31.439718362105737 -6.414213560521603 10
      vertex 36.49223601461733 -6.147152870893478 10
      vertex 36.58598272891129 -6 10
    endloop
  endfacet
  facet normal 0 0 1
    outer loop
      vertex 31.32184303940619 -6.285575218498707 10
      vertex 36.58598272891129 -6 10
      vertex 36.66654749603356 -5.845236524939537 10
    endloop
  endfacet
  facet normal 0 0 1
    outer loop
      vertex 31.215627830637345 -6.147152870893478 10
      vertex 36.66654749603356 -5.845236524939537 10
      vertex 36.733317163003335 -5.684040285646915 10
    endloop
  endfacet
  facet normal 0 0 1
    outer loop
      vertex 31.12188111634339 -6 10
      vertex 36.733317163003335 -5.684040285646915 10
      vertex 36.78578357787217 -5.517638087272644 10
    endloop
  endfacet
  facet normal 0 0 1
    outer loop
      vertex 31.04131634922112 -5.845236524939537 10
      vertex 36.78578357787217 -5.517638087272644 10
      vertex 36.82354742677296 -5.347296357154846 10
    endloop
  endfacet
  facet normal 0 0 1
    outer loop
      vertex 30.974546682251344 -5.684040285646915 10
      vertex 36.82354742677296 -5.347296357154846 10
      vertex 36.846321318460355 -5.174311488866806 10
    endloop
  endfacet
  facet normal 0 0 1
    outer loop
      vertex 30.922080267382512 -5.517638087272644 10
      vertex 36.846321318460355 -5.174311488866806 10
      vertex 36.85393192262734 -5 10
    endloop
  endfacet
  facet normal -1 0 0
    outer loop
      vertex 30.85393192262734 -5 10
      vertex 30.85393192262734 3 5
      vertex 30.85393192262734 -3 5
    endloop
  endfacet
  facet normal 0 0 1
    outer loop
      vertex 30.884316418481717 -5.347296357154846 10
      vertex 36.85393192262734 5 10
      vertex 30.861542526794324 -5.174311488866806 10
    endloop
  endfacet
  facet normal 0 0 1
    outer loop
      vertex 30.884316418481717 -5.347296357154846 10
      vertex 36.85393192262734 -5 10
      vertex 36.85393192262734 5 10
    endloop
  endfacet
  facet normal 0 0 1
    outer loop
      vertex 30.861542526794324 -5.174311488866806 10
      vertex 36.846321318460355 5.174311488866806 10
      vertex 30.85393192262734 -5 10
    endloop
  endfacet
  facet normal 0 0 -1
    outer loop
      vertex 30.861542526794324 -5.174311488866806 0
      vertex 36.846321318460355 5.174311488866806 0
      vertex 36.85393192262734 5 0
    endloop
  endfacet
  facet normal 0 0 -1
    outer loop
      vertex 30.85393192262734 -3 0
      vertex 30.85393192262734 2.997906776745451 0
      vertex 36.82354742677296 5.347296357154846 0
    endloop
  endfacet
  facet normal 0 0 -1
    outer loop
      vertex 30.85393192262734 -5 0
      vertex 36.82354742677296 5.347296357154846 0
      vertex 36.846321318460355 5.174311488866806 0
    endloop
  endfacet
  facet normal 0 0 -1
    outer loop
      vertex 30.85393192262734 3 0
      vertex 36.82354742677296 5.347296357154846 0
      vertex 30.85393192262734 2.997906776745451 0
    endloop
  endfacet
  facet normal 0 0 -1
    outer loop
      vertex 30.85393192262734 3 0
      vertex 30.85393192262734 5 0
      vertex 36.82354742677296 5.347296357154846 0
    endloop
  endfacet
  facet normal 0 0 -1
    outer loop
      vertex 30.85393192262734 5 0
      vertex 30.861542526794324 5.174311488866806 0
      vertex 36.78578357787217 5.517638087272644 0
    endloop
  endfacet
  facet normal 0 0 -1
    outer loop
      vertex 30.861542526794324 5.174311488866806 0
      vertex 30.884316418481717 5.347296357154846 0
      vertex 36.733317163003335 5.684040285646915 0
    endloop
  endfacet
  facet normal 0 0 -1
    outer loop
      vertex 30.884316418481717 5.347296357154846 0
      vertex 30.922080267382512 5.517638087272644 0
      vertex 36.66654749603356 5.845236524939537 0
    endloop
  endfacet
  facet normal 0 0 -1
    outer loop
      vertex 30.922080267382512 5.517638087272644 0
      vertex 30.974546682251344 5.684040285646915 0
      vertex 36.58598272891129 6 0
    endloop
  endfacet
  facet normal 0 0 -1
    outer loop
      vertex 30.974546682251344 5.684040285646915 0
      vertex 31.04131634922112 5.845236524939537 0
      vertex 36.49223601461733 6.147152870893478 0
    endloop
  endfacet
  facet normal 0 0 -1
    outer loop
      vertex 31.04131634922112 5.845236524939537 0
      vertex 31.12188111634339 6 0
      vertex 36.38602080584849 6.285575218498707 0
    endloop
  endfacet
  facet normal 0 0 -1
    outer loop
      vertex 31.12188111634339 6 0
      vertex 31.215627830637345 6.147152870893478 0
      vertex 36.26814548314894 6.414213560521603 0
    endloop
  endfacet
  facet normal 0 0 -1
    outer loop
      vertex 31.215627830637345 6.147152870893478 0
      vertex 31.32184303940619 6.285575218498707 0
      vertex 36.139507141126046 6.5320888832211494 0
    endloop
  endfacet
  facet normal 0 0 -1
    outer loop
      vertex 31.32184303940619 6.285575218498707 0
      vertex 31.439718362105737 6.414213560521603 0
      vertex 36.00108479352082 6.638304091989994 0
    endloop
  endfacet
  facet normal 0 0 -1
    outer loop
      vertex 31.439718362105737 6.414213560521603 0
      vertex 31.568356704128632 6.5320888832211494 0
      vertex 35.85393192262734 6.732050806283951 0
    endloop
  endfacet
  facet normal 0 0 -1
    outer loop
      vertex 32.50663556547249 6.969615504145622 0
      vertex 32.67962043376053 6.992389395833015 0
      vertex 32.85393192262734 7 0
    endloop
  endfacet
  facet normal 0 0 -1
    outer loop
      vertex 31.568356704128632 6.5320888832211494 0
      vertex 31.70677905173386 6.638304091989994 0
      vertex 35.699168447566876 6.8126155734062195 0
    endloop
  endfacet
  facet normal 0 0 -1
    outer loop
      vertex 31.70677905173386 6.638304091989994 0
      vertex 31.85393192262734 6.732050806283951 0
      vertex 35.537972208274255 6.879385240375996 0
    endloop
  endfacet
  facet normal 0 0 -1
    outer loop
      vertex 31.85393192262734 6.732050806283951 0
      vertex 32.0086953976878 6.8126155734062195 0
      vertex 35.37157000989998 6.931851655244827 0
    endloop
  endfacet
  facet normal 0 0 -1
    outer loop
      vertex 32.0086953976878 6.8126155734062195 0
      vertex 32.169891636980424 6.879385240375996 0
      vertex 35.201228279782185 6.969615504145622 0
    endloop
  endfacet
  facet normal 0 0 -1
    outer loop
      vertex 32.169891636980424 6.879385240375996 0
      vertex 32.336293835354695 6.931851655244827 0
      vertex 35.028243411494145 6.992389395833015 0
    endloop
  endfacet
  facet normal 0 0 -1
    outer loop
      vertex 32.336293835354695 6.931851655244827 0
      vertex 32.50663556547249 6.969615504145622 0
      vertex 34.85393192262734 7 0
    endloop
  endfacet
  facet normal 0 0 -1
    outer loop
      vertex 31.215627830637345 6.147152870893478 0
      vertex 36.139507141126046 6.5320888832211494 0
      vertex 36.26814548314894 6.414213560521603 0
    endloop
  endfacet
  facet normal 0 0 -1
    outer loop
      vertex 31.32184303940619 6.285575218498707 0
      vertex 36.00108479352082 6.638304091989994 0
      vertex 36.139507141126046 6.5320888832211494 0
    endloop
  endfacet
  facet normal 0 0 -1
    outer loop
      vertex 32.50663556547249 6.969615504145622 0
      vertex 32.85393192262734 7 0
      vertex 34.85393192262734 7 0
    endloop
  endfacet
  facet normal 0 0 -1
    outer loop
      vertex 31.439718362105737 6.414213560521603 0
      vertex 35.85393192262734 6.732050806283951 0
      vertex 36.00108479352082 6.638304091989994 0
    endloop
  endfacet
  facet normal 0 0 -1
    outer loop
      vertex 31.568356704128632 6.5320888832211494 0
      vertex 35.699168447566876 6.8126155734062195 0
      vertex 35.85393192262734 6.732050806283951 0
    endloop
  endfacet
  facet normal 0 0 -1
    outer loop
      vertex 31.70677905173386 6.638304091989994 0
      vertex 35.537972208274255 6.879385240375996 0
      vertex 35.699168447566876 6.8126155734062195 0
    endloop
  endfacet
  facet normal 0 0 -1
    outer loop
      vertex 31.85393192262734 6.732050806283951 0
      vertex 35.37157000989998 6.931851655244827 0
      vertex 35.537972208274255 6.879385240375996 0
    endloop
  endfacet
  facet normal 0 0 -1
    outer loop
      vertex 32.336293835354695 6.931851655244827 0
      vertex 34.85393192262734 7 0
      vertex 35.028243411494145 6.992389395833015 0
    endloop
  endfacet
  facet normal 0 0 -1
    outer loop
      vertex 32.0086953976878 6.8126155734062195 0
      vertex 35.201228279782185 6.969615504145622 0
      vertex 35.37157000989998 6.931851655244827 0
    endloop
  endfacet
  facet normal 0 0 -1
    outer loop
      vertex 32.169891636980424 6.879385240375996 0
      vertex 35.028243411494145 6.992389395833015 0
      vertex 35.201228279782185 6.969615504145622 0
    endloop
  endfacet
  facet normal 0 0 -1
    outer loop
      vertex 30.85393192262734 5 0
      vertex 36.78578357787217 5.517638087272644 0
      vertex 36.82354742677296 5.347296357154846 0
    endloop
  endfacet
  facet normal 0 0 -1
    outer loop
      vertex 30.861542526794324 5.174311488866806 0
      vertex 36.733317163003335 5.684040285646915 0
      vertex 36.78578357787217 5.517638087272644 0
    endloop
  endfacet
  facet normal 0 0 -1
    outer loop
      vertex 30.884316418481717 5.347296357154846 0
      vertex 36.66654749603356 5.845236524939537 0
      vertex 36.733317163003335 5.684040285646915 0
    endloop
  endfacet
  facet normal 0 0 -1
    outer loop
      vertex 30.922080267382512 5.517638087272644 0
      vertex 36.58598272891129 6 0
      vertex 36.66654749603356 5.845236524939537 0
    endloop
  endfacet
  facet normal 0 0 -1
    outer loop
      vertex 30.974546682251344 5.684040285646915 0
      vertex 36.49223601461733 6.147152870893478 0
      vertex 36.58598272891129 6 0
    endloop
  endfacet
  facet normal 0 0 -1
    outer loop
      vertex 31.04131634922112 5.845236524939537 0
      vertex 36.38602080584849 6.285575218498707 0
      vertex 36.49223601461733 6.147152870893478 0
    endloop
  endfacet
  facet normal 0 0 -1
    outer loop
      vertex 31.12188111634339 6 0
      vertex 36.26814548314894 6.414213560521603 0
      vertex 36.38602080584849 6.285575218498707 0
    endloop
  endfacet
  facet normal -1 0 0
    outer loop
      vertex 30.85393192262734 3 0
      vertex 30.85393192262734 5 10
      vertex 30.85393192262734 5 0
    endloop
  endfacet
  facet normal -0.9990482215310877 0.04361938852815862 0
    outer loop
      vertex 30.85393192262734 5 0
      vertex 30.861542526794324 5.174311488866806 10
      vertex 30.861542526794324 5.174311488866806 0
    endloop
  endfacet
  facet normal -0.9914448600888599 0.13052620198021944 0
    outer loop
      vertex 30.861542526794324 5.174311488866806 0
      vertex 30.884316418481717 5.347296357154846 10
      vertex 30.884316418481717 5.347296357154846 0
    endloop
  endfacet
  facet normal -0.9762960113487004 0.21643959486336686 0
    outer loop
      vertex 30.884316418481717 5.347296357154846 0
      vertex 30.922080267382512 5.517638087272644 10
      vertex 30.922080267382512 5.517638087272644 0
    endloop
  endfacet
  facet normal -0.9537169453986121 0.3007058164710832 0
    outer loop
      vertex 30.922080267382512 5.517638087272644 0
      vertex 30.974546682251344 5.684040285646915 10
      vertex 30.974546682251344 5.684040285646915 0
    endloop
  endfacet
  facet normal -0.923879535649637 0.3826834247884422 0
    outer loop
      vertex 30.974546682251344 5.684040285646915 0
      vertex 31.04131634922112 5.845236524939537 10
      vertex 31.04131634922112 5.845236524939537 0
    endloop
  endfacet
  facet normal -0.8870108299460169 0.4617486194440415 0
    outer loop
      vertex 31.04131634922112 5.845236524939537 0
      vertex 31.12188111634339 6 10
      vertex 31.12188111634339 6 0
    endloop
  endfacet
  facet normal -0.8433914550192565 0.5372995938957164 0
    outer loop
      vertex 31.12188111634339 6 0
      vertex 31.215627830637345 6.147152870893478 10
      vertex 31.215627830637345 6.147152870893478 0
    endloop
  endfacet
  facet normal -0.7933533244802667 0.6087614496139754 0
    outer loop
      vertex 31.215627830637345 6.147152870893478 0
      vertex 31.32184303940619 6.285575218498707 10
      vertex 31.32184303940619 6.285575218498707 0
    endloop
  endfacet
  facet normal -0.7372773375807703 0.6755902067746475 0
    outer loop
      vertex 31.32184303940619 6.285575218498707 0
      vertex 31.439718362105737 6.414213560521603 10
      vertex 31.439718362105737 6.414213560521603 0
    endloop
  endfacet
  facet normal -0.6755902067746475 0.7372773375807703 0
    outer loop
      vertex 31.439718362105737 6.414213560521603 0
      vertex 31.568356704128632 6.5320888832211494 10
      vertex 31.568356704128632 6.5320888832211494 0
    endloop
  endfacet
  facet normal -0.6087614496139754 0.7933533244802667 0
    outer loop
      vertex 31.568356704128632 6.5320888832211494 0
      vertex 31.70677905173386 6.638304091989994 10
      vertex 31.70677905173386 6.638304091989994 0
    endloop
  endfacet
  facet normal -0.5372995938957164 0.8433914550192565 0
    outer loop
      vertex 31.70677905173386 6.638304091989994 0
      vertex 31.85393192262734 6.732050806283951 10
      vertex 31.85393192262734 6.732050806283951 0
    endloop
  endfacet
  facet normal -0.4617486194440415 0.8870108299460169 0
    outer loop
      vertex 31.85393192262734 6.732050806283951 0
      vertex 32.0086953976878 6.8126155734062195 10
      vertex 32.0086953976878 6.8126155734062195 0
    endloop
  endfacet
  facet normal -0.3826834247884422 0.923879535649637 0
    outer loop
      vertex 32.0086953976878 6.8126155734062195 0
      vertex 32.169891636980424 6.879385240375996 10
      vertex 32.169891636980424 6.879385240375996 0
    endloop
  endfacet
  facet normal 0.9990482215310877 0.04361938852815862 0
    outer loop
      vertex 36.85393192262734 5 0
      vertex 36.846321318460355 5.174311488866806 0
      vertex 36.85393192262734 5 10
    endloop
  endfacet
  facet normal 0.9914448600888599 0.13052620198021944 0
    outer loop
      vertex 36.846321318460355 5.174311488866806 0
      vertex 36.82354742677296 5.347296357154846 0
      vertex 36.846321318460355 5.174311488866806 10
    endloop
  endfacet
  facet normal -0.3007058164710832 0.9537169453986121 0
    outer loop
      vertex 32.169891636980424 6.879385240375996 0
      vertex 32.336293835354695 6.931851655244827 10
      vertex 32.336293835354695 6.931851655244827 0
    endloop
  endfacet
  facet normal -0.21643959486336686 0.9762960113487004 0
    outer loop
      vertex 32.336293835354695 6.931851655244827 0
      vertex 32.50663556547249 6.969615504145622 10
      vertex 32.50663556547249 6.969615504145622 0
    endloop
  endfacet
  facet normal -0.13052620198021944 0.9914448600888599 0
    outer loop
      vertex 32.50663556547249 6.969615504145622 0
      vertex 32.67962043376053 6.992389395833015 10
      vertex 32.67962043376053 6.992389395833015 0
    endloop
  endfacet
  facet normal -0.04361938852815862 0.9990482215310877 0
    outer loop
      vertex 32.67962043376053 6.992389395833015 0
      vertex 32.85393192262734 7 10
      vertex 32.85393192262734 7 0
    endloop
  endfacet
  facet normal 0 1 0
    outer loop
      vertex 32.85393192262734 7 0
      vertex 34.85393192262734 7 10
      vertex 34.85393192262734 7 0
    endloop
  endfacet
  facet normal 0.9762960113487004 0.21643959486336686 0
    outer loop
      vertex 36.82354742677296 5.347296357154846 0
      vertex 36.78578357787217 5.517638087272644 0
      vertex 36.82354742677296 5.347296357154846 10
    endloop
  endfacet
  facet normal 0.9537169453986121 0.3007058164710832 0
    outer loop
      vertex 36.78578357787217 5.517638087272644 0
      vertex 36.733317163003335 5.684040285646915 0
      vertex 36.78578357787217 5.517638087272644 10
    endloop
  endfacet
  facet normal 0.923879535649637 0.3826834247884422 0
    outer loop
      vertex 36.733317163003335 5.684040285646915 0
      vertex 36.66654749603356 5.845236524939537 0
      vertex 36.733317163003335 5.684040285646915 10
    endloop
  endfacet
  facet normal 0.8870108299460169 0.4617486194440415 0
    outer loop
      vertex 36.66654749603356 5.845236524939537 0
      vertex 36.58598272891129 6 0
      vertex 36.66654749603356 5.845236524939537 10
    endloop
  endfacet
  facet normal 0.8433914550192565 0.5372995938957164 0
    outer loop
      vertex 36.58598272891129 6 0
      vertex 36.49223601461733 6.147152870893478 0
      vertex 36.58598272891129 6 10
    endloop
  endfacet
  facet normal 0.04361938852815862 0.9990482215310877 0
    outer loop
      vertex 34.85393192262734 7 0
      vertex 35.028243411494145 6.992389395833015 10
      vertex 35.028243411494145 6.992389395833015 0
    endloop
  endfacet
  facet normal 0.13052620198021944 0.9914448600888599 0
    outer loop
      vertex 35.028243411494145 6.992389395833015 0
      vertex 35.201228279782185 6.969615504145622 10
      vertex 35.201228279782185 6.969615504145622 0
    endloop
  endfacet
  facet normal 0.21643959486336686 0.9762960113487004 0
    outer loop
      vertex 35.201228279782185 6.969615504145622 0
      vertex 35.37157000989998 6.931851655244827 10
      vertex 35.37157000989998 6.931851655244827 0
    endloop
  endfacet
  facet normal 0.3826834247884422 0.923879535649637 0
    outer loop
      vertex 35.537972208274255 6.879385240375996 0
      vertex 35.699168447566876 6.8126155734062195 10
      vertex 35.699168447566876 6.8126155734062195 0
    endloop
  endfacet
  facet normal 0.3007058164710832 0.9537169453986121 0
    outer loop
      vertex 35.37157000989998 6.931851655244827 0
      vertex 35.537972208274255 6.879385240375996 10
      vertex 35.537972208274255 6.879385240375996 0
    endloop
  endfacet
  facet normal 0.6755902067746475 0.7372773375807703 0
    outer loop
      vertex 36.26814548314894 6.414213560521603 0
      vertex 36.139507141126046 6.5320888832211494 0
      vertex 36.26814548314894 6.414213560521603 10
    endloop
  endfacet
  facet normal 0.7933533244802667 0.6087614496139754 0
    outer loop
      vertex 36.49223601461733 6.147152870893478 0
      vertex 36.38602080584849 6.285575218498707 0
      vertex 36.49223601461733 6.147152870893478 10
    endloop
  endfacet
  facet normal 0.7372773375807703 0.6755902067746475 0
    outer loop
      vertex 36.26814548314894 6.414213560521603 0
      vertex 36.38602080584849 6.285575218498707 10
      vertex 36.38602080584849 6.285575218498707 0
    endloop
  endfacet
  facet normal 0.5372995938957164 0.8433914550192565 0
    outer loop
      vertex 35.85393192262734 6.732050806283951 0
      vertex 36.00108479352082 6.638304091989994 10
      vertex 36.00108479352082 6.638304091989994 0
    endloop
  endfacet
  facet normal 0.4617486194440415 0.8870108299460169 0
    outer loop
      vertex 35.699168447566876 6.8126155734062195 0
      vertex 35.85393192262734 6.732050806283951 10
      vertex 35.85393192262734 6.732050806283951 0
    endloop
  endfacet
  facet normal 0.6087614496139754 0.7933533244802667 0
    outer loop
      vertex 36.139507141126046 6.5320888832211494 0
      vertex 36.00108479352082 6.638304091989994 0
      vertex 36.139507141126046 6.5320888832211494 10
    endloop
  endfacet
  facet normal 1 0 0
    outer loop
      vertex 36.85393192262734 -5 10
      vertex 36.85393192262734 5 0
      vertex 36.85393192262734 5 10
    endloop
  endfacet
  facet normal -1 0 0
    outer loop
      vertex 30.85393192262734 -5 10
      vertex 30.85393192262734 5 10
      vertex 30.85393192262734 3 5
    endloop
  endfacet
  facet normal 0 0 1
    outer loop
      vertex 30.861542526794324 -5.174311488866806 10
      vertex 36.85393192262734 5 10
      vertex 36.846321318460355 5.174311488866806 10
    endloop
  endfacet
  facet normal 0 0 1
    outer loop
      vertex 30.85393192262734 -5 10
      vertex 36.82354742677296 5.347296357154846 10
      vertex 30.85393192262734 5 10
    endloop
  endfacet
  facet normal 0 0 1
    outer loop
      vertex 30.85393192262734 -5 10
      vertex 36.846321318460355 5.174311488866806 10
      vertex 36.82354742677296 5.347296357154846 10
    endloop
  endfacet
  facet normal -1 0 0
    outer loop
      vertex 30.85393192262734 3 0
      vertex 30.85393192262734 3 5
      vertex 30.85393192262734 5 10
    endloop
  endfacet
  facet normal -0.9990482215310877 0.04361938852815862 0
    outer loop
      vertex 30.85393192262734 5 0
      vertex 30.85393192262734 5 10
      vertex 30.861542526794324 5.174311488866806 10
    endloop
  endfacet
  facet normal -0.9914448600888599 0.13052620198021944 0
    outer loop
      vertex 30.861542526794324 5.174311488866806 0
      vertex 30.861542526794324 5.174311488866806 10
      vertex 30.884316418481717 5.347296357154846 10
    endloop
  endfacet
  facet normal -0.9762960113487004 0.21643959486336686 0
    outer loop
      vertex 30.884316418481717 5.347296357154846 0
      vertex 30.884316418481717 5.347296357154846 10
      vertex 30.922080267382512 5.517638087272644 10
    endloop
  endfacet
  facet normal -0.9537169453986121 0.3007058164710832 0
    outer loop
      vertex 30.922080267382512 5.517638087272644 0
      vertex 30.922080267382512 5.517638087272644 10
      vertex 30.974546682251344 5.684040285646915 10
    endloop
  endfacet
  facet normal -0.923879535649637 0.3826834247884422 0
    outer loop
      vertex 30.974546682251344 5.684040285646915 0
      vertex 30.974546682251344 5.684040285646915 10
      vertex 31.04131634922112 5.845236524939537 10
    endloop
  endfacet
  facet normal -0.8870108299460169 0.4617486194440415 0
    outer loop
      vertex 31.04131634922112 5.845236524939537 0
      vertex 31.04131634922112 5.845236524939537 10
      vertex 31.12188111634339 6 10
    endloop
  endfacet
  facet normal -0.8433914550192565 0.5372995938957164 0
    outer loop
      vertex 31.12188111634339 6 0
      vertex 31.12188111634339 6 10
      vertex 31.215627830637345 6.147152870893478 10
    endloop
  endfacet
  facet normal -0.7933533244802667 0.6087614496139754 0
    outer loop
      vertex 31.215627830637345 6.147152870893478 0
      vertex 31.215627830637345 6.147152870893478 10
      vertex 31.32184303940619 6.285575218498707 10
    endloop
  endfacet
  facet normal -0.7372773375807703 0.6755902067746475 0
    outer loop
      vertex 31.32184303940619 6.285575218498707 0
      vertex 31.32184303940619 6.285575218498707 10
      vertex 31.439718362105737 6.414213560521603 10
    endloop
  endfacet
  facet normal -0.6755902067746475 0.7372773375807703 0
    outer loop
      vertex 31.439718362105737 6.414213560521603 0
      vertex 31.439718362105737 6.414213560521603 10
      vertex 31.568356704128632 6.5320888832211494 10
    endloop
  endfacet
  facet normal -0.6087614496139754 0.7933533244802667 0
    outer loop
      vertex 31.568356704128632 6.5320888832211494 0
      vertex 31.568356704128632 6.5320888832211494 10
      vertex 31.70677905173386 6.638304091989994 10
    endloop
  endfacet
  facet normal -0.5372995938957164 0.8433914550192565 0
    outer loop
      vertex 31.70677905173386 6.638304091989994 0
      vertex 31.70677905173386 6.638304091989994 10
      vertex 31.85393192262734 6.732050806283951 10
    endloop
  endfacet
  facet normal -0.4617486194440415 0.8870108299460169 0
    outer loop
      vertex 31.85393192262734 6.732050806283951 0
      vertex 31.85393192262734 6.732050806283951 10
      vertex 32.0086953976878 6.8126155734062195 10
    endloop
  endfacet
  facet normal -0.3826834247884422 0.923879535649637 0
    outer loop
      vertex 32.0086953976878 6.8126155734062195 0
      vertex 32.0086953976878 6.8126155734062195 10
      vertex 32.169891636980424 6.879385240375996 10
    endloop
  endfacet
  facet normal -0.3007058164710832 0.9537169453986121 0
    outer loop
      vertex 32.169891636980424 6.879385240375996 0
      vertex 32.169891636980424 6.879385240375996 10
      vertex 32.336293835354695 6.931851655244827 10
    endloop
  endfacet
  facet normal 0.9990482215310877 0.04361938852815862 0
    outer loop
      vertex 36.846321318460355 5.174311488866806 0
      vertex 36.846321318460355 5.174311488866806 10
      vertex 36.85393192262734 5 10
    endloop
  endfacet
  facet normal -0.21643959486336686 0.9762960113487004 0
    outer loop
      vertex 32.336293835354695 6.931851655244827 0
      vertex 32.336293835354695 6.931851655244827 10
      vertex 32.50663556547249 6.969615504145622 10
    endloop
  endfacet
  facet normal -0.13052620198021944 0.9914448600888599 0
    outer loop
      vertex 32.50663556547249 6.969615504145622 0
      vertex 32.50663556547249 6.969615504145622 10
      vertex 32.67962043376053 6.992389395833015 10
    endloop
  endfacet
  facet normal -0.04361938852815862 0.9990482215310877 0
    outer loop
      vertex 32.67962043376053 6.992389395833015 0
      vertex 32.67962043376053 6.992389395833015 10
      vertex 32.85393192262734 7 10
    endloop
  endfacet
  facet normal 0 1 0
    outer loop
      vertex 32.85393192262734 7 0
      vertex 32.85393192262734 7 10
      vertex 34.85393192262734 7 10
    endloop
  endfacet
  facet normal 0.9914448600888599 0.13052620198021944 0
    outer loop
      vertex 36.82354742677296 5.347296357154846 0
      vertex 36.82354742677296 5.347296357154846 10
      vertex 36.846321318460355 5.174311488866806 10
    endloop
  endfacet
  facet normal 0.9762960113487004 0.21643959486336686 0
    outer loop
      vertex 36.78578357787217 5.517638087272644 0
      vertex 36.78578357787217 5.517638087272644 10
      vertex 36.82354742677296 5.347296357154846 10
    endloop
  endfacet
  facet normal 0.9537169453986121 0.3007058164710832 0
    outer loop
      vertex 36.733317163003335 5.684040285646915 0
      vertex 36.733317163003335 5.684040285646915 10
      vertex 36.78578357787217 5.517638087272644 10
    endloop
  endfacet
  facet normal 0.923879535649637 0.3826834247884422 0
    outer loop
      vertex 36.66654749603356 5.845236524939537 0
      vertex 36.66654749603356 5.845236524939537 10
      vertex 36.733317163003335 5.684040285646915 10
    endloop
  endfacet
  facet normal 0.8433914550192565 0.5372995938957164 0
    outer loop
      vertex 36.49223601461733 6.147152870893478 0
      vertex 36.49223601461733 6.147152870893478 10
      vertex 36.58598272891129 6 10
    endloop
  endfacet
  facet normal 0.8870108299460169 0.4617486194440415 0
    outer loop
      vertex 36.58598272891129 6 0
      vertex 36.58598272891129 6 10
      vertex 36.66654749603356 5.845236524939537 10
    endloop
  endfacet
  facet normal 0.04361938852815862 0.9990482215310877 0
    outer loop
      vertex 34.85393192262734 7 0
      vertex 34.85393192262734 7 10
      vertex 35.028243411494145 6.992389395833015 10
    endloop
  endfacet
  facet normal 0.13052620198021944 0.9914448600888599 0
    outer loop
      vertex 35.028243411494145 6.992389395833015 0
      vertex 35.028243411494145 6.992389395833015 10
      vertex 35.201228279782185 6.969615504145622 10
    endloop
  endfacet
  facet normal 0.21643959486336686 0.9762960113487004 0
    outer loop
      vertex 35.201228279782185 6.969615504145622 0
      vertex 35.201228279782185 6.969615504145622 10
      vertex 35.37157000989998 6.931851655244827 10
    endloop
  endfacet
  facet normal 0.3826834247884422 0.923879535649637 0
    outer loop
      vertex 35.537972208274255 6.879385240375996 0
      vertex 35.537972208274255 6.879385240375996 10
      vertex 35.699168447566876 6.8126155734062195 10
    endloop
  endfacet
  facet normal 0.3007058164710832 0.9537169453986121 0
    outer loop
      vertex 35.37157000989998 6.931851655244827 0
      vertex 35.37157000989998 6.931851655244827 10
      vertex 35.537972208274255 6.879385240375996 10
    endloop
  endfacet
  facet normal 0.6755902067746475 0.7372773375807703 0
    outer loop
      vertex 36.139507141126046 6.5320888832211494 0
      vertex 36.139507141126046 6.5320888832211494 10
      vertex 36.26814548314894 6.414213560521603 10
    endloop
  endfacet
  facet normal 0.7933533244802667 0.6087614496139754 0
    outer loop
      vertex 36.38602080584849 6.285575218498707 0
      vertex 36.38602080584849 6.285575218498707 10
      vertex 36.49223601461733 6.147152870893478 10
    endloop
  endfacet
  facet normal 0.7372773375807703 0.6755902067746475 0
    outer loop
      vertex 36.26814548314894 6.414213560521603 0
      vertex 36.26814548314894 6.414213560521603 10
      vertex 36.38602080584849 6.285575218498707 10
    endloop
  endfacet
  facet normal 0.5372995938957164 0.8433914550192565 0
    outer loop
      vertex 35.85393192262734 6.732050806283951 0
      vertex 35.85393192262734 6.732050806283951 10
      vertex 36.00108479352082 6.638304091989994 10
    endloop
  endfacet
  facet normal 0.6087614496139754 0.7933533244802667 0
    outer loop
      vertex 36.00108479352082 6.638304091989994 0
      vertex 36.00108479352082 6.638304091989994 10
      vertex 36.139507141126046 6.5320888832211494 10
    endloop
  endfacet
  facet normal 0.4617486194440415 0.8870108299460169 0
    outer loop
      vertex 35.699168447566876 6.8126155734062195 0
      vertex 35.699168447566876 6.8126155734062195 10
      vertex 35.85393192262734 6.732050806283951 10
    endloop
  endfacet
  facet normal 0 0 1
    outer loop
      vertex 30.85393192262734 5 10
      vertex 36.78578357787217 5.517638087272644 10
      vertex 30.861542526794324 5.174311488866806 10
    endloop
  endfacet
  facet normal 0 0 1
    outer loop
      vertex 30.861542526794324 5.174311488866806 10
      vertex 36.733317163003335 5.684040285646915 10
      vertex 30.884316418481717 5.347296357154846 10
    endloop
  endfacet
  facet normal 0 0 1
    outer loop
      vertex 30.884316418481717 5.347296357154846 10
      vertex 36.66654749603356 5.845236524939537 10
      vertex 30.922080267382512 5.517638087272644 10
    endloop
  endfacet
  facet normal 0 0 1
    outer loop
      vertex 30.922080267382512 5.517638087272644 10
      vertex 36.58598272891129 6 10
      vertex 30.974546682251344 5.684040285646915 10
    endloop
  endfacet
  facet normal 0 0 1
    outer loop
      vertex 30.974546682251344 5.684040285646915 10
      vertex 36.49223601461733 6.147152870893478 10
      vertex 31.04131634922112 5.845236524939537 10
    endloop
  endfacet
  facet normal 0 0 1
    outer loop
      vertex 31.04131634922112 5.845236524939537 10
      vertex 36.38602080584849 6.285575218498707 10
      vertex 31.12188111634339 6 10
    endloop
  endfacet
  facet normal 0 0 1
    outer loop
      vertex 31.12188111634339 6 10
      vertex 36.26814548314894 6.414213560521603 10
      vertex 31.215627830637345 6.147152870893478 10
    endloop
  endfacet
  facet normal 0 0 1
    outer loop
      vertex 31.215627830637345 6.147152870893478 10
      vertex 36.139507141126046 6.5320888832211494 10
      vertex 31.32184303940619 6.285575218498707 10
    endloop
  endfacet
  facet normal 0 0 1
    outer loop
      vertex 31.32184303940619 6.285575218498707 10
      vertex 36.00108479352082 6.638304091989994 10
      vertex 31.439718362105737 6.414213560521603 10
    endloop
  endfacet
  facet normal 0 0 1
    outer loop
      vertex 31.439718362105737 6.414213560521603 10
      vertex 35.85393192262734 6.732050806283951 10
      vertex 31.568356704128632 6.5320888832211494 10
    endloop
  endfacet
  facet normal 0 0 1
    outer loop
      vertex 32.50663556547249 6.969615504145622 10
      vertex 32.85393192262734 7 10
      vertex 32.67962043376053 6.992389395833015 10
    endloop
  endfacet
  facet normal 0 0 1
    outer loop
      vertex 31.568356704128632 6.5320888832211494 10
      vertex 35.699168447566876 6.8126155734062195 10
      vertex 31.70677905173386 6.638304091989994 10
    endloop
  endfacet
  facet normal 0 0 1
    outer loop
      vertex 31.70677905173386 6.638304091989994 10
      vertex 35.537972208274255 6.879385240375996 10
      vertex 31.85393192262734 6.732050806283951 10
    endloop
  endfacet
  facet normal 0 0 1
    outer loop
      vertex 31.85393192262734 6.732050806283951 10
      vertex 35.37157000989998 6.931851655244827 10
      vertex 32.0086953976878 6.8126155734062195 10
    endloop
  endfacet
  facet normal 0 0 1
    outer loop
      vertex 32.0086953976878 6.8126155734062195 10
      vertex 35.201228279782185 6.969615504145622 10
      vertex 32.169891636980424 6.879385240375996 10
    endloop
  endfacet
  facet normal 0 0 1
    outer loop
      vertex 32.169891636980424 6.879385240375996 10
      vertex 35.028243411494145 6.992389395833015 10
      vertex 32.336293835354695 6.931851655244827 10
    endloop
  endfacet
  facet normal 0 0 1
    outer loop
      vertex 32.336293835354695 6.931851655244827 10
      vertex 34.85393192262734 7 10
      vertex 32.50663556547249 6.969615504145622 10
    endloop
  endfacet
  facet normal 0 0 1
    outer loop
      vertex 31.215627830637345 6.147152870893478 10
      vertex 36.26814548314894 6.414213560521603 10
      vertex 36.139507141126046 6.5320888832211494 10
    endloop
  endfacet
  facet normal 0 0 1
    outer loop
      vertex 31.32184303940619 6.285575218498707 10
      vertex 36.139507141126046 6.5320888832211494 10
      vertex 36.00108479352082 6.638304091989994 10
    endloop
  endfacet
  facet normal 0 0 1
    outer loop
      vertex 32.50663556547249 6.969615504145622 10
      vertex 34.85393192262734 7 10
      vertex 32.85393192262734 7 10
    endloop
  endfacet
  facet normal 0 0 1
    outer loop
      vertex 31.439718362105737 6.414213560521603 10
      vertex 36.00108479352082 6.638304091989994 10
      vertex 35.85393192262734 6.732050806283951 10
    endloop
  endfacet
  facet normal 0 0 1
    outer loop
      vertex 31.568356704128632 6.5320888832211494 10
      vertex 35.85393192262734 6.732050806283951 10
      vertex 35.699168447566876 6.8126155734062195 10
    endloop
  endfacet
  facet normal 0 0 1
    outer loop
      vertex 31.70677905173386 6.638304091989994 10
      vertex 35.699168447566876 6.8126155734062195 10
      vertex 35.537972208274255 6.879385240375996 10
    endloop
  endfacet
  facet normal 0 0 1
    outer loop
      vertex 31.85393192262734 6.732050806283951 10
      vertex 35.537972208274255 6.879385240375996 10
      vertex 35.37157000989998 6.931851655244827 10
    endloop
  endfacet
  facet normal 0 0 1
    outer loop
      vertex 32.336293835354695 6.931851655244827 10
      vertex 35.028243411494145 6.992389395833015 10
      vertex 34.85393192262734 7 10
    endloop
  endfacet
  facet normal 0 0 1
    outer loop
      vertex 32.0086953976878 6.8126155734062195 10
      vertex 35.37157000989998 6.931851655244827 10
      vertex 35.201228279782185 6.969615504145622 10
    endloop
  endfacet
  facet normal 0 0 1
    outer loop
      vertex 32.169891636980424 6.879385240375996 10
      vertex 35.201228279782185 6.969615504145622 10
      vertex 35.028243411494145 6.992389395833015 10
    endloop
  endfacet
  facet normal 0 0 1
    outer loop
      vertex 30.85393192262734 5 10
      vertex 36.82354742677296 5.347296357154846 10
      vertex 36.78578357787217 5.517638087272644 10
    endloop
  endfacet
  facet normal 0 0 1
    outer loop
      vertex 30.861542526794324 5.174311488866806 10
      vertex 36.78578357787217 5.517638087272644 10
      vertex 36.733317163003335 5.684040285646915 10
    endloop
  endfacet
  facet normal 0 0 1
    outer loop
      vertex 30.884316418481717 5.347296357154846 10
      vertex 36.733317163003335 5.684040285646915 10
      vertex 36.66654749603356 5.845236524939537 10
    endloop
  endfacet
  facet normal 0 0 1
    outer loop
      vertex 30.922080267382512 5.517638087272644 10
      vertex 36.66654749603356 5.845236524939537 10
      vertex 36.58598272891129 6 10
    endloop
  endfacet
  facet normal 0 0 1
    outer loop
      vertex 30.974546682251344 5.684040285646915 10
      vertex 36.58598272891129 6 10
      vertex 36.49223601461733 6.147152870893478 10
    endloop
  endfacet
  facet normal 0 0 1
    outer loop
      vertex 31.04131634922112 5.845236524939537 10
      vertex 36.49223601461733 6.147152870893478 10
      vertex 36.38602080584849 6.285575218498707 10
    endloop
  endfacet
  facet normal 0 0 1
    outer loop
      vertex 31.12188111634339 6 10
      vertex 36.38602080584849 6.285575218498707 10
      vertex 36.26814548314894 6.414213560521603 10
    endloop
  endfacet
  facet normal 0 1 0
    outer loop
      vertex 0 -0.7 0
      vertex 0 -0.7 5
      vertex 11.99 -0.7 0
    endloop
  endfacet
  facet normal 0 1 0
    outer loop
      vertex 0 -0.7 5
      vertex 11.99 -0.7 5
      vertex 11.99 -0.7 0
    endloop
  endfacet
  facet normal -1 0 0
    outer loop
      vertex 11.99 -0.7 0
      vertex 11.99 -0.7 5
      vertex 11.99 0.7 0
    endloop
  endfacet
  facet normal 0 -1 0
    outer loop
      vertex 0 0.7 0
      vertex 11.99 0.7 0
      vertex 11.99 0.7 5
    endloop
  endfacet
  facet normal 0 -1 0
    outer loop
      vertex 0 0.7 5
      vertex 0 0.7 0
      vertex 11.99 0.7 5
    endloop
  endfacet
  facet normal -1 0 0
    outer loop
      vertex 11.99 0.7 0
      vertex 11.99 -0.7 5
      vertex 11.99 0.7 5
    endloop
  endfacet
endsolid OpenSCAD_Model
