solid OpenSCAD_Model
  facet normal 0.9994645891873555 0.03271903055639837 0
    outer loop
      vertex 5.596146062016487 5.117725633084774 0
      vertex 5.5999999940395355 5 3.6
      vertex 5.5999999940395355 5 0
    endloop
  endfacet
  facet normal 0.9994645891873555 0.03271903055639837 0
    outer loop
      vertex 5.596146062016487 5.117725633084774 0
      vertex 5.596146062016487 5.117725633084774 3.6
      vertex 5.5999999940395355 5 3.6
    endloop
  endfacet
  facet normal 0.9951847232154344 0.09801717542665415 0
    outer loop
      vertex 5.584600746631622 5.234947144985199 0
      vertex 5.596146062016487 5.117725633084774 3.6
      vertex 5.596146062016487 5.117725633084774 0
    endloop
  endfacet
  facet normal 0.9951847232154344 0.09801717542665415 0
    outer loop
      vertex 5.584600746631622 5.234947144985199 0
      vertex 5.584600746631622 5.234947144985199 3.6
      vertex 5.596146062016487 5.117725633084774 3.6
    endloop
  endfacet
  facet normal 0.9866433383856102 0.16289543523161779 0
    outer loop
      vertex 5.5654135048389435 5.3511625826358795 0
      vertex 5.584600746631622 5.234947144985199 3.6
      vertex 5.584600746631622 5.234947144985199 0
    endloop
  endfacet
  facet normal 0.9866433383856102 0.16289543523161779 0
    outer loop
      vertex 5.5654135048389435 5.3511625826358795 0
      vertex 5.5654135048389435 5.3511625826358795 3.6
      vertex 5.584600746631622 5.234947144985199 3.6
    endloop
  endfacet
  facet normal 0.9738769781132707 0.22707626802676695 0
    outer loop
      vertex 5.538666486740112 5.465874284505844 0
      vertex 5.5654135048389435 5.3511625826358795 3.6
      vertex 5.5654135048389435 5.3511625826358795 0
    endloop
  endfacet
  facet normal 0.9738769781132707 0.22707626802676695 0
    outer loop
      vertex 5.538666486740112 5.465874284505844 0
      vertex 5.538666486740112 5.465874284505844 3.6
      vertex 5.5654135048389435 5.3511625826358795 3.6
    endloop
  endfacet
  facet normal 0.9569403303575187 0.2902846949724411 0
    outer loop
      vertex 5.504474230110645 5.578591041266918 0
      vertex 5.538666486740112 5.465874284505844 3.6
      vertex 5.538666486740112 5.465874284505844 0
    endloop
  endfacet
  facet normal 0.9569403303575187 0.2902846949724411 0
    outer loop
      vertex 5.504474230110645 5.578591041266918 0
      vertex 5.504474230110645 5.578591041266918 3.6
      vertex 5.538666486740112 5.465874284505844 3.6
    endloop
  endfacet
  facet normal 0.9359059217539472 0.3522500612148912 0
    outer loop
      vertex 5.462983153760433 5.688830181956291 0
      vertex 5.504474230110645 5.578591041266918 3.6
      vertex 5.504474230110645 5.578591041266918 0
    endloop
  endfacet
  facet normal 0.9359059217539472 0.3522500612148912 0
    outer loop
      vertex 5.462983153760433 5.688830181956291 0
      vertex 5.462983153760433 5.688830181956291 3.6
      vertex 5.504474230110645 5.578591041266918 3.6
    endloop
  endfacet
  facet normal 0.9108638290650978 0.4127070206585638 0
    outer loop
      vertex 5.414370931684971 5.796119645237923 0
      vertex 5.462983153760433 5.688830181956291 3.6
      vertex 5.462983153760433 5.688830181956291 0
    endloop
  endfacet
  facet normal 0.9108638290650978 0.4127070206585638 0
    outer loop
      vertex 5.414370931684971 5.796119645237923 0
      vertex 5.414370931684971 5.796119645237923 3.6
      vertex 5.462983153760433 5.688830181956291 3.6
    endloop
  endfacet
  facet normal 0.8819212629399107 0.4713967394610115 0
    outer loop
      vertex 5.358845725655556 5.899999998509884 0
      vertex 5.414370931684971 5.796119645237923 3.6
      vertex 5.414370931684971 5.796119645237923 0
    endloop
  endfacet
  facet normal 0.8819212629399107 0.4713967394610115 0
    outer loop
      vertex 5.358845725655556 5.899999998509884 0
      vertex 5.358845725655556 5.899999998509884 3.6
      vertex 5.414370931684971 5.796119645237923 3.6
    endloop
  endfacet
  facet normal 0.8492021767289768 0.5280678583655398 0
    outer loop
      vertex 5.296645298600197 6.000026419758797 0
      vertex 5.358845725655556 5.899999998509884 3.6
      vertex 5.358845725655556 5.899999998509884 0
    endloop
  endfacet
  facet normal 0.8492021767289768 0.5280678583655398 0
    outer loop
      vertex 5.296645298600197 6.000026419758797 0
      vertex 5.296645298600197 6.000026419758797 3.6
      vertex 5.358845725655556 5.899999998509884 3.6
    endloop
  endfacet
  facet normal 0.8128466911630182 0.5824776876974198 0
    outer loop
      vertex 5.228036008775234 6.095770575106144 0
      vertex 5.296645298600197 6.000026419758797 3.6
      vertex 5.296645298600197 6.000026419758797 0
    endloop
  endfacet
  facet normal 0.8128466911630182 0.5824776876974198 0
    outer loop
      vertex 5.228036008775234 6.095770575106144 0
      vertex 5.228036008775234 6.095770575106144 3.6
      vertex 5.296645298600197 6.000026419758797 3.6
    endloop
  endfacet
  facet normal 0.7730104320223251 0.6343933101670117 0
    outer loop
      vertex 5.153311647474766 6.1868224665522575 0
      vertex 5.228036008775234 6.095770575106144 3.6
      vertex 5.228036008775234 6.095770575106144 0
    endloop
  endfacet
  facet normal 0.7730104320223251 0.6343933101670117 0
    outer loop
      vertex 5.153311647474766 6.1868224665522575 0
      vertex 5.153311647474766 6.1868224665522575 3.6
      vertex 5.228036008775234 6.095770575106144 3.6
    endloop
  endfacet
  facet normal 0.7298640803691234 0.6835922938323207 0
    outer loop
      vertex 5.072792202234268 6.2727922052145 0
      vertex 5.153311647474766 6.1868224665522575 3.6
      vertex 5.153311647474766 6.1868224665522575 0
    endloop
  endfacet
  facet normal 0.7298640803691234 0.6835922938323207 0
    outer loop
      vertex 5.072792202234268 6.2727922052145 0
      vertex 5.072792202234268 6.2727922052145 3.6
      vertex 5.153311647474766 6.1868224665522575 3.6
    endloop
  endfacet
  facet normal 0.6835922938323207 0.7298640803691234 0
    outer loop
      vertex 4.986822463572025 6.353311650454998 0
      vertex 5.072792202234268 6.2727922052145 3.6
      vertex 5.072792202234268 6.2727922052145 0
    endloop
  endfacet
  facet normal 0.6835922938323207 0.7298640803691234 0
    outer loop
      vertex 4.986822463572025 6.353311650454998 0
      vertex 4.986822463572025 6.353311650454998 3.6
      vertex 5.072792202234268 6.2727922052145 3.6
    endloop
  endfacet
  facet normal 0.6343933101670117 0.7730104320223251 0
    outer loop
      vertex 4.895770572125912 6.4280360117554665 0
      vertex 4.986822463572025 6.353311650454998 3.6
      vertex 4.986822463572025 6.353311650454998 0
    endloop
  endfacet
  facet normal 0.6343933101670117 0.7730104320223251 0
    outer loop
      vertex 4.895770572125912 6.4280360117554665 0
      vertex 4.895770572125912 6.4280360117554665 3.6
      vertex 4.986822463572025 6.353311650454998 3.6
    endloop
  endfacet
  facet normal 0.5824776876974198 0.8128466911630182 0
    outer loop
      vertex 4.8000264167785645 6.496645301580429 0
      vertex 4.895770572125912 6.4280360117554665 3.6
      vertex 4.895770572125912 6.4280360117554665 0
    endloop
  endfacet
  facet normal 0.5824776876974198 0.8128466911630182 0
    outer loop
      vertex 4.8000264167785645 6.496645301580429 0
      vertex 4.8000264167785645 6.496645301580429 3.6
      vertex 4.895770572125912 6.4280360117554665 3.6
    endloop
  endfacet
  facet normal 0.5280678583655398 0.8492021767289768 0
    outer loop
      vertex 4.699999995529652 6.558845728635788 0
      vertex 4.8000264167785645 6.496645301580429 3.6
      vertex 4.8000264167785645 6.496645301580429 0
    endloop
  endfacet
  facet normal 0.5280678583655398 0.8492021767289768 0
    outer loop
      vertex 4.699999995529652 6.558845728635788 0
      vertex 4.699999995529652 6.558845728635788 3.6
      vertex 4.8000264167785645 6.496645301580429 3.6
    endloop
  endfacet
  facet normal 0.4713967394610115 0.8819212629399107 0
    outer loop
      vertex 4.59611964225769 6.614370934665203 0
      vertex 4.699999995529652 6.558845728635788 3.6
      vertex 4.699999995529652 6.558845728635788 0
    endloop
  endfacet
  facet normal 0.4713967394610115 0.8819212629399107 0
    outer loop
      vertex 4.59611964225769 6.614370934665203 0
      vertex 4.59611964225769 6.614370934665203 3.6
      vertex 4.699999995529652 6.558845728635788 3.6
    endloop
  endfacet
  facet normal 0.4127070206585638 0.9108638290650978 0
    outer loop
      vertex 4.488830178976059 6.662983156740665 0
      vertex 4.59611964225769 6.614370934665203 3.6
      vertex 4.59611964225769 6.614370934665203 0
    endloop
  endfacet
  facet normal 0.4127070206585638 0.9108638290650978 0
    outer loop
      vertex 4.488830178976059 6.662983156740665 0
      vertex 4.488830178976059 6.662983156740665 3.6
      vertex 4.59611964225769 6.614370934665203 3.6
    endloop
  endfacet
  facet normal 0.3522500612148912 0.9359059217539472 0
    outer loop
      vertex 4.378591038286686 6.7044742330908775 0
      vertex 4.488830178976059 6.662983156740665 3.6
      vertex 4.488830178976059 6.662983156740665 0
    endloop
  endfacet
  facet normal 0.3522500612148912 0.9359059217539472 0
    outer loop
      vertex 4.378591038286686 6.7044742330908775 0
      vertex 4.378591038286686 6.7044742330908775 3.6
      vertex 4.488830178976059 6.662983156740665 3.6
    endloop
  endfacet
  facet normal 0.2902846949724411 0.9569403303575187 0
    outer loop
      vertex 4.265874281525612 6.7386664897203445 0
      vertex 4.378591038286686 6.7044742330908775 3.6
      vertex 4.378591038286686 6.7044742330908775 0
    endloop
  endfacet
  facet normal 0.2902846949724411 0.9569403303575187 0
    outer loop
      vertex 4.265874281525612 6.7386664897203445 0
      vertex 4.265874281525612 6.7386664897203445 3.6
      vertex 4.378591038286686 6.7044742330908775 3.6
    endloop
  endfacet
  facet normal 0.22707626802676695 0.9738769781132707 0
    outer loop
      vertex 4.151162579655647 6.765413507819176 0
      vertex 4.265874281525612 6.7386664897203445 3.6
      vertex 4.265874281525612 6.7386664897203445 0
    endloop
  endfacet
  facet normal 0.22707626802676695 0.9738769781132707 0
    outer loop
      vertex 4.151162579655647 6.765413507819176 0
      vertex 4.151162579655647 6.765413507819176 3.6
      vertex 4.265874281525612 6.7386664897203445 3.6
    endloop
  endfacet
  facet normal 0.16289543523161779 0.9866433383856102 0
    outer loop
      vertex 4.034947142004967 6.7846007496118546 0
      vertex 4.151162579655647 6.765413507819176 3.6
      vertex 4.151162579655647 6.765413507819176 0
    endloop
  endfacet
  facet normal 0.16289543523161779 0.9866433383856102 0
    outer loop
      vertex 4.034947142004967 6.7846007496118546 0
      vertex 4.034947142004967 6.7846007496118546 3.6
      vertex 4.151162579655647 6.765413507819176 3.6
    endloop
  endfacet
  facet normal 0.09801717542665415 0.9951847232154344 0
    outer loop
      vertex 3.917725630104542 6.796146064996719 0
      vertex 4.034947142004967 6.7846007496118546 3.6
      vertex 4.034947142004967 6.7846007496118546 0
    endloop
  endfacet
  facet normal 0.09801717542665415 0.9951847232154344 0
    outer loop
      vertex 3.917725630104542 6.796146064996719 0
      vertex 3.917725630104542 6.796146064996719 3.6
      vertex 4.034947142004967 6.7846007496118546 3.6
    endloop
  endfacet
  facet normal 0.03271903055639837 0.9994645891873555 0
    outer loop
      vertex 3.7999999970197678 6.799999997019768 0
      vertex 3.917725630104542 6.796146064996719 3.6
      vertex 3.917725630104542 6.796146064996719 0
    endloop
  endfacet
  facet normal 0.03271903055639837 0.9994645891873555 0
    outer loop
      vertex 3.7999999970197678 6.799999997019768 0
      vertex 3.7999999970197678 6.799999997019768 3.6
      vertex 3.917725630104542 6.796146064996719 3.6
    endloop
  endfacet
  facet normal 0 1 0
    outer loop
      vertex -3.7999999970197678 6.799999997019768 0
      vertex 3.7999999970197678 6.799999997019768 3.6
      vertex 3.7999999970197678 6.799999997019768 0
    endloop
  endfacet
  facet normal 0 1 0
    outer loop
      vertex -3.7999999970197678 6.799999997019768 0
      vertex -3.7999999970197678 6.799999997019768 3.6
      vertex 3.7999999970197678 6.799999997019768 3.6
    endloop
  endfacet
  facet normal -0.03271903055639837 0.9994645891873555 0
    outer loop
      vertex -3.917725630104542 6.796146064996719 0
      vertex -3.7999999970197678 6.799999997019768 3.6
      vertex -3.7999999970197678 6.799999997019768 0
    endloop
  endfacet
  facet normal -0.03271903055639837 0.9994645891873555 0
    outer loop
      vertex -3.917725630104542 6.796146064996719 0
      vertex -3.917725630104542 6.796146064996719 3.6
      vertex -3.7999999970197678 6.799999997019768 3.6
    endloop
  endfacet
  facet normal -0.09801717542665415 0.9951847232154344 0
    outer loop
      vertex -4.034947142004967 6.7846007496118546 0
      vertex -3.917725630104542 6.796146064996719 3.6
      vertex -3.917725630104542 6.796146064996719 0
    endloop
  endfacet
  facet normal -0.09801717542665415 0.9951847232154344 0
    outer loop
      vertex -4.034947142004967 6.7846007496118546 0
      vertex -4.034947142004967 6.7846007496118546 3.6
      vertex -3.917725630104542 6.796146064996719 3.6
    endloop
  endfacet
  facet normal -0.16289543523161779 0.9866433383856102 0
    outer loop
      vertex -4.151162579655647 6.765413507819176 0
      vertex -4.034947142004967 6.7846007496118546 3.6
      vertex -4.034947142004967 6.7846007496118546 0
    endloop
  endfacet
  facet normal -0.16289543523161779 0.9866433383856102 0
    outer loop
      vertex -4.151162579655647 6.765413507819176 0
      vertex -4.151162579655647 6.765413507819176 3.6
      vertex -4.034947142004967 6.7846007496118546 3.6
    endloop
  endfacet
  facet normal -0.22707626802676695 0.9738769781132707 0
    outer loop
      vertex -4.265874281525612 6.7386664897203445 0
      vertex -4.151162579655647 6.765413507819176 3.6
      vertex -4.151162579655647 6.765413507819176 0
    endloop
  endfacet
  facet normal -0.22707626802676695 0.9738769781132707 0
    outer loop
      vertex -4.265874281525612 6.7386664897203445 0
      vertex -4.265874281525612 6.7386664897203445 3.6
      vertex -4.151162579655647 6.765413507819176 3.6
    endloop
  endfacet
  facet normal -0.2902846949724411 0.9569403303575187 0
    outer loop
      vertex -4.378591038286686 6.7044742330908775 0
      vertex -4.265874281525612 6.7386664897203445 3.6
      vertex -4.265874281525612 6.7386664897203445 0
    endloop
  endfacet
  facet normal -0.2902846949724411 0.9569403303575187 0
    outer loop
      vertex -4.378591038286686 6.7044742330908775 0
      vertex -4.378591038286686 6.7044742330908775 3.6
      vertex -4.265874281525612 6.7386664897203445 3.6
    endloop
  endfacet
  facet normal -0.3522500612148912 0.9359059217539472 0
    outer loop
      vertex -4.488830178976059 6.662983156740665 0
      vertex -4.378591038286686 6.7044742330908775 3.6
      vertex -4.378591038286686 6.7044742330908775 0
    endloop
  endfacet
  facet normal -0.3522500612148912 0.9359059217539472 0
    outer loop
      vertex -4.488830178976059 6.662983156740665 0
      vertex -4.488830178976059 6.662983156740665 3.6
      vertex -4.378591038286686 6.7044742330908775 3.6
    endloop
  endfacet
  facet normal -0.4127070206585638 0.9108638290650978 0
    outer loop
      vertex -4.59611964225769 6.614370934665203 0
      vertex -4.488830178976059 6.662983156740665 3.6
      vertex -4.488830178976059 6.662983156740665 0
    endloop
  endfacet
  facet normal -0.4127070206585638 0.9108638290650978 0
    outer loop
      vertex -4.59611964225769 6.614370934665203 0
      vertex -4.59611964225769 6.614370934665203 3.6
      vertex -4.488830178976059 6.662983156740665 3.6
    endloop
  endfacet
  facet normal -0.4713967394610115 0.8819212629399107 0
    outer loop
      vertex -4.699999995529652 6.558845728635788 0
      vertex -4.59611964225769 6.614370934665203 3.6
      vertex -4.59611964225769 6.614370934665203 0
    endloop
  endfacet
  facet normal -0.4713967394610115 0.8819212629399107 0
    outer loop
      vertex -4.699999995529652 6.558845728635788 0
      vertex -4.699999995529652 6.558845728635788 3.6
      vertex -4.59611964225769 6.614370934665203 3.6
    endloop
  endfacet
  facet normal -0.5280678583655398 0.8492021767289768 0
    outer loop
      vertex -4.8000264167785645 6.496645301580429 0
      vertex -4.699999995529652 6.558845728635788 3.6
      vertex -4.699999995529652 6.558845728635788 0
    endloop
  endfacet
  facet normal -0.5280678583655398 0.8492021767289768 0
    outer loop
      vertex -4.8000264167785645 6.496645301580429 0
      vertex -4.8000264167785645 6.496645301580429 3.6
      vertex -4.699999995529652 6.558845728635788 3.6
    endloop
  endfacet
  facet normal -0.5824776876974198 0.8128466911630182 0
    outer loop
      vertex -4.895770572125912 6.4280360117554665 0
      vertex -4.8000264167785645 6.496645301580429 3.6
      vertex -4.8000264167785645 6.496645301580429 0
    endloop
  endfacet
  facet normal -0.5824776876974198 0.8128466911630182 0
    outer loop
      vertex -4.895770572125912 6.4280360117554665 0
      vertex -4.895770572125912 6.4280360117554665 3.6
      vertex -4.8000264167785645 6.496645301580429 3.6
    endloop
  endfacet
  facet normal -0.6343933101670117 0.7730104320223251 0
    outer loop
      vertex -4.986822463572025 6.353311650454998 0
      vertex -4.895770572125912 6.4280360117554665 3.6
      vertex -4.895770572125912 6.4280360117554665 0
    endloop
  endfacet
  facet normal -0.6343933101670117 0.7730104320223251 0
    outer loop
      vertex -4.986822463572025 6.353311650454998 0
      vertex -4.986822463572025 6.353311650454998 3.6
      vertex -4.895770572125912 6.4280360117554665 3.6
    endloop
  endfacet
  facet normal -0.6835922938323207 0.7298640803691234 0
    outer loop
      vertex -5.072792202234268 6.2727922052145 0
      vertex -4.986822463572025 6.353311650454998 3.6
      vertex -4.986822463572025 6.353311650454998 0
    endloop
  endfacet
  facet normal -0.6835922938323207 0.7298640803691234 0
    outer loop
      vertex -5.072792202234268 6.2727922052145 0
      vertex -5.072792202234268 6.2727922052145 3.6
      vertex -4.986822463572025 6.353311650454998 3.6
    endloop
  endfacet
  facet normal -0.7298640803691234 0.6835922938323207 0
    outer loop
      vertex -5.153311647474766 6.1868224665522575 0
      vertex -5.072792202234268 6.2727922052145 3.6
      vertex -5.072792202234268 6.2727922052145 0
    endloop
  endfacet
  facet normal -0.7298640803691234 0.6835922938323207 0
    outer loop
      vertex -5.153311647474766 6.1868224665522575 0
      vertex -5.153311647474766 6.1868224665522575 3.6
      vertex -5.072792202234268 6.2727922052145 3.6
    endloop
  endfacet
  facet normal -0.7730104320223251 0.6343933101670117 0
    outer loop
      vertex -5.228036008775234 6.095770575106144 0
      vertex -5.153311647474766 6.1868224665522575 3.6
      vertex -5.153311647474766 6.1868224665522575 0
    endloop
  endfacet
  facet normal -0.7730104320223251 0.6343933101670117 0
    outer loop
      vertex -5.228036008775234 6.095770575106144 0
      vertex -5.228036008775234 6.095770575106144 3.6
      vertex -5.153311647474766 6.1868224665522575 3.6
    endloop
  endfacet
  facet normal -0.8128466911630182 0.5824776876974198 0
    outer loop
      vertex -5.296645298600197 6.000026419758797 0
      vertex -5.228036008775234 6.095770575106144 3.6
      vertex -5.228036008775234 6.095770575106144 0
    endloop
  endfacet
  facet normal -0.8128466911630182 0.5824776876974198 0
    outer loop
      vertex -5.296645298600197 6.000026419758797 0
      vertex -5.296645298600197 6.000026419758797 3.6
      vertex -5.228036008775234 6.095770575106144 3.6
    endloop
  endfacet
  facet normal -0.8492021767289768 0.5280678583655398 0
    outer loop
      vertex -5.358845725655556 5.899999998509884 0
      vertex -5.296645298600197 6.000026419758797 3.6
      vertex -5.296645298600197 6.000026419758797 0
    endloop
  endfacet
  facet normal -0.8492021767289768 0.5280678583655398 0
    outer loop
      vertex -5.358845725655556 5.899999998509884 0
      vertex -5.358845725655556 5.899999998509884 3.6
      vertex -5.296645298600197 6.000026419758797 3.6
    endloop
  endfacet
  facet normal -0.8819212629399107 0.4713967394610115 0
    outer loop
      vertex -5.414370931684971 5.796119645237923 0
      vertex -5.358845725655556 5.899999998509884 3.6
      vertex -5.358845725655556 5.899999998509884 0
    endloop
  endfacet
  facet normal -0.8819212629399107 0.4713967394610115 0
    outer loop
      vertex -5.414370931684971 5.796119645237923 0
      vertex -5.414370931684971 5.796119645237923 3.6
      vertex -5.358845725655556 5.899999998509884 3.6
    endloop
  endfacet
  facet normal -0.9108638290650978 0.4127070206585638 0
    outer loop
      vertex -5.462983153760433 5.688830181956291 0
      vertex -5.414370931684971 5.796119645237923 3.6
      vertex -5.414370931684971 5.796119645237923 0
    endloop
  endfacet
  facet normal -0.9108638290650978 0.4127070206585638 0
    outer loop
      vertex -5.462983153760433 5.688830181956291 0
      vertex -5.462983153760433 5.688830181956291 3.6
      vertex -5.414370931684971 5.796119645237923 3.6
    endloop
  endfacet
  facet normal -0.9359059217539472 0.3522500612148912 0
    outer loop
      vertex -5.504474230110645 5.578591041266918 0
      vertex -5.462983153760433 5.688830181956291 3.6
      vertex -5.462983153760433 5.688830181956291 0
    endloop
  endfacet
  facet normal -0.9359059217539472 0.3522500612148912 0
    outer loop
      vertex -5.504474230110645 5.578591041266918 0
      vertex -5.504474230110645 5.578591041266918 3.6
      vertex -5.462983153760433 5.688830181956291 3.6
    endloop
  endfacet
  facet normal -0.9569403303575187 0.2902846949724411 0
    outer loop
      vertex -5.538666486740112 5.465874284505844 0
      vertex -5.504474230110645 5.578591041266918 3.6
      vertex -5.504474230110645 5.578591041266918 0
    endloop
  endfacet
  facet normal -0.9569403303575187 0.2902846949724411 0
    outer loop
      vertex -5.538666486740112 5.465874284505844 0
      vertex -5.538666486740112 5.465874284505844 3.6
      vertex -5.504474230110645 5.578591041266918 3.6
    endloop
  endfacet
  facet normal -0.9738769781132707 0.22707626802676695 0
    outer loop
      vertex -5.5654135048389435 5.3511625826358795 0
      vertex -5.538666486740112 5.465874284505844 3.6
      vertex -5.538666486740112 5.465874284505844 0
    endloop
  endfacet
  facet normal -0.9738769781132707 0.22707626802676695 0
    outer loop
      vertex -5.5654135048389435 5.3511625826358795 0
      vertex -5.5654135048389435 5.3511625826358795 3.6
      vertex -5.538666486740112 5.465874284505844 3.6
    endloop
  endfacet
  facet normal -0.9866433383856102 0.16289543523161779 0
    outer loop
      vertex -5.584600746631622 5.234947144985199 0
      vertex -5.5654135048389435 5.3511625826358795 3.6
      vertex -5.5654135048389435 5.3511625826358795 0
    endloop
  endfacet
  facet normal -0.9866433383856102 0.16289543523161779 0
    outer loop
      vertex -5.584600746631622 5.234947144985199 0
      vertex -5.584600746631622 5.234947144985199 3.6
      vertex -5.5654135048389435 5.3511625826358795 3.6
    endloop
  endfacet
  facet normal -0.9951847232154344 0.09801717542665415 0
    outer loop
      vertex -5.596146062016487 5.117725633084774 0
      vertex -5.584600746631622 5.234947144985199 3.6
      vertex -5.584600746631622 5.234947144985199 0
    endloop
  endfacet
  facet normal -0.9951847232154344 0.09801717542665415 0
    outer loop
      vertex -5.596146062016487 5.117725633084774 0
      vertex -5.596146062016487 5.117725633084774 3.6
      vertex -5.584600746631622 5.234947144985199 3.6
    endloop
  endfacet
  facet normal -0.9994645891873555 0.03271903055639837 0
    outer loop
      vertex -5.5999999940395355 5 0
      vertex -5.596146062016487 5.117725633084774 3.6
      vertex -5.596146062016487 5.117725633084774 0
    endloop
  endfacet
  facet normal -0.9994645891873555 0.03271903055639837 0
    outer loop
      vertex -5.5999999940395355 5 0
      vertex -5.5999999940395355 5 3.6
      vertex -5.596146062016487 5.117725633084774 3.6
    endloop
  endfacet
  facet normal -1 0 0
    outer loop
      vertex -5.5999999940395355 -2.7999999970197678 0
      vertex -5.5999999940395355 5 3.6
      vertex -5.5999999940395355 5 0
    endloop
  endfacet
  facet normal -1 0 0
    outer loop
      vertex -5.5999999940395355 -2.7999999970197678 0
      vertex -5.5999999940395355 -2.7999999970197678 3.6
      vertex -5.5999999940395355 5 3.6
    endloop
  endfacet
  facet normal 0 -1 0
    outer loop
      vertex -3.7999999970197678 -2.7999999970197678 0
      vertex -5.5999999940395355 -2.7999999970197678 3.6
      vertex -5.5999999940395355 -2.7999999970197678 0
    endloop
  endfacet
  facet normal 0 -1 0
    outer loop
      vertex -3.7999999970197678 -2.7999999970197678 0
      vertex -3.7999999970197678 -2.7999999970197678 3.6
      vertex -5.5999999940395355 -2.7999999970197678 3.6
    endloop
  endfacet
  facet normal 1 0 0
    outer loop
      vertex -3.7999999970197678 5 0
      vertex -3.7999999970197678 -2.7999999970197678 3.6
      vertex -3.7999999970197678 -2.7999999970197678 0
    endloop
  endfacet
  facet normal 1 0 0
    outer loop
      vertex -3.7999999970197678 5 0
      vertex -3.7999999970197678 5 3.6
      vertex -3.7999999970197678 -2.7999999970197678 3.6
    endloop
  endfacet
  facet normal 0 -1 0
    outer loop
      vertex 3.7999999970197678 5 0
      vertex -3.7999999970197678 5 3.6
      vertex -3.7999999970197678 5 0
    endloop
  endfacet
  facet normal 0 -1 0
    outer loop
      vertex 3.7999999970197678 5 0
      vertex 3.7999999970197678 5 3.6
      vertex -3.7999999970197678 5 3.6
    endloop
  endfacet
  facet normal -1 0 0
    outer loop
      vertex 3.7999999970197678 -2.7999999970197678 0
      vertex 3.7999999970197678 5 3.6
      vertex 3.7999999970197678 5 0
    endloop
  endfacet
  facet normal -1 0 0
    outer loop
      vertex 3.7999999970197678 -2.7999999970197678 0
      vertex 3.7999999970197678 -2.7999999970197678 3.6
      vertex 3.7999999970197678 5 3.6
    endloop
  endfacet
  facet normal 0 -1 0
    outer loop
      vertex 5.5999999940395355 -2.7999999970197678 0
      vertex 3.7999999970197678 -2.7999999970197678 3.6
      vertex 3.7999999970197678 -2.7999999970197678 0
    endloop
  endfacet
  facet normal 0 -1 0
    outer loop
      vertex 5.5999999940395355 -2.7999999970197678 0
      vertex 5.5999999940395355 -2.7999999970197678 3.6
      vertex 3.7999999970197678 -2.7999999970197678 3.6
    endloop
  endfacet
  facet normal 1 0 0
    outer loop
      vertex 5.5999999940395355 5 0
      vertex 5.5999999940395355 -2.7999999970197678 3.6
      vertex 5.5999999940395355 -2.7999999970197678 0
    endloop
  endfacet
  facet normal 1 0 0
    outer loop
      vertex 5.5999999940395355 5 0
      vertex 5.5999999940395355 5 3.6
      vertex 5.5999999940395355 -2.7999999970197678 3.6
    endloop
  endfacet
  facet normal 0 0 1
    outer loop
      vertex 3.7999999970197678 5 3.6
      vertex 3.7999999970197678 -2.7999999970197678 3.6
      vertex 5.5999999940395355 -2.7999999970197678 3.6
    endloop
  endfacet
  facet normal 0 0 1
    outer loop
      vertex 3.7999999970197678 5 3.6
      vertex 5.5999999940395355 -2.7999999970197678 3.6
      vertex 5.5999999940395355 5 3.6
    endloop
  endfacet
  facet normal 0 0 1
    outer loop
      vertex 3.7999999970197678 5 3.6
      vertex 5.5999999940395355 5 3.6
      vertex 5.596146062016487 5.117725633084774 3.6
    endloop
  endfacet
  facet normal 0 0 1
    outer loop
      vertex 3.7999999970197678 5 3.6
      vertex 5.596146062016487 5.117725633084774 3.6
      vertex 5.584600746631622 5.234947144985199 3.6
    endloop
  endfacet
  facet normal 0 0 1
    outer loop
      vertex 3.7999999970197678 5 3.6
      vertex 5.584600746631622 5.234947144985199 3.6
      vertex 5.5654135048389435 5.3511625826358795 3.6
    endloop
  endfacet
  facet normal 0 0 1
    outer loop
      vertex 3.7999999970197678 5 3.6
      vertex 5.5654135048389435 5.3511625826358795 3.6
      vertex 5.538666486740112 5.465874284505844 3.6
    endloop
  endfacet
  facet normal 0 0 1
    outer loop
      vertex 3.7999999970197678 5 3.6
      vertex 5.538666486740112 5.465874284505844 3.6
      vertex 5.504474230110645 5.578591041266918 3.6
    endloop
  endfacet
  facet normal 0 0 1
    outer loop
      vertex 3.7999999970197678 5 3.6
      vertex 5.504474230110645 5.578591041266918 3.6
      vertex 5.462983153760433 5.688830181956291 3.6
    endloop
  endfacet
  facet normal 0 0 1
    outer loop
      vertex 3.7999999970197678 5 3.6
      vertex 5.462983153760433 5.688830181956291 3.6
      vertex 5.414370931684971 5.796119645237923 3.6
    endloop
  endfacet
  facet normal 0 0 1
    outer loop
      vertex 3.7999999970197678 5 3.6
      vertex 5.414370931684971 5.796119645237923 3.6
      vertex 5.358845725655556 5.899999998509884 3.6
    endloop
  endfacet
  facet normal 0 0 1
    outer loop
      vertex 3.7999999970197678 5 3.6
      vertex 5.358845725655556 5.899999998509884 3.6
      vertex 5.296645298600197 6.000026419758797 3.6
    endloop
  endfacet
  facet normal 0 0 1
    outer loop
      vertex 3.7999999970197678 5 3.6
      vertex 5.296645298600197 6.000026419758797 3.6
      vertex 5.228036008775234 6.095770575106144 3.6
    endloop
  endfacet
  facet normal 0 0 1
    outer loop
      vertex 3.7999999970197678 5 3.6
      vertex 5.228036008775234 6.095770575106144 3.6
      vertex 5.153311647474766 6.1868224665522575 3.6
    endloop
  endfacet
  facet normal 0 0 1
    outer loop
      vertex 3.7999999970197678 5 3.6
      vertex 5.153311647474766 6.1868224665522575 3.6
      vertex 5.072792202234268 6.2727922052145 3.6
    endloop
  endfacet
  facet normal 0 0 1
    outer loop
      vertex 3.7999999970197678 5 3.6
      vertex 5.072792202234268 6.2727922052145 3.6
      vertex 4.986822463572025 6.353311650454998 3.6
    endloop
  endfacet
  facet normal 0 0 1
    outer loop
      vertex 3.7999999970197678 5 3.6
      vertex 4.986822463572025 6.353311650454998 3.6
      vertex 4.895770572125912 6.4280360117554665 3.6
    endloop
  endfacet
  facet normal 0 0 1
    outer loop
      vertex 3.7999999970197678 5 3.6
      vertex 4.895770572125912 6.4280360117554665 3.6
      vertex 4.8000264167785645 6.496645301580429 3.6
    endloop
  endfacet
  facet normal 0 0 1
    outer loop
      vertex 3.7999999970197678 5 3.6
      vertex 4.8000264167785645 6.496645301580429 3.6
      vertex 4.699999995529652 6.558845728635788 3.6
    endloop
  endfacet
  facet normal 0 0 1
    outer loop
      vertex 3.7999999970197678 5 3.6
      vertex 4.699999995529652 6.558845728635788 3.6
      vertex 4.59611964225769 6.614370934665203 3.6
    endloop
  endfacet
  facet normal 0 0 1
    outer loop
      vertex 3.7999999970197678 5 3.6
      vertex 4.59611964225769 6.614370934665203 3.6
      vertex 4.488830178976059 6.662983156740665 3.6
    endloop
  endfacet
  facet normal 0 0 1
    outer loop
      vertex 3.7999999970197678 5 3.6
      vertex 4.488830178976059 6.662983156740665 3.6
      vertex 4.378591038286686 6.7044742330908775 3.6
    endloop
  endfacet
  facet normal 0 0 1
    outer loop
      vertex 3.7999999970197678 5 3.6
      vertex 4.378591038286686 6.7044742330908775 3.6
      vertex 4.265874281525612 6.7386664897203445 3.6
    endloop
  endfacet
  facet normal 0 0 1
    outer loop
      vertex 3.7999999970197678 5 3.6
      vertex 4.265874281525612 6.7386664897203445 3.6
      vertex 4.151162579655647 6.765413507819176 3.6
    endloop
  endfacet
  facet normal 0 0 1
    outer loop
      vertex 3.7999999970197678 5 3.6
      vertex 4.151162579655647 6.765413507819176 3.6
      vertex 4.034947142004967 6.7846007496118546 3.6
    endloop
  endfacet
  facet normal 0 0 1
    outer loop
      vertex 3.7999999970197678 5 3.6
      vertex 4.034947142004967 6.7846007496118546 3.6
      vertex 3.917725630104542 6.796146064996719 3.6
    endloop
  endfacet
  facet normal 0 0 1
    outer loop
      vertex 3.7999999970197678 5 3.6
      vertex 3.917725630104542 6.796146064996719 3.6
      vertex 3.7999999970197678 6.799999997019768 3.6
    endloop
  endfacet
  facet normal 0 0 1
    outer loop
      vertex -5.5999999940395355 5 3.6
      vertex -5.5999999940395355 -2.7999999970197678 3.6
      vertex -3.7999999970197678 -2.7999999970197678 3.6
    endloop
  endfacet
  facet normal 0 0 1
    outer loop
      vertex -5.5999999940395355 5 3.6
      vertex -3.7999999970197678 -2.7999999970197678 3.6
      vertex -3.7999999970197678 5 3.6
    endloop
  endfacet
  facet normal 0 0 1
    outer loop
      vertex -5.596146062016487 5.117725633084774 3.6
      vertex -5.5999999940395355 5 3.6
      vertex -3.7999999970197678 5 3.6
    endloop
  endfacet
  facet normal 0 0 1
    outer loop
      vertex -5.584600746631622 5.234947144985199 3.6
      vertex -5.596146062016487 5.117725633084774 3.6
      vertex -3.7999999970197678 5 3.6
    endloop
  endfacet
  facet normal 0 0 1
    outer loop
      vertex -5.5654135048389435 5.3511625826358795 3.6
      vertex -5.584600746631622 5.234947144985199 3.6
      vertex -3.7999999970197678 5 3.6
    endloop
  endfacet
  facet normal 0 0 1
    outer loop
      vertex -5.538666486740112 5.465874284505844 3.6
      vertex -5.5654135048389435 5.3511625826358795 3.6
      vertex -3.7999999970197678 5 3.6
    endloop
  endfacet
  facet normal 0 0 1
    outer loop
      vertex -5.504474230110645 5.578591041266918 3.6
      vertex -5.538666486740112 5.465874284505844 3.6
      vertex -3.7999999970197678 5 3.6
    endloop
  endfacet
  facet normal 0 0 1
    outer loop
      vertex -5.462983153760433 5.688830181956291 3.6
      vertex -5.504474230110645 5.578591041266918 3.6
      vertex -3.7999999970197678 5 3.6
    endloop
  endfacet
  facet normal 0 0 1
    outer loop
      vertex -5.414370931684971 5.796119645237923 3.6
      vertex -5.462983153760433 5.688830181956291 3.6
      vertex -3.7999999970197678 5 3.6
    endloop
  endfacet
  facet normal 0 0 1
    outer loop
      vertex -5.358845725655556 5.899999998509884 3.6
      vertex -5.414370931684971 5.796119645237923 3.6
      vertex -3.7999999970197678 5 3.6
    endloop
  endfacet
  facet normal 0 0 1
    outer loop
      vertex -5.296645298600197 6.000026419758797 3.6
      vertex -5.358845725655556 5.899999998509884 3.6
      vertex -3.7999999970197678 5 3.6
    endloop
  endfacet
  facet normal 0 0 1
    outer loop
      vertex -5.228036008775234 6.095770575106144 3.6
      vertex -5.296645298600197 6.000026419758797 3.6
      vertex -3.7999999970197678 5 3.6
    endloop
  endfacet
  facet normal 0 0 1
    outer loop
      vertex -5.153311647474766 6.1868224665522575 3.6
      vertex -5.228036008775234 6.095770575106144 3.6
      vertex -3.7999999970197678 5 3.6
    endloop
  endfacet
  facet normal 0 0 1
    outer loop
      vertex -5.072792202234268 6.2727922052145 3.6
      vertex -5.153311647474766 6.1868224665522575 3.6
      vertex -3.7999999970197678 5 3.6
    endloop
  endfacet
  facet normal 0 0 1
    outer loop
      vertex -4.986822463572025 6.353311650454998 3.6
      vertex -5.072792202234268 6.2727922052145 3.6
      vertex -3.7999999970197678 5 3.6
    endloop
  endfacet
  facet normal 0 0 1
    outer loop
      vertex -4.895770572125912 6.4280360117554665 3.6
      vertex -4.986822463572025 6.353311650454998 3.6
      vertex -3.7999999970197678 5 3.6
    endloop
  endfacet
  facet normal 0 0 1
    outer loop
      vertex -4.8000264167785645 6.496645301580429 3.6
      vertex -4.895770572125912 6.4280360117554665 3.6
      vertex -3.7999999970197678 5 3.6
    endloop
  endfacet
  facet normal 0 0 1
    outer loop
      vertex -4.699999995529652 6.558845728635788 3.6
      vertex -4.8000264167785645 6.496645301580429 3.6
      vertex -3.7999999970197678 5 3.6
    endloop
  endfacet
  facet normal 0 0 1
    outer loop
      vertex -4.59611964225769 6.614370934665203 3.6
      vertex -4.699999995529652 6.558845728635788 3.6
      vertex -3.7999999970197678 5 3.6
    endloop
  endfacet
  facet normal 0 0 1
    outer loop
      vertex -4.488830178976059 6.662983156740665 3.6
      vertex -4.59611964225769 6.614370934665203 3.6
      vertex -3.7999999970197678 5 3.6
    endloop
  endfacet
  facet normal 0 0 1
    outer loop
      vertex -4.378591038286686 6.7044742330908775 3.6
      vertex -4.488830178976059 6.662983156740665 3.6
      vertex -3.7999999970197678 5 3.6
    endloop
  endfacet
  facet normal 0 0 1
    outer loop
      vertex -4.265874281525612 6.7386664897203445 3.6
      vertex -4.378591038286686 6.7044742330908775 3.6
      vertex -3.7999999970197678 5 3.6
    endloop
  endfacet
  facet normal 0 0 1
    outer loop
      vertex -4.151162579655647 6.765413507819176 3.6
      vertex -4.265874281525612 6.7386664897203445 3.6
      vertex -3.7999999970197678 5 3.6
    endloop
  endfacet
  facet normal 0 0 1
    outer loop
      vertex -4.034947142004967 6.7846007496118546 3.6
      vertex -4.151162579655647 6.765413507819176 3.6
      vertex -3.7999999970197678 5 3.6
    endloop
  endfacet
  facet normal 0 0 1
    outer loop
      vertex -3.917725630104542 6.796146064996719 3.6
      vertex -4.034947142004967 6.7846007496118546 3.6
      vertex -3.7999999970197678 5 3.6
    endloop
  endfacet
  facet normal 0 0 1
    outer loop
      vertex -3.7999999970197678 6.799999997019768 3.6
      vertex -3.917725630104542 6.796146064996719 3.6
      vertex -3.7999999970197678 5 3.6
    endloop
  endfacet
  facet normal 0 0 1
    outer loop
      vertex -3.7999999970197678 5 3.6
      vertex 3.7999999970197678 5 3.6
      vertex 3.7999999970197678 6.799999997019768 3.6
    endloop
  endfacet
  facet normal 0 0 1
    outer loop
      vertex -3.7999999970197678 5 3.6
      vertex 3.7999999970197678 6.799999997019768 3.6
      vertex -3.7999999970197678 6.799999997019768 3.6
    endloop
  endfacet
  facet normal 0 0 -1
    outer loop
      vertex 5.5999999940395355 -2.7999999970197678 0
      vertex 3.7999999970197678 -2.7999999970197678 0
      vertex 3.7999999970197678 5 0
    endloop
  endfacet
  facet normal 0 0 -1
    outer loop
      vertex 5.5999999940395355 5 0
      vertex 5.5999999940395355 -2.7999999970197678 0
      vertex 3.7999999970197678 5 0
    endloop
  endfacet
  facet normal 0 0 -1
    outer loop
      vertex 5.596146062016487 5.117725633084774 0
      vertex 5.5999999940395355 5 0
      vertex 3.7999999970197678 5 0
    endloop
  endfacet
  facet normal 0 0 -1
    outer loop
      vertex 5.584600746631622 5.234947144985199 0
      vertex 5.596146062016487 5.117725633084774 0
      vertex 3.7999999970197678 5 0
    endloop
  endfacet
  facet normal 0 0 -1
    outer loop
      vertex 5.5654135048389435 5.3511625826358795 0
      vertex 5.584600746631622 5.234947144985199 0
      vertex 3.7999999970197678 5 0
    endloop
  endfacet
  facet normal 0 0 -1
    outer loop
      vertex 5.538666486740112 5.465874284505844 0
      vertex 5.5654135048389435 5.3511625826358795 0
      vertex 3.7999999970197678 5 0
    endloop
  endfacet
  facet normal 0 0 -1
    outer loop
      vertex 5.504474230110645 5.578591041266918 0
      vertex 5.538666486740112 5.465874284505844 0
      vertex 3.7999999970197678 5 0
    endloop
  endfacet
  facet normal 0 0 -1
    outer loop
      vertex 5.462983153760433 5.688830181956291 0
      vertex 5.504474230110645 5.578591041266918 0
      vertex 3.7999999970197678 5 0
    endloop
  endfacet
  facet normal 0 0 -1
    outer loop
      vertex 5.414370931684971 5.796119645237923 0
      vertex 5.462983153760433 5.688830181956291 0
      vertex 3.7999999970197678 5 0
    endloop
  endfacet
  facet normal 0 0 -1
    outer loop
      vertex 5.358845725655556 5.899999998509884 0
      vertex 5.414370931684971 5.796119645237923 0
      vertex 3.7999999970197678 5 0
    endloop
  endfacet
  facet normal 0 0 -1
    outer loop
      vertex 5.296645298600197 6.000026419758797 0
      vertex 5.358845725655556 5.899999998509884 0
      vertex 3.7999999970197678 5 0
    endloop
  endfacet
  facet normal 0 0 -1
    outer loop
      vertex 5.228036008775234 6.095770575106144 0
      vertex 5.296645298600197 6.000026419758797 0
      vertex 3.7999999970197678 5 0
    endloop
  endfacet
  facet normal 0 0 -1
    outer loop
      vertex 5.153311647474766 6.1868224665522575 0
      vertex 5.228036008775234 6.095770575106144 0
      vertex 3.7999999970197678 5 0
    endloop
  endfacet
  facet normal 0 0 -1
    outer loop
      vertex 5.072792202234268 6.2727922052145 0
      vertex 5.153311647474766 6.1868224665522575 0
      vertex 3.7999999970197678 5 0
    endloop
  endfacet
  facet normal 0 0 -1
    outer loop
      vertex 4.986822463572025 6.353311650454998 0
      vertex 5.072792202234268 6.2727922052145 0
      vertex 3.7999999970197678 5 0
    endloop
  endfacet
  facet normal 0 0 -1
    outer loop
      vertex 4.895770572125912 6.4280360117554665 0
      vertex 4.986822463572025 6.353311650454998 0
      vertex 3.7999999970197678 5 0
    endloop
  endfacet
  facet normal 0 0 -1
    outer loop
      vertex 4.8000264167785645 6.496645301580429 0
      vertex 4.895770572125912 6.4280360117554665 0
      vertex 3.7999999970197678 5 0
    endloop
  endfacet
  facet normal 0 0 -1
    outer loop
      vertex 4.699999995529652 6.558845728635788 0
      vertex 4.8000264167785645 6.496645301580429 0
      vertex 3.7999999970197678 5 0
    endloop
  endfacet
  facet normal 0 0 -1
    outer loop
      vertex 4.59611964225769 6.614370934665203 0
      vertex 4.699999995529652 6.558845728635788 0
      vertex 3.7999999970197678 5 0
    endloop
  endfacet
  facet normal 0 0 -1
    outer loop
      vertex 4.488830178976059 6.662983156740665 0
      vertex 4.59611964225769 6.614370934665203 0
      vertex 3.7999999970197678 5 0
    endloop
  endfacet
  facet normal 0 0 -1
    outer loop
      vertex 4.378591038286686 6.7044742330908775 0
      vertex 4.488830178976059 6.662983156740665 0
      vertex 3.7999999970197678 5 0
    endloop
  endfacet
  facet normal 0 0 -1
    outer loop
      vertex 4.265874281525612 6.7386664897203445 0
      vertex 4.378591038286686 6.7044742330908775 0
      vertex 3.7999999970197678 5 0
    endloop
  endfacet
  facet normal 0 0 -1
    outer loop
      vertex 4.151162579655647 6.765413507819176 0
      vertex 4.265874281525612 6.7386664897203445 0
      vertex 3.7999999970197678 5 0
    endloop
  endfacet
  facet normal 0 0 -1
    outer loop
      vertex 4.034947142004967 6.7846007496118546 0
      vertex 4.151162579655647 6.765413507819176 0
      vertex 3.7999999970197678 5 0
    endloop
  endfacet
  facet normal 0 0 -1
    outer loop
      vertex 3.917725630104542 6.796146064996719 0
      vertex 4.034947142004967 6.7846007496118546 0
      vertex 3.7999999970197678 5 0
    endloop
  endfacet
  facet normal 0 0 -1
    outer loop
      vertex 3.7999999970197678 6.799999997019768 0
      vertex 3.917725630104542 6.796146064996719 0
      vertex 3.7999999970197678 5 0
    endloop
  endfacet
  facet normal 0 0 -1
    outer loop
      vertex -3.7999999970197678 -2.7999999970197678 0
      vertex -5.5999999940395355 -2.7999999970197678 0
      vertex -5.5999999940395355 5 0
    endloop
  endfacet
  facet normal 0 0 -1
    outer loop
      vertex -3.7999999970197678 5 0
      vertex -3.7999999970197678 -2.7999999970197678 0
      vertex -5.5999999940395355 5 0
    endloop
  endfacet
  facet normal 0 0 -1
    outer loop
      vertex -3.7999999970197678 5 0
      vertex -5.5999999940395355 5 0
      vertex -5.596146062016487 5.117725633084774 0
    endloop
  endfacet
  facet normal 0 0 -1
    outer loop
      vertex -3.7999999970197678 5 0
      vertex -5.596146062016487 5.117725633084774 0
      vertex -5.584600746631622 5.234947144985199 0
    endloop
  endfacet
  facet normal 0 0 -1
    outer loop
      vertex -3.7999999970197678 5 0
      vertex -5.584600746631622 5.234947144985199 0
      vertex -5.5654135048389435 5.3511625826358795 0
    endloop
  endfacet
  facet normal 0 0 -1
    outer loop
      vertex -3.7999999970197678 5 0
      vertex -5.5654135048389435 5.3511625826358795 0
      vertex -5.538666486740112 5.465874284505844 0
    endloop
  endfacet
  facet normal 0 0 -1
    outer loop
      vertex -3.7999999970197678 5 0
      vertex -5.538666486740112 5.465874284505844 0
      vertex -5.504474230110645 5.578591041266918 0
    endloop
  endfacet
  facet normal 0 0 -1
    outer loop
      vertex -3.7999999970197678 5 0
      vertex -5.504474230110645 5.578591041266918 0
      vertex -5.462983153760433 5.688830181956291 0
    endloop
  endfacet
  facet normal 0 0 -1
    outer loop
      vertex -3.7999999970197678 5 0
      vertex -5.462983153760433 5.688830181956291 0
      vertex -5.414370931684971 5.796119645237923 0
    endloop
  endfacet
  facet normal 0 0 -1
    outer loop
      vertex -3.7999999970197678 5 0
      vertex -5.414370931684971 5.796119645237923 0
      vertex -5.358845725655556 5.899999998509884 0
    endloop
  endfacet
  facet normal 0 0 -1
    outer loop
      vertex -3.7999999970197678 5 0
      vertex -5.358845725655556 5.899999998509884 0
      vertex -5.296645298600197 6.000026419758797 0
    endloop
  endfacet
  facet normal 0 0 -1
    outer loop
      vertex -3.7999999970197678 5 0
      vertex -5.296645298600197 6.000026419758797 0
      vertex -5.228036008775234 6.095770575106144 0
    endloop
  endfacet
  facet normal 0 0 -1
    outer loop
      vertex -3.7999999970197678 5 0
      vertex -5.228036008775234 6.095770575106144 0
      vertex -5.153311647474766 6.1868224665522575 0
    endloop
  endfacet
  facet normal 0 0 -1
    outer loop
      vertex -3.7999999970197678 5 0
      vertex -5.153311647474766 6.1868224665522575 0
      vertex -5.072792202234268 6.2727922052145 0
    endloop
  endfacet
  facet normal 0 0 -1
    outer loop
      vertex -3.7999999970197678 5 0
      vertex -5.072792202234268 6.2727922052145 0
      vertex -4.986822463572025 6.353311650454998 0
    endloop
  endfacet
  facet normal 0 0 -1
    outer loop
      vertex -3.7999999970197678 5 0
      vertex -4.986822463572025 6.353311650454998 0
      vertex -4.895770572125912 6.4280360117554665 0
    endloop
  endfacet
  facet normal 0 0 -1
    outer loop
      vertex -3.7999999970197678 5 0
      vertex -4.895770572125912 6.4280360117554665 0
      vertex -4.8000264167785645 6.496645301580429 0
    endloop
  endfacet
  facet normal 0 0 -1
    outer loop
      vertex -3.7999999970197678 5 0
      vertex -4.8000264167785645 6.496645301580429 0
      vertex -4.699999995529652 6.558845728635788 0
    endloop
  endfacet
  facet normal 0 0 -1
    outer loop
      vertex -3.7999999970197678 5 0
      vertex -4.699999995529652 6.558845728635788 0
      vertex -4.59611964225769 6.614370934665203 0
    endloop
  endfacet
  facet normal 0 0 -1
    outer loop
      vertex -3.7999999970197678 5 0
      vertex -4.59611964225769 6.614370934665203 0
      vertex -4.488830178976059 6.662983156740665 0
    endloop
  endfacet
  facet normal 0 0 -1
    outer loop
      vertex -3.7999999970197678 5 0
      vertex -4.488830178976059 6.662983156740665 0
      vertex -4.378591038286686 6.7044742330908775 0
    endloop
  endfacet
  facet normal 0 0 -1
    outer loop
      vertex -3.7999999970197678 5 0
      vertex -4.378591038286686 6.7044742330908775 0
      vertex -4.265874281525612 6.7386664897203445 0
    endloop
  endfacet
  facet normal 0 0 -1
    outer loop
      vertex -3.7999999970197678 5 0
      vertex -4.265874281525612 6.7386664897203445 0
      vertex -4.151162579655647 6.765413507819176 0
    endloop
  endfacet
  facet normal 0 0 -1
    outer loop
      vertex -3.7999999970197678 5 0
      vertex -4.151162579655647 6.765413507819176 0
      vertex -4.034947142004967 6.7846007496118546 0
    endloop
  endfacet
  facet normal 0 0 -1
    outer loop
      vertex -3.7999999970197678 5 0
      vertex -4.034947142004967 6.7846007496118546 0
      vertex -3.917725630104542 6.796146064996719 0
    endloop
  endfacet
  facet normal 0 0 -1
    outer loop
      vertex -3.7999999970197678 5 0
      vertex -3.917725630104542 6.796146064996719 0
      vertex -3.7999999970197678 6.799999997019768 0
    endloop
  endfacet
  facet normal 0 0 -1
    outer loop
      vertex 3.7999999970197678 6.799999997019768 0
      vertex 3.7999999970197678 5 0
      vertex -3.7999999970197678 5 0
    endloop
  endfacet
  facet normal 0 0 -1
    outer loop
      vertex -3.7999999970197678 6.799999997019768 0
      vertex 3.7999999970197678 6.799999997019768 0
      vertex -3.7999999970197678 5 0
    endloop
  endfacet
endsolid OpenSCAD_Model
