solid OpenSCAD_Model
  facet normal -0.8492021815265783 0 -0.5280678506503688
    outer loop
      vertex -5.975575286112627 -2.8 1.5499999999999998
      vertex -5.975575286112627 0.20999999999999996 1.5499999999999998
      vertex -5.737140324887562 -2.8 1.166565392164745
    endloop
  endfacet
  facet normal -0.881921264348355 0 -0.47139673682599775
    outer loop
      vertex -5.975575286112627 -2.8 1.5499999999999998
      vertex -6.18842191657555 -2.8 1.9482080374888908
      vertex -6.18842191657555 0.20999999999999996 1.9482080374888908
    endloop
  endfacet
  facet normal -0.881921264348355 0 -0.47139673682599775
    outer loop
      vertex -5.975575286112627 -2.8 1.5499999999999998
      vertex -6.18842191657555 0.20999999999999996 1.9482080374888908
      vertex -5.975575286112627 0.20999999999999996 1.5499999999999998
    endloop
  endfacet
  facet normal -0.7730104533627377 0 -0.6343932841636447
    outer loop
      vertex -5.4741380480095225 -2.8 0.7995461398398271
      vertex -5.4741380480095225 0.20999999999999996 0.7995461398398271
      vertex -5.187694671604945 -2.8 0.4505138758095244
    endloop
  endfacet
  facet normal -0.8128466845916156 0 -0.5824776968678017
    outer loop
      vertex -5.4741380480095225 -2.8 0.7995461398398271
      vertex -5.737140324887562 0.20999999999999996 1.166565392164745
      vertex -5.4741380480095225 0.20999999999999996 0.7995461398398271
    endloop
  endfacet
  facet normal -0.7298640726978349 0 -0.683592302022872
    outer loop
      vertex -5.187694671604945 -2.8 0.4505138758095244
      vertex -5.187694671604945 0.20999999999999996 0.4505138758095244
      vertex -4.879036790187178 -2.8 0.12096320981282194
    endloop
  endfacet
  facet normal -0.6835923020228738 0 -0.7298640726978335
    outer loop
      vertex -4.879036790187178 -2.8 0.12096320981282194
      vertex -4.879036790187178 0.20999999999999996 0.12096320981282194
      vertex -4.8566545988641785 -2.8 0.09999999999999964
    endloop
  endfacet
  facet normal -0.7298640726978349 0 -0.683592302022872
    outer loop
      vertex -4.879036790187178 -2.8 0.12096320981282194
      vertex -5.187694671604945 0.20999999999999996 0.4505138758095244
      vertex -4.879036790187178 0.20999999999999996 0.12096320981282194
    endloop
  endfacet
  facet normal -0.6835923020228738 0 -0.7298640726978335
    outer loop
      vertex -4.8566545988641785 -2.8 0.09999999999999964
      vertex -4.879036790187178 0.20999999999999996 0.12096320981282194
      vertex -4.8566545988641785 0.20999999999999996 0.09999999999999964
    endloop
  endfacet
  facet normal -0.7730104533627377 0 -0.6343932841636447
    outer loop
      vertex -5.4741380480095225 0.20999999999999996 0.7995461398398271
      vertex -5.187694671604945 0.20999999999999996 0.4505138758095244
      vertex -5.187694671604945 -2.8 0.4505138758095244
    endloop
  endfacet
  facet normal -0.8128466845916156 0 -0.5824776968678017
    outer loop
      vertex -5.4741380480095225 -2.8 0.7995461398398271
      vertex -5.737140324887562 -2.8 1.166565392164745
      vertex -5.737140324887562 0.20999999999999996 1.166565392164745
    endloop
  endfacet
  facet normal -0.8492021815265783 0 -0.5280678506503688
    outer loop
      vertex -5.975575286112627 0.20999999999999996 1.5499999999999998
      vertex -5.737140324887562 0.20999999999999996 1.166565392164745
      vertex -5.737140324887562 -2.8 1.166565392164745
    endloop
  endfacet
  facet normal 0 1 0
    outer loop
      vertex -5.975575286112627 0.20999999999999996 1.5499999999999998
      vertex -6.18842191657555 0.20999999999999996 1.9482080374888908
      vertex -2.6 0.20999999999999996 0.09999999999999964
    endloop
  endfacet
  facet normal 0 1 0
    outer loop
      vertex -6.53381789351623 0.20999999999999996 2.782067689408185
      vertex -2.6 0.20999999999999996 0.09999999999999964
      vertex -6.374768774327879 0.20999999999999996 2.3594843166808803
    endloop
  endfacet
  facet normal 0 1 0
    outer loop
      vertex -6.18842191657555 0.20999999999999996 1.9482080374888908
      vertex -6.374768774327879 0.20999999999999996 2.3594843166808803
      vertex -2.6 0.20999999999999996 0.09999999999999964
    endloop
  endfacet
  facet normal -0.9359059267573252 0 -0.35225004792123493
    outer loop
      vertex -6.53381789351623 -2.8 2.782067689408185
      vertex -6.53381789351623 0.20999999999999996 2.782067689408185
      vertex -6.374768774327879 -2.8 2.3594843166808803
    endloop
  endfacet
  facet normal -0.9359059267573252 0 -0.35225004792123493
    outer loop
      vertex -6.53381789351623 0.20999999999999996 2.782067689408185
      vertex -6.374768774327879 0.20999999999999996 2.3594843166808803
      vertex -6.374768774327879 -2.8 2.3594843166808803
    endloop
  endfacet
  facet normal -0.9108638249211759 0 -0.4127070298043942
    outer loop
      vertex -6.18842191657555 -2.8 1.9482080374888908
      vertex -6.374768774327879 -2.8 2.3594843166808803
      vertex -6.374768774327879 0.20999999999999996 2.3594843166808803
    endloop
  endfacet
  facet normal -0.9108638249211759 0 -0.4127070298043942
    outer loop
      vertex -6.18842191657555 -2.8 1.9482080374888908
      vertex -6.374768774327879 0.20999999999999996 2.3594843166808803
      vertex -6.18842191657555 0.20999999999999996 1.9482080374888908
    endloop
  endfacet
  facet normal -0.9738769792773336 0 -0.22707626303437298
    outer loop
      vertex -6.664888201394572 -2.8 3.214148588792607
      vertex -6.76741843478229 0.20999999999999996 3.6538767780887147
      vertex -6.664888201394572 0.20999999999999996 3.214148588792607
    endloop
  endfacet
  facet normal -0.956940335732209 0 -0.29028467725446133
    outer loop
      vertex -6.53381789351623 -2.8 2.782067689408185
      vertex -6.664888201394572 -2.8 3.214148588792607
      vertex -6.664888201394572 0.20999999999999996 3.214148588792607
    endloop
  endfacet
  facet normal -0.956940335732209 0 -0.29028467725446133
    outer loop
      vertex -6.53381789351623 -2.8 2.782067689408185
      vertex -6.664888201394572 0.20999999999999996 3.214148588792607
      vertex -6.53381789351623 0.20999999999999996 2.782067689408185
    endloop
  endfacet
  facet normal -0.9738769792773336 0 -0.22707626303437298
    outer loop
      vertex -6.664888201394572 -2.8 3.214148588792607
      vertex -6.76741843478229 -2.8 3.6538767780887147
      vertex -6.76741843478229 0.20999999999999996 3.6538767780887147
    endloop
  endfacet
  facet normal -0.986643332084879 0 -0.1628954733945888
    outer loop
      vertex -6.76741843478229 -2.8 3.6538767780887147
      vertex -6.840969543479292 0.20999999999999996 4.099369273681644
      vertex -6.76741843478229 0.20999999999999996 3.6538767780887147
    endloop
  endfacet
  facet normal 0 1 0
    outer loop
      vertex -6.664888201394572 0.20999999999999996 3.214148588792607
      vertex -6.76741843478229 0.20999999999999996 3.6538767780887147
      vertex -2.6 0.20999999999999996 0.09999999999999964
    endloop
  endfacet
  facet normal 0 1 0
    outer loop
      vertex -6.76741843478229 0.20999999999999996 3.6538767780887147
      vertex -6.840969543479292 0.20999999999999996 4.099369273681644
      vertex -2.6 0.20999999999999996 0.09999999999999964
    endloop
  endfacet
  facet normal 0 1 0
    outer loop
      vertex -6.53381789351623 0.20999999999999996 2.782067689408185
      vertex -6.664888201394572 0.20999999999999996 3.214148588792607
      vertex -2.6 0.20999999999999996 0.09999999999999964
    endloop
  endfacet
  facet normal 0 1 0
    outer loop
      vertex -6.840969543479292 0.20999999999999996 4.099369273681644
      vertex -6.885226570346364 0.20999999999999996 4.548718408312013
      vertex -2.6 0.20999999999999996 0.09999999999999964
    endloop
  endfacet
  facet normal 0 1 0
    outer loop
      vertex -6.885226570346364 0.20999999999999996 4.548718408312013
      vertex -6.9 0.20999999999999996 5
      vertex -2.6 0.20999999999999996 0.09999999999999964
    endloop
  endfacet
  facet normal 0 1 0
    outer loop
      vertex -6.9 0.20999999999999996 5
      vertex -6.885226570346364 0.20999999999999996 5.451281591687987
      vertex -2.6 0.20999999999999996 0.09999999999999964
    endloop
  endfacet
  facet normal 0 1 0
    outer loop
      vertex -6.885226570346364 0.20999999999999996 5.451281591687987
      vertex -6.840969543479292 0.20999999999999996 5.900630726318356
      vertex -2.6 0.20999999999999996 0.09999999999999964
    endloop
  endfacet
  facet normal 0 1 0
    outer loop
      vertex -5.4741380480095225 0.20999999999999996 0.7995461398398271
      vertex -2.6 0.20999999999999996 0.09999999999999964
      vertex -5.187694671604945 0.20999999999999996 0.4505138758095244
    endloop
  endfacet
  facet normal 0 1 0
    outer loop
      vertex -5.4741380480095225 0.20999999999999996 0.7995461398398271
      vertex -5.737140324887562 0.20999999999999996 1.166565392164745
      vertex -2.6 0.20999999999999996 0.09999999999999964
    endloop
  endfacet
  facet normal 0 1 0
    outer loop
      vertex -5.975575286112627 0.20999999999999996 1.5499999999999998
      vertex -2.6 0.20999999999999996 0.09999999999999964
      vertex -5.737140324887562 0.20999999999999996 1.166565392164745
    endloop
  endfacet
  facet normal 0 1 0
    outer loop
      vertex -5.187694671604945 0.20999999999999996 0.4505138758095244
      vertex -2.6 0.20999999999999996 0.09999999999999964
      vertex -4.879036790187178 0.20999999999999996 0.12096320981282194
    endloop
  endfacet
  facet normal 0 1 0
    outer loop
      vertex -4.879036790187178 0.20999999999999996 0.12096320981282194
      vertex -2.6 0.20999999999999996 0.09999999999999964
      vertex -4.8566545988641785 0.20999999999999996 0.09999999999999964
    endloop
  endfacet
  facet normal -0.986643332084879 0 -0.1628954733945888
    outer loop
      vertex -6.76741843478229 -2.8 3.6538767780887147
      vertex -6.840969543479292 -2.8 4.099369273681644
      vertex -6.840969543479292 0.20999999999999996 4.099369273681644
    endloop
  endfacet
  facet normal -0.9951847266721969 0 -0.09801714032956005
    outer loop
      vertex -6.840969543479292 -2.8 4.099369273681644
      vertex -6.885226570346364 0.20999999999999996 4.548718408312013
      vertex -6.840969543479292 0.20999999999999996 4.099369273681644
    endloop
  endfacet
  facet normal -0.9951847266721969 0 -0.09801714032956005
    outer loop
      vertex -6.840969543479292 -2.8 4.099369273681644
      vertex -6.885226570346364 -2.8 4.548718408312013
      vertex -6.885226570346364 0.20999999999999996 4.548718408312013
    endloop
  endfacet
  facet normal -0.9994645874763656 0 -0.0327190828217769
    outer loop
      vertex -6.885226570346364 -2.8 4.548718408312013
      vertex -6.9 0.20999999999999996 5
      vertex -6.885226570346364 0.20999999999999996 4.548718408312013
    endloop
  endfacet
  facet normal -0.9994645874763656 0 -0.0327190828217769
    outer loop
      vertex -6.885226570346364 -2.8 4.548718408312013
      vertex -6.9 -2.8 5
      vertex -6.9 0.20999999999999996 5
    endloop
  endfacet
  facet normal -0.9994645874763656 0 0.0327190828217769
    outer loop
      vertex -6.9 -2.8 5
      vertex -6.885226570346364 -2.8 5.451281591687987
      vertex -6.885226570346364 0.20999999999999996 5.451281591687987
    endloop
  endfacet
  facet normal -0.9994645874763656 0 0.0327190828217769
    outer loop
      vertex -6.9 -2.8 5
      vertex -6.885226570346364 0.20999999999999996 5.451281591687987
      vertex -6.9 0.20999999999999996 5
    endloop
  endfacet
  facet normal -0.9951847266721969 0 0.09801714032956005
    outer loop
      vertex -6.885226570346364 -2.8 5.451281591687987
      vertex -6.840969543479292 -2.8 5.900630726318356
      vertex -6.840969543479292 0.20999999999999996 5.900630726318356
    endloop
  endfacet
  facet normal -0.9951847266721969 0 0.09801714032956005
    outer loop
      vertex -6.885226570346364 -2.8 5.451281591687987
      vertex -6.840969543479292 0.20999999999999996 5.900630726318356
      vertex -6.885226570346364 0.20999999999999996 5.451281591687987
    endloop
  endfacet
  facet normal 0 1 0
    outer loop
      vertex -6.840969543479292 0.20999999999999996 5.900630726318356
      vertex -6.76741843478229 0.20999999999999996 6.346123221911285
      vertex -2.6 0.20999999999999996 0.09999999999999964
    endloop
  endfacet
  facet normal 0 1 0
    outer loop
      vertex -6.76741843478229 0.20999999999999996 6.346123221911285
      vertex -6.664888201394572 0.20999999999999996 6.785851411207393
      vertex -2.6 0.20999999999999996 0.09999999999999964
    endloop
  endfacet
  facet normal 0 1 0
    outer loop
      vertex -6.664888201394572 0.20999999999999996 6.785851411207393
      vertex -6.53381789351623 0.20999999999999996 7.217932310591815
      vertex -2.6 0.20999999999999996 0.09999999999999964
    endloop
  endfacet
  facet normal 0 1 0
    outer loop
      vertex -6.53381789351623 0.20999999999999996 7.217932310591815
      vertex -6.374768774327879 0.20999999999999996 7.640515683319119
      vertex -2.6 0.20999999999999996 0.09999999999999964
    endloop
  endfacet
  facet normal 0 1 0
    outer loop
      vertex -6.374768774327879 0.20999999999999996 7.640515683319119
      vertex -6.18842191657555 0.20999999999999996 8.051791962511109
      vertex -2.6 0.20999999999999996 0.09999999999999964
    endloop
  endfacet
  facet normal 0 1 0
    outer loop
      vertex -2.6 0.20999999999999996 0.09999999999999964
      vertex -6.18842191657555 0.20999999999999996 8.051791962511109
      vertex -5.975575286112627 0.20999999999999996 8.45
    endloop
  endfacet
  facet normal -0.986643332084879 0 0.1628954733945888
    outer loop
      vertex -6.840969543479292 -2.8 5.900630726318356
      vertex -6.76741843478229 -2.8 6.346123221911285
      vertex -6.76741843478229 0.20999999999999996 6.346123221911285
    endloop
  endfacet
  facet normal -0.986643332084879 0 0.1628954733945888
    outer loop
      vertex -6.840969543479292 -2.8 5.900630726318356
      vertex -6.76741843478229 0.20999999999999996 6.346123221911285
      vertex -6.840969543479292 0.20999999999999996 5.900630726318356
    endloop
  endfacet
  facet normal -0.9738769792773336 0 0.2270762630343732
    outer loop
      vertex -6.76741843478229 -2.8 6.346123221911285
      vertex -6.664888201394572 -2.8 6.785851411207393
      vertex -6.664888201394572 0.20999999999999996 6.785851411207393
    endloop
  endfacet
  facet normal -0.9738769792773336 0 0.2270762630343732
    outer loop
      vertex -6.76741843478229 -2.8 6.346123221911285
      vertex -6.664888201394572 0.20999999999999996 6.785851411207393
      vertex -6.76741843478229 0.20999999999999996 6.346123221911285
    endloop
  endfacet
  facet normal -0.956940335732209 0 0.29028467725446133
    outer loop
      vertex -6.664888201394572 -2.8 6.785851411207393
      vertex -6.53381789351623 -2.8 7.217932310591815
      vertex -6.53381789351623 0.20999999999999996 7.217932310591815
    endloop
  endfacet
  facet normal -0.956940335732209 0 0.29028467725446133
    outer loop
      vertex -6.664888201394572 -2.8 6.785851411207393
      vertex -6.53381789351623 0.20999999999999996 7.217932310591815
      vertex -6.664888201394572 0.20999999999999996 6.785851411207393
    endloop
  endfacet
  facet normal -0.9359059267573252 0 0.35225004792123493
    outer loop
      vertex -6.53381789351623 -2.8 7.217932310591815
      vertex -6.374768774327879 -2.8 7.640515683319119
      vertex -6.374768774327879 0.20999999999999996 7.640515683319119
    endloop
  endfacet
  facet normal -0.9359059267573252 0 0.35225004792123493
    outer loop
      vertex -6.53381789351623 -2.8 7.217932310591815
      vertex -6.374768774327879 0.20999999999999996 7.640515683319119
      vertex -6.53381789351623 0.20999999999999996 7.217932310591815
    endloop
  endfacet
  facet normal 0 1 0
    outer loop
      vertex -2.6 0.20999999999999996 0.09999999999999964
      vertex -5.975575286112627 0.20999999999999996 8.45
      vertex -5.737140324887562 0.20999999999999996 8.833434607835255
    endloop
  endfacet
  facet normal 0 1 0
    outer loop
      vertex -2.6 0.20999999999999996 0.09999999999999964
      vertex -5.737140324887562 0.20999999999999996 8.833434607835255
      vertex -5.4741380480095225 0.20999999999999996 9.200453860160174
    endloop
  endfacet
  facet normal 0 1 0
    outer loop
      vertex -2.6 0.20999999999999996 0.09999999999999964
      vertex -5.4741380480095225 0.20999999999999996 9.200453860160174
      vertex -5.187694671604945 0.20999999999999996 9.549486124190476
    endloop
  endfacet
  facet normal 0 1 0
    outer loop
      vertex -2.6 0.20999999999999996 0.09999999999999964
      vertex -5.187694671604945 0.20999999999999996 9.549486124190476
      vertex -4.879036790187178 0.20999999999999996 9.879036790187179
    endloop
  endfacet
  facet normal 0 1 0
    outer loop
      vertex -2.6 0.20999999999999996 0.09999999999999964
      vertex -4.879036790187178 0.20999999999999996 9.879036790187179
      vertex -4.549486124190476 0.20999999999999996 10.187694671604945
    endloop
  endfacet
  facet normal 0 1 0
    outer loop
      vertex -2.6 0.20999999999999996 0.09999999999999964
      vertex -4.549486124190476 0.20999999999999996 10.187694671604945
      vertex -2.6 0.20999999999999996 10
    endloop
  endfacet
  facet normal 0 -1 0
    outer loop
      vertex -5.4741380480095225 -2.8 0.7995461398398271
      vertex -5.187694671604945 -2.8 0.4505138758095244
      vertex 5.4741380480095225 -2.8 0.7995461398398271
    endloop
  endfacet
  facet normal 0 -1 0
    outer loop
      vertex -5.4741380480095225 -2.8 0.7995461398398271
      vertex 5.737140324887562 -2.8 1.166565392164745
      vertex -5.737140324887562 -2.8 1.166565392164745
    endloop
  endfacet
  facet normal 0 -1 0
    outer loop
      vertex -5.975575286112627 -2.8 1.5499999999999998
      vertex -5.737140324887562 -2.8 1.166565392164745
      vertex 5.975575286112627 -2.8 1.5499999999999998
    endloop
  endfacet
  facet normal 0 -1 0
    outer loop
      vertex -5.975575286112627 -2.8 1.5499999999999998
      vertex 6.18842191657555 -2.8 1.9482080374888908
      vertex -6.18842191657555 -2.8 1.9482080374888908
    endloop
  endfacet
  facet normal 0 -1 0
    outer loop
      vertex -4.879036790187178 -2.8 0.12096320981282194
      vertex -4.8566545988641785 -2.8 0.09999999999999964
      vertex 4.8566545988641785 -2.8 0.09999999999999964
    endloop
  endfacet
  facet normal 0 -1 0
    outer loop
      vertex -5.187694671604945 -2.8 0.4505138758095244
      vertex -4.879036790187178 -2.8 0.12096320981282194
      vertex 5.187694671604945 -2.8 0.4505138758095244
    endloop
  endfacet
  facet normal 0 -1 0
    outer loop
      vertex -6.18842191657555 -2.8 1.9482080374888908
      vertex 6.374768774327879 -2.8 2.3594843166808803
      vertex -6.374768774327879 -2.8 2.3594843166808803
    endloop
  endfacet
  facet normal 0 -1 0
    outer loop
      vertex -6.53381789351623 -2.8 2.782067689408185
      vertex -6.374768774327879 -2.8 2.3594843166808803
      vertex 6.53381789351623 -2.8 2.782067689408185
    endloop
  endfacet
  facet normal 0 -1 0
    outer loop
      vertex -6.53381789351623 -2.8 2.782067689408185
      vertex 6.664888201394572 -2.8 3.214148588792607
      vertex -6.664888201394572 -2.8 3.214148588792607
    endloop
  endfacet
  facet normal 0 -1 0
    outer loop
      vertex -6.664888201394572 -2.8 3.214148588792607
      vertex 6.76741843478229 -2.8 3.6538767780887147
      vertex -6.76741843478229 -2.8 3.6538767780887147
    endloop
  endfacet
  facet normal 0 -1 0
    outer loop
      vertex -6.76741843478229 -2.8 3.6538767780887147
      vertex 6.840969543479292 -2.8 4.099369273681644
      vertex -6.840969543479292 -2.8 4.099369273681644
    endloop
  endfacet
  facet normal 0 -1 0
    outer loop
      vertex -6.840969543479292 -2.8 4.099369273681644
      vertex 6.885226570346364 -2.8 4.548718408312013
      vertex -6.885226570346364 -2.8 4.548718408312013
    endloop
  endfacet
  facet normal 0 -1 0
    outer loop
      vertex -6.885226570346364 -2.8 4.548718408312013
      vertex 6.9 -2.8 5
      vertex -6.9 -2.8 5
    endloop
  endfacet
  facet normal 0 -1 0
    outer loop
      vertex -6.9 -2.8 5
      vertex 6.885226570346364 -2.8 5.451281591687987
      vertex -6.885226570346364 -2.8 5.451281591687987
    endloop
  endfacet
  facet normal 0 -1 0
    outer loop
      vertex -6.885226570346364 -2.8 5.451281591687987
      vertex 6.840969543479292 -2.8 5.900630726318356
      vertex -6.840969543479292 -2.8 5.900630726318356
    endloop
  endfacet
  facet normal 0 -1 0
    outer loop
      vertex -6.840969543479292 -2.8 5.900630726318356
      vertex 6.76741843478229 -2.8 6.346123221911285
      vertex -6.76741843478229 -2.8 6.346123221911285
    endloop
  endfacet
  facet normal 0 -1 0
    outer loop
      vertex -6.76741843478229 -2.8 6.346123221911285
      vertex 6.664888201394572 -2.8 6.785851411207393
      vertex -6.664888201394572 -2.8 6.785851411207393
    endloop
  endfacet
  facet normal 0 -1 0
    outer loop
      vertex -6.664888201394572 -2.8 6.785851411207393
      vertex 6.53381789351623 -2.8 7.217932310591815
      vertex -6.53381789351623 -2.8 7.217932310591815
    endloop
  endfacet
  facet normal 0 -1 0
    outer loop
      vertex -6.53381789351623 -2.8 7.217932310591815
      vertex 6.374768774327879 -2.8 7.640515683319119
      vertex -6.374768774327879 -2.8 7.640515683319119
    endloop
  endfacet
  facet normal -0.9108638249211759 0 0.4127070298043942
    outer loop
      vertex -6.374768774327879 -2.8 7.640515683319119
      vertex -6.18842191657555 -2.8 8.051791962511109
      vertex -6.18842191657555 0.20999999999999996 8.051791962511109
    endloop
  endfacet
  facet normal -0.9108638249211759 0 0.4127070298043942
    outer loop
      vertex -6.374768774327879 -2.8 7.640515683319119
      vertex -6.18842191657555 0.20999999999999996 8.051791962511109
      vertex -6.374768774327879 0.20999999999999996 7.640515683319119
    endloop
  endfacet
  facet normal -0.8819212643483547 0 0.47139673682599814
    outer loop
      vertex -6.18842191657555 -2.8 8.051791962511109
      vertex -5.975575286112627 0.20999999999999996 8.45
      vertex -6.18842191657555 0.20999999999999996 8.051791962511109
    endloop
  endfacet
  facet normal -0.8819212643483547 0 0.47139673682599814
    outer loop
      vertex -6.18842191657555 -2.8 8.051791962511109
      vertex -5.975575286112627 -2.8 8.45
      vertex -5.975575286112627 0.20999999999999996 8.45
    endloop
  endfacet
  facet normal -0.8492021815265787 0 0.5280678506503683
    outer loop
      vertex -5.975575286112627 -2.8 8.45
      vertex -5.737140324887562 0.20999999999999996 8.833434607835255
      vertex -5.975575286112627 0.20999999999999996 8.45
    endloop
  endfacet
  facet normal -0.8492021815265787 0 0.5280678506503683
    outer loop
      vertex -5.975575286112627 -2.8 8.45
      vertex -5.737140324887562 -2.8 8.833434607835255
      vertex -5.737140324887562 0.20999999999999996 8.833434607835255
    endloop
  endfacet
  facet normal -0.8128466845916165 0 0.5824776968678003
    outer loop
      vertex -5.737140324887562 -2.8 8.833434607835255
      vertex -5.4741380480095225 0.20999999999999996 9.200453860160174
      vertex -5.737140324887562 0.20999999999999996 8.833434607835255
    endloop
  endfacet
  facet normal -0.8128466845916165 0 0.5824776968678003
    outer loop
      vertex -5.737140324887562 -2.8 8.833434607835255
      vertex -5.4741380480095225 -2.8 9.200453860160174
      vertex -5.4741380480095225 0.20999999999999996 9.200453860160174
    endloop
  endfacet
  facet normal -0.7730104533627377 0 0.6343932841636447
    outer loop
      vertex -5.4741380480095225 -2.8 9.200453860160174
      vertex -5.187694671604945 0.20999999999999996 9.549486124190476
      vertex -5.4741380480095225 0.20999999999999996 9.200453860160174
    endloop
  endfacet
  facet normal -0.7730104533627377 0 0.6343932841636447
    outer loop
      vertex -5.4741380480095225 -2.8 9.200453860160174
      vertex -5.187694671604945 -2.8 9.549486124190476
      vertex -5.187694671604945 0.20999999999999996 9.549486124190476
    endloop
  endfacet
  facet normal -0.7298640726978349 0 0.683592302022872
    outer loop
      vertex -5.187694671604945 -2.8 9.549486124190476
      vertex -4.879036790187178 0.20999999999999996 9.879036790187179
      vertex -5.187694671604945 0.20999999999999996 9.549486124190476
    endloop
  endfacet
  facet normal -0.7298640726978349 0 0.683592302022872
    outer loop
      vertex -5.187694671604945 -2.8 9.549486124190476
      vertex -4.879036790187178 -2.8 9.879036790187179
      vertex -4.879036790187178 0.20999999999999996 9.879036790187179
    endloop
  endfacet
  facet normal -0.683592302022871 0 0.7298640726978359
    outer loop
      vertex -4.879036790187178 -2.8 9.879036790187179
      vertex -4.549486124190476 -2.8 10.187694671604945
      vertex -4.879036790187178 0.20999999999999996 9.879036790187179
    endloop
  endfacet
  facet normal -0.683592302022871 0 0.7298640726978359
    outer loop
      vertex -4.879036790187178 0.20999999999999996 9.879036790187179
      vertex -4.549486124190476 -2.8 10.187694671604945
      vertex -4.549486124190476 0.20999999999999996 10.187694671604945
    endloop
  endfacet
  facet normal -0.6343932841636435 0 0.7730104533627387
    outer loop
      vertex -4.549486124190476 -2.8 10.187694671604945
      vertex -4.200453860160173 -2.8 10.474138048009522
      vertex -4.549486124190476 0.20999999999999996 10.187694671604945
    endloop
  endfacet
  facet normal -0.6343932841636435 0 0.7730104533627387
    outer loop
      vertex -4.549486124190476 0.20999999999999996 10.187694671604945
      vertex -4.200453860160173 -2.8 10.474138048009522
      vertex -4.200453860160173 0.20999999999999996 10.474138048009522
    endloop
  endfacet
  facet normal -0.582477696867803 0 0.8128466845916146
    outer loop
      vertex -4.200453860160173 -2.8 10.474138048009522
      vertex -3.833434607835255 -2.8 10.737140324887562
      vertex -4.200453860160173 0.20999999999999996 10.474138048009522
    endloop
  endfacet
  facet normal -0.582477696867803 0 0.8128466845916146
    outer loop
      vertex -4.200453860160173 0.20999999999999996 10.474138048009522
      vertex -3.833434607835255 -2.8 10.737140324887562
      vertex -3.833434607835255 0.20999999999999996 10.737140324887562
    endloop
  endfacet
  facet normal -0.5280678506503673 0 0.8492021815265793
    outer loop
      vertex -3.833434607835255 -2.8 10.737140324887562
      vertex -3.45 -2.8 10.975575286112626
      vertex -3.833434607835255 0.20999999999999996 10.737140324887562
    endloop
  endfacet
  facet normal -0.5280678506503673 0 0.8492021815265793
    outer loop
      vertex -3.833434607835255 0.20999999999999996 10.737140324887562
      vertex -3.45 -2.8 10.975575286112626
      vertex -3.45 0.20999999999999996 10.975575286112626
    endloop
  endfacet
  facet normal -0.47139673682599925 0 0.8819212643483542
    outer loop
      vertex -3.45 -2.8 10.975575286112626
      vertex -3.051791962511109 -2.8 11.18842191657555
      vertex -3.45 0.20999999999999996 10.975575286112626
    endloop
  endfacet
  facet normal -0.47139673682599925 0 0.8819212643483542
    outer loop
      vertex -3.45 0.20999999999999996 10.975575286112626
      vertex -3.051791962511109 -2.8 11.18842191657555
      vertex -3.051791962511109 0.20999999999999996 11.18842191657555
    endloop
  endfacet
  facet normal -0.4127070298043959 0 0.9108638249211753
    outer loop
      vertex -3.051791962511109 -2.8 11.18842191657555
      vertex -2.6405156833191197 -2.8 11.37476877432788
      vertex -3.051791962511109 0.20999999999999996 11.18842191657555
    endloop
  endfacet
  facet normal -0.4127070298043959 0 0.9108638249211753
    outer loop
      vertex -3.051791962511109 0.20999999999999996 11.18842191657555
      vertex -2.6405156833191197 -2.8 11.37476877432788
      vertex -2.6405156833191197 0.20999999999999996 11.37476877432788
    endloop
  endfacet
  facet normal 0 -1 0
    outer loop
      vertex -6.374768774327879 -2.8 7.640515683319119
      vertex 6.18842191657555 -2.8 8.051791962511109
      vertex -6.18842191657555 -2.8 8.051791962511109
    endloop
  endfacet
  facet normal 0 -1 0
    outer loop
      vertex -6.18842191657555 -2.8 8.051791962511109
      vertex 5.975575286112627 -2.8 8.45
      vertex -5.975575286112627 -2.8 8.45
    endloop
  endfacet
  facet normal 0 -1 0
    outer loop
      vertex -5.975575286112627 -2.8 8.45
      vertex 5.737140324887562 -2.8 8.833434607835255
      vertex -5.737140324887562 -2.8 8.833434607835255
    endloop
  endfacet
  facet normal 0 -1 0
    outer loop
      vertex -5.737140324887562 -2.8 8.833434607835255
      vertex 5.4741380480095225 -2.8 9.200453860160174
      vertex -5.4741380480095225 -2.8 9.200453860160174
    endloop
  endfacet
  facet normal 0 -1 0
    outer loop
      vertex -5.4741380480095225 -2.8 9.200453860160174
      vertex 5.187694671604945 -2.8 9.549486124190476
      vertex -5.187694671604945 -2.8 9.549486124190476
    endloop
  endfacet
  facet normal 0 -1 0
    outer loop
      vertex -5.187694671604945 -2.8 9.549486124190476
      vertex 4.879036790187178 -2.8 9.879036790187179
      vertex -4.879036790187178 -2.8 9.879036790187179
    endloop
  endfacet
  facet normal -0.3522500479212315 0 0.9359059267573264
    outer loop
      vertex -2.6405156833191197 -2.8 11.37476877432788
      vertex -2.217932310591815 -2.8 11.533817893516229
      vertex -2.6405156833191197 0.20999999999999996 11.37476877432788
    endloop
  endfacet
  facet normal -0.3522500479212315 0 0.9359059267573264
    outer loop
      vertex -2.217932310591815 -2.8 11.533817893516229
      vertex -2.217932310591815 0.20999999999999996 11.533817893516229
      vertex -2.6405156833191197 0.20999999999999996 11.37476877432788
    endloop
  endfacet
  facet normal -0.29028467725446316 0 0.9569403357322086
    outer loop
      vertex -2.217932310591815 -2.8 11.533817893516229
      vertex -1.785851411207393 -2.8 11.664888201394572
      vertex -2.217932310591815 0.20999999999999996 11.533817893516229
    endloop
  endfacet
  facet normal 0 -1 0
    outer loop
      vertex -4.879036790187178 -2.8 9.879036790187179
      vertex 4.549486124190476 -2.8 10.187694671604945
      vertex -4.549486124190476 -2.8 10.187694671604945
    endloop
  endfacet
  facet normal 0 -1 0
    outer loop
      vertex -4.549486124190476 -2.8 10.187694671604945
      vertex 4.200453860160173 -2.8 10.474138048009522
      vertex -4.200453860160173 -2.8 10.474138048009522
    endloop
  endfacet
  facet normal 0 1 0
    outer loop
      vertex -4.549486124190476 0.20999999999999996 10.187694671604945
      vertex 2.6 0.20999999999999996 10
      vertex -2.6 0.20999999999999996 10
    endloop
  endfacet
  facet normal 0 1 0
    outer loop
      vertex -4.549486124190476 0.20999999999999996 10.187694671604945
      vertex -4.200453860160173 0.20999999999999996 10.474138048009522
      vertex 4.549486124190476 0.20999999999999996 10.187694671604945
    endloop
  endfacet
  facet normal 0 1 0
    outer loop
      vertex -4.200453860160173 0.20999999999999996 10.474138048009522
      vertex -3.833434607835255 0.20999999999999996 10.737140324887562
      vertex 4.200453860160173 0.20999999999999996 10.474138048009522
    endloop
  endfacet
  facet normal 0 -1 0
    outer loop
      vertex -4.200453860160173 -2.8 10.474138048009522
      vertex 3.833434607835255 -2.8 10.737140324887562
      vertex -3.833434607835255 -2.8 10.737140324887562
    endloop
  endfacet
  facet normal 0 -1 0
    outer loop
      vertex -3.833434607835255 -2.8 10.737140324887562
      vertex 3.45 -2.8 10.975575286112626
      vertex -3.45 -2.8 10.975575286112626
    endloop
  endfacet
  facet normal 0 -1 0
    outer loop
      vertex -3.45 -2.8 10.975575286112626
      vertex 3.051791962511109 -2.8 11.18842191657555
      vertex -3.051791962511109 -2.8 11.18842191657555
    endloop
  endfacet
  facet normal 0 1 0
    outer loop
      vertex -3.833434607835255 0.20999999999999996 10.737140324887562
      vertex -3.45 0.20999999999999996 10.975575286112626
      vertex 3.833434607835255 0.20999999999999996 10.737140324887562
    endloop
  endfacet
  facet normal 0 -1 0
    outer loop
      vertex -3.051791962511109 -2.8 11.18842191657555
      vertex 2.6405156833191197 -2.8 11.37476877432788
      vertex -2.6405156833191197 -2.8 11.37476877432788
    endloop
  endfacet
  facet normal 0 -1 0
    outer loop
      vertex -2.6405156833191197 -2.8 11.37476877432788
      vertex 2.217932310591815 -2.8 11.533817893516229
      vertex -2.217932310591815 -2.8 11.533817893516229
    endloop
  endfacet
  facet normal 0 1 0
    outer loop
      vertex -3.45 0.20999999999999996 10.975575286112626
      vertex -3.051791962511109 0.20999999999999996 11.18842191657555
      vertex 3.45 0.20999999999999996 10.975575286112626
    endloop
  endfacet
  facet normal 0 1 0
    outer loop
      vertex -3.051791962511109 0.20999999999999996 11.18842191657555
      vertex -2.6405156833191197 0.20999999999999996 11.37476877432788
      vertex 3.051791962511109 0.20999999999999996 11.18842191657555
    endloop
  endfacet
  facet normal 0 1 0
    outer loop
      vertex -2.6405156833191197 0.20999999999999996 11.37476877432788
      vertex -2.217932310591815 0.20999999999999996 11.533817893516229
      vertex 2.6405156833191197 0.20999999999999996 11.37476877432788
    endloop
  endfacet
  facet normal 0 1 0
    outer loop
      vertex -2.217932310591815 0.20999999999999996 11.533817893516229
      vertex -1.785851411207393 0.20999999999999996 11.664888201394572
      vertex 2.217932310591815 0.20999999999999996 11.533817893516229
    endloop
  endfacet
  facet normal 0 1 0
    outer loop
      vertex -4.549486124190476 0.20999999999999996 10.187694671604945
      vertex 4.549486124190476 0.20999999999999996 10.187694671604945
      vertex 2.6 0.20999999999999996 10
    endloop
  endfacet
  facet normal 0 -1 0
    outer loop
      vertex -4.549486124190476 -2.8 10.187694671604945
      vertex 4.549486124190476 -2.8 10.187694671604945
      vertex 4.200453860160173 -2.8 10.474138048009522
    endloop
  endfacet
  facet normal 0 -1 0
    outer loop
      vertex -4.200453860160173 -2.8 10.474138048009522
      vertex 4.200453860160173 -2.8 10.474138048009522
      vertex 3.833434607835255 -2.8 10.737140324887562
    endloop
  endfacet
  facet normal 0 -1 0
    outer loop
      vertex -2.217932310591815 -2.8 11.533817893516229
      vertex 2.217932310591815 -2.8 11.533817893516229
      vertex 1.785851411207393 -2.8 11.664888201394572
    endloop
  endfacet
  facet normal 0 -1 0
    outer loop
      vertex -3.051791962511109 -2.8 11.18842191657555
      vertex 3.051791962511109 -2.8 11.18842191657555
      vertex 2.6405156833191197 -2.8 11.37476877432788
    endloop
  endfacet
  facet normal 0 -1 0
    outer loop
      vertex -2.6405156833191197 -2.8 11.37476877432788
      vertex 2.6405156833191197 -2.8 11.37476877432788
      vertex 2.217932310591815 -2.8 11.533817893516229
    endloop
  endfacet
  facet normal 0 1 0
    outer loop
      vertex -2.217932310591815 0.20999999999999996 11.533817893516229
      vertex 2.217932310591815 0.20999999999999996 11.533817893516229
      vertex 2.6405156833191197 0.20999999999999996 11.37476877432788
    endloop
  endfacet
  facet normal 0 -1 0
    outer loop
      vertex -3.833434607835255 -2.8 10.737140324887562
      vertex 3.833434607835255 -2.8 10.737140324887562
      vertex 3.45 -2.8 10.975575286112626
    endloop
  endfacet
  facet normal 0 -1 0
    outer loop
      vertex -3.45 -2.8 10.975575286112626
      vertex 3.45 -2.8 10.975575286112626
      vertex 3.051791962511109 -2.8 11.18842191657555
    endloop
  endfacet
  facet normal 0 1 0
    outer loop
      vertex -3.051791962511109 0.20999999999999996 11.18842191657555
      vertex 3.051791962511109 0.20999999999999996 11.18842191657555
      vertex 3.45 0.20999999999999996 10.975575286112626
    endloop
  endfacet
  facet normal 0 1 0
    outer loop
      vertex -3.833434607835255 0.20999999999999996 10.737140324887562
      vertex 3.833434607835255 0.20999999999999996 10.737140324887562
      vertex 4.200453860160173 0.20999999999999996 10.474138048009522
    endloop
  endfacet
  facet normal 0 1 0
    outer loop
      vertex -3.45 0.20999999999999996 10.975575286112626
      vertex 3.45 0.20999999999999996 10.975575286112626
      vertex 3.833434607835255 0.20999999999999996 10.737140324887562
    endloop
  endfacet
  facet normal 0 1 0
    outer loop
      vertex -2.6405156833191197 0.20999999999999996 11.37476877432788
      vertex 2.6405156833191197 0.20999999999999996 11.37476877432788
      vertex 3.051791962511109 0.20999999999999996 11.18842191657555
    endloop
  endfacet
  facet normal -0.29028467725446316 0 0.9569403357322086
    outer loop
      vertex -2.217932310591815 0.20999999999999996 11.533817893516229
      vertex -1.785851411207393 -2.8 11.664888201394572
      vertex -1.785851411207393 0.20999999999999996 11.664888201394572
    endloop
  endfacet
  facet normal -0.227076263034371 0 0.9738769792773342
    outer loop
      vertex -1.785851411207393 -2.8 11.664888201394572
      vertex -1.346123221911285 -2.8 11.76741843478229
      vertex -1.785851411207393 0.20999999999999996 11.664888201394572
    endloop
  endfacet
  facet normal -0.227076263034371 0 0.9738769792773342
    outer loop
      vertex -1.785851411207393 0.20999999999999996 11.664888201394572
      vertex -1.346123221911285 -2.8 11.76741843478229
      vertex -1.346123221911285 0.20999999999999996 11.76741843478229
    endloop
  endfacet
  facet normal -0.1628954733945926 0 0.9866433320848783
    outer loop
      vertex -1.346123221911285 -2.8 11.76741843478229
      vertex -0.900630726318356 -2.8 11.840969543479293
      vertex -1.346123221911285 0.20999999999999996 11.76741843478229
    endloop
  endfacet
  facet normal -0.1628954733945926 0 0.9866433320848783
    outer loop
      vertex -1.346123221911285 0.20999999999999996 11.76741843478229
      vertex -0.900630726318356 -2.8 11.840969543479293
      vertex -0.900630726318356 0.20999999999999996 11.840969543479293
    endloop
  endfacet
  facet normal 0 -1 0
    outer loop
      vertex -2.217932310591815 -2.8 11.533817893516229
      vertex 1.785851411207393 -2.8 11.664888201394572
      vertex -1.785851411207393 -2.8 11.664888201394572
    endloop
  endfacet
  facet normal -0.09801714032956005 0 0.9951847266721969
    outer loop
      vertex -0.900630726318356 -2.8 11.840969543479293
      vertex -0.45128159168798715 -2.8 11.885226570346365
      vertex -0.900630726318356 0.20999999999999996 11.840969543479293
    endloop
  endfacet
  facet normal -0.09801714032956005 0 0.9951847266721969
    outer loop
      vertex -0.900630726318356 0.20999999999999996 11.840969543479293
      vertex -0.45128159168798715 -2.8 11.885226570346365
      vertex -0.45128159168798715 0.20999999999999996 11.885226570346365
    endloop
  endfacet
  facet normal 0 -1 0
    outer loop
      vertex -1.785851411207393 -2.8 11.664888201394572
      vertex 1.346123221911285 -2.8 11.76741843478229
      vertex -1.346123221911285 -2.8 11.76741843478229
    endloop
  endfacet
  facet normal 0 -1 0
    outer loop
      vertex -1.346123221911285 -2.8 11.76741843478229
      vertex 0.900630726318356 -2.8 11.840969543479293
      vertex -0.900630726318356 -2.8 11.840969543479293
    endloop
  endfacet
  facet normal 0 -1 0
    outer loop
      vertex -0.900630726318356 -2.8 11.840969543479293
      vertex 0.45128159168798715 -2.8 11.885226570346365
      vertex -0.45128159168798715 -2.8 11.885226570346365
    endloop
  endfacet
  facet normal -0.03271908282177494 0 0.9994645874763656
    outer loop
      vertex -0.45128159168798715 -2.8 11.885226570346365
      vertex 0 -2.8 11.9
      vertex -0.45128159168798715 0.20999999999999996 11.885226570346365
    endloop
  endfacet
  facet normal -0.03271908282177494 0 0.9994645874763656
    outer loop
      vertex -0.45128159168798715 0.20999999999999996 11.885226570346365
      vertex 0 -2.8 11.9
      vertex 0 0.20999999999999996 11.9
    endloop
  endfacet
  facet normal 0 1 0
    outer loop
      vertex -1.785851411207393 0.20999999999999996 11.664888201394572
      vertex -1.346123221911285 0.20999999999999996 11.76741843478229
      vertex 1.785851411207393 0.20999999999999996 11.664888201394572
    endloop
  endfacet
  facet normal 0 1 0
    outer loop
      vertex -1.346123221911285 0.20999999999999996 11.76741843478229
      vertex -0.900630726318356 0.20999999999999996 11.840969543479293
      vertex 1.346123221911285 0.20999999999999996 11.76741843478229
    endloop
  endfacet
  facet normal 0 1 0
    outer loop
      vertex -0.900630726318356 0.20999999999999996 11.840969543479293
      vertex -0.45128159168798715 0.20999999999999996 11.885226570346365
      vertex 0.900630726318356 0.20999999999999996 11.840969543479293
    endloop
  endfacet
  facet normal 0 -1 0
    outer loop
      vertex -0.900630726318356 -2.8 11.840969543479293
      vertex 0.900630726318356 -2.8 11.840969543479293
      vertex 0.45128159168798715 -2.8 11.885226570346365
    endloop
  endfacet
  facet normal 0 -1 0
    outer loop
      vertex -0.45128159168798715 -2.8 11.885226570346365
      vertex 0.45128159168798715 -2.8 11.885226570346365
      vertex 0 -2.8 11.9
    endloop
  endfacet
  facet normal 0.03271908282177494 0 0.9994645874763656
    outer loop
      vertex 0 -2.8 11.9
      vertex 0.45128159168798715 -2.8 11.885226570346365
      vertex 0 0.20999999999999996 11.9
    endloop
  endfacet
  facet normal 0 -1 0
    outer loop
      vertex -1.346123221911285 -2.8 11.76741843478229
      vertex 1.346123221911285 -2.8 11.76741843478229
      vertex 0.900630726318356 -2.8 11.840969543479293
    endloop
  endfacet
  facet normal 0 -1 0
    outer loop
      vertex -1.785851411207393 -2.8 11.664888201394572
      vertex 1.785851411207393 -2.8 11.664888201394572
      vertex 1.346123221911285 -2.8 11.76741843478229
    endloop
  endfacet
  facet normal 0.03271908282177494 0 0.9994645874763656
    outer loop
      vertex 0 0.20999999999999996 11.9
      vertex 0.45128159168798715 -2.8 11.885226570346365
      vertex 0.45128159168798715 0.20999999999999996 11.885226570346365
    endloop
  endfacet
  facet normal 0 1 0
    outer loop
      vertex -0.45128159168798715 0.20999999999999996 11.885226570346365
      vertex 0 0.20999999999999996 11.9
      vertex 0.45128159168798715 0.20999999999999996 11.885226570346365
    endloop
  endfacet
  facet normal 0 1 0
    outer loop
      vertex -0.900630726318356 0.20999999999999996 11.840969543479293
      vertex 0.900630726318356 0.20999999999999996 11.840969543479293
      vertex 1.346123221911285 0.20999999999999996 11.76741843478229
    endloop
  endfacet
  facet normal 0 1 0
    outer loop
      vertex -0.45128159168798715 0.20999999999999996 11.885226570346365
      vertex 0.45128159168798715 0.20999999999999996 11.885226570346365
      vertex 0.900630726318356 0.20999999999999996 11.840969543479293
    endloop
  endfacet
  facet normal 0.09801714032956005 0 0.9951847266721969
    outer loop
      vertex 0.45128159168798715 -2.8 11.885226570346365
      vertex 0.900630726318356 -2.8 11.840969543479293
      vertex 0.45128159168798715 0.20999999999999996 11.885226570346365
    endloop
  endfacet
  facet normal 0.09801714032956005 0 0.9951847266721969
    outer loop
      vertex 0.900630726318356 -2.8 11.840969543479293
      vertex 0.900630726318356 0.20999999999999996 11.840969543479293
      vertex 0.45128159168798715 0.20999999999999996 11.885226570346365
    endloop
  endfacet
  facet normal 0 1 0
    outer loop
      vertex -1.346123221911285 0.20999999999999996 11.76741843478229
      vertex 1.346123221911285 0.20999999999999996 11.76741843478229
      vertex 1.785851411207393 0.20999999999999996 11.664888201394572
    endloop
  endfacet
  facet normal 0 1 0
    outer loop
      vertex -1.785851411207393 0.20999999999999996 11.664888201394572
      vertex 1.785851411207393 0.20999999999999996 11.664888201394572
      vertex 2.217932310591815 0.20999999999999996 11.533817893516229
    endloop
  endfacet
  facet normal 0.1628954733945926 0 0.9866433320848783
    outer loop
      vertex 0.900630726318356 -2.8 11.840969543479293
      vertex 1.346123221911285 -2.8 11.76741843478229
      vertex 0.900630726318356 0.20999999999999996 11.840969543479293
    endloop
  endfacet
  facet normal 0.1628954733945926 0 0.9866433320848783
    outer loop
      vertex 0.900630726318356 0.20999999999999996 11.840969543479293
      vertex 1.346123221911285 -2.8 11.76741843478229
      vertex 1.346123221911285 0.20999999999999996 11.76741843478229
    endloop
  endfacet
  facet normal 0.227076263034371 0 0.9738769792773342
    outer loop
      vertex 1.346123221911285 -2.8 11.76741843478229
      vertex 1.785851411207393 -2.8 11.664888201394572
      vertex 1.346123221911285 0.20999999999999996 11.76741843478229
    endloop
  endfacet
  facet normal 0 -1 0
    outer loop
      vertex -4.879036790187178 -2.8 0.12096320981282194
      vertex 4.8566545988641785 -2.8 0.09999999999999964
      vertex 4.879036790187178 -2.8 0.12096320981282194
    endloop
  endfacet
  facet normal 0 -1 0
    outer loop
      vertex -4.879036790187178 -2.8 0.12096320981282194
      vertex 4.879036790187178 -2.8 0.12096320981282194
      vertex 5.187694671604945 -2.8 0.4505138758095244
    endloop
  endfacet
  facet normal 0 -1 0
    outer loop
      vertex -5.187694671604945 -2.8 0.4505138758095244
      vertex 5.187694671604945 -2.8 0.4505138758095244
      vertex 5.4741380480095225 -2.8 0.7995461398398271
    endloop
  endfacet
  facet normal 0 -1 0
    outer loop
      vertex -5.4741380480095225 -2.8 0.7995461398398271
      vertex 5.4741380480095225 -2.8 0.7995461398398271
      vertex 5.737140324887562 -2.8 1.166565392164745
    endloop
  endfacet
  facet normal 0 -1 0
    outer loop
      vertex -5.737140324887562 -2.8 1.166565392164745
      vertex 5.737140324887562 -2.8 1.166565392164745
      vertex 5.975575286112627 -2.8 1.5499999999999998
    endloop
  endfacet
  facet normal 0 -1 0
    outer loop
      vertex -5.975575286112627 -2.8 1.5499999999999998
      vertex 5.975575286112627 -2.8 1.5499999999999998
      vertex 6.18842191657555 -2.8 1.9482080374888908
    endloop
  endfacet
  facet normal 0 -1 0
    outer loop
      vertex -6.18842191657555 -2.8 1.9482080374888908
      vertex 6.18842191657555 -2.8 1.9482080374888908
      vertex 6.374768774327879 -2.8 2.3594843166808803
    endloop
  endfacet
  facet normal 0 -1 0
    outer loop
      vertex -6.374768774327879 -2.8 2.3594843166808803
      vertex 6.374768774327879 -2.8 2.3594843166808803
      vertex 6.53381789351623 -2.8 2.782067689408185
    endloop
  endfacet
  facet normal 0 -1 0
    outer loop
      vertex -6.53381789351623 -2.8 2.782067689408185
      vertex 6.53381789351623 -2.8 2.782067689408185
      vertex 6.664888201394572 -2.8 3.214148588792607
    endloop
  endfacet
  facet normal 0 -1 0
    outer loop
      vertex -6.664888201394572 -2.8 3.214148588792607
      vertex 6.664888201394572 -2.8 3.214148588792607
      vertex 6.76741843478229 -2.8 3.6538767780887147
    endloop
  endfacet
  facet normal 0 -1 0
    outer loop
      vertex -6.76741843478229 -2.8 3.6538767780887147
      vertex 6.76741843478229 -2.8 3.6538767780887147
      vertex 6.840969543479292 -2.8 4.099369273681644
    endloop
  endfacet
  facet normal 0 1 0
    outer loop
      vertex 2.6 0.20999999999999996 0.09999999999999964
      vertex 4.879036790187178 0.20999999999999996 0.12096320981282194
      vertex 4.8566545988641785 0.20999999999999996 0.09999999999999964
    endloop
  endfacet
  facet normal 0 1 0
    outer loop
      vertex 2.6 0.20999999999999996 0.09999999999999964
      vertex 5.187694671604945 0.20999999999999996 0.4505138758095244
      vertex 4.879036790187178 0.20999999999999996 0.12096320981282194
    endloop
  endfacet
  facet normal 0 1 0
    outer loop
      vertex 2.6 0.20999999999999996 0.09999999999999964
      vertex 5.4741380480095225 0.20999999999999996 0.7995461398398271
      vertex 5.187694671604945 0.20999999999999996 0.4505138758095244
    endloop
  endfacet
  facet normal 0 1 0
    outer loop
      vertex 2.6 0.20999999999999996 0.09999999999999964
      vertex 5.737140324887562 0.20999999999999996 1.166565392164745
      vertex 5.4741380480095225 0.20999999999999996 0.7995461398398271
    endloop
  endfacet
  facet normal 0.6835923020228738 0 -0.7298640726978335
    outer loop
      vertex 4.8566545988641785 -2.8 0.09999999999999964
      vertex 4.8566545988641785 0.20999999999999996 0.09999999999999964
      vertex 4.879036790187178 -2.8 0.12096320981282194
    endloop
  endfacet
  facet normal 0.6835923020228738 0 -0.7298640726978335
    outer loop
      vertex 4.879036790187178 -2.8 0.12096320981282194
      vertex 4.8566545988641785 0.20999999999999996 0.09999999999999964
      vertex 4.879036790187178 0.20999999999999996 0.12096320981282194
    endloop
  endfacet
  facet normal 0.7298640726978349 0 -0.683592302022872
    outer loop
      vertex 4.879036790187178 -2.8 0.12096320981282194
      vertex 4.879036790187178 0.20999999999999996 0.12096320981282194
      vertex 5.187694671604945 -2.8 0.4505138758095244
    endloop
  endfacet
  facet normal 0.7298640726978349 0 -0.683592302022872
    outer loop
      vertex 4.879036790187178 0.20999999999999996 0.12096320981282194
      vertex 5.187694671604945 0.20999999999999996 0.4505138758095244
      vertex 5.187694671604945 -2.8 0.4505138758095244
    endloop
  endfacet
  facet normal 0 1 0
    outer loop
      vertex 2.6 0.20999999999999996 0.09999999999999964
      vertex 5.975575286112627 0.20999999999999996 1.5499999999999998
      vertex 5.737140324887562 0.20999999999999996 1.166565392164745
    endloop
  endfacet
  facet normal 0.7730104533627377 0 -0.6343932841636447
    outer loop
      vertex 5.187694671604945 -2.8 0.4505138758095244
      vertex 5.187694671604945 0.20999999999999996 0.4505138758095244
      vertex 5.4741380480095225 -2.8 0.7995461398398271
    endloop
  endfacet
  facet normal 0.7730104533627377 0 -0.6343932841636447
    outer loop
      vertex 5.4741380480095225 -2.8 0.7995461398398271
      vertex 5.187694671604945 0.20999999999999996 0.4505138758095244
      vertex 5.4741380480095225 0.20999999999999996 0.7995461398398271
    endloop
  endfacet
  facet normal 0.8128466845916156 0 -0.5824776968678017
    outer loop
      vertex 5.4741380480095225 -2.8 0.7995461398398271
      vertex 5.4741380480095225 0.20999999999999996 0.7995461398398271
      vertex 5.737140324887562 -2.8 1.166565392164745
    endloop
  endfacet
  facet normal 0 1 0
    outer loop
      vertex 2.6 0.20999999999999996 0.09999999999999964
      vertex 6.18842191657555 0.20999999999999996 1.9482080374888908
      vertex 5.975575286112627 0.20999999999999996 1.5499999999999998
    endloop
  endfacet
  facet normal 0 1 0
    outer loop
      vertex 2.6 0.20999999999999996 0.09999999999999964
      vertex 6.374768774327879 0.20999999999999996 2.3594843166808803
      vertex 6.18842191657555 0.20999999999999996 1.9482080374888908
    endloop
  endfacet
  facet normal 0 1 0
    outer loop
      vertex 2.6 0.20999999999999996 0.09999999999999964
      vertex 6.53381789351623 0.20999999999999996 2.782067689408185
      vertex 6.374768774327879 0.20999999999999996 2.3594843166808803
    endloop
  endfacet
  facet normal 0.8128466845916156 0 -0.5824776968678017
    outer loop
      vertex 5.4741380480095225 0.20999999999999996 0.7995461398398271
      vertex 5.737140324887562 0.20999999999999996 1.166565392164745
      vertex 5.737140324887562 -2.8 1.166565392164745
    endloop
  endfacet
  facet normal 0 1 0
    outer loop
      vertex 2.6 0.20999999999999996 0.09999999999999964
      vertex 6.664888201394572 0.20999999999999996 3.214148588792607
      vertex 6.53381789351623 0.20999999999999996 2.782067689408185
    endloop
  endfacet
  facet normal 0 1 0
    outer loop
      vertex 2.6 0.20999999999999996 0.09999999999999964
      vertex 6.76741843478229 0.20999999999999996 3.6538767780887147
      vertex 6.664888201394572 0.20999999999999996 3.214148588792607
    endloop
  endfacet
  facet normal 0 1 0
    outer loop
      vertex 2.6 0.20999999999999996 0.09999999999999964
      vertex 6.840969543479292 0.20999999999999996 4.099369273681644
      vertex 6.76741843478229 0.20999999999999996 3.6538767780887147
    endloop
  endfacet
  facet normal 0 1 0
    outer loop
      vertex 2.6 0.20999999999999996 0.09999999999999964
      vertex 6.885226570346364 0.20999999999999996 4.548718408312013
      vertex 6.840969543479292 0.20999999999999996 4.099369273681644
    endloop
  endfacet
  facet normal 0 1 0
    outer loop
      vertex 2.6 0.20999999999999996 0.09999999999999964
      vertex 6.9 0.20999999999999996 5
      vertex 6.885226570346364 0.20999999999999996 4.548718408312013
    endloop
  endfacet
  facet normal 0 1 0
    outer loop
      vertex 2.6 0.20999999999999996 0.09999999999999964
      vertex 6.885226570346364 0.20999999999999996 5.451281591687987
      vertex 6.9 0.20999999999999996 5
    endloop
  endfacet
  facet normal 0 1 0
    outer loop
      vertex 2.6 0.20999999999999996 0.09999999999999964
      vertex 6.840969543479292 0.20999999999999996 5.900630726318356
      vertex 6.885226570346364 0.20999999999999996 5.451281591687987
    endloop
  endfacet
  facet normal 0 -1 0
    outer loop
      vertex -6.840969543479292 -2.8 4.099369273681644
      vertex 6.840969543479292 -2.8 4.099369273681644
      vertex 6.885226570346364 -2.8 4.548718408312013
    endloop
  endfacet
  facet normal 0 -1 0
    outer loop
      vertex -6.885226570346364 -2.8 4.548718408312013
      vertex 6.885226570346364 -2.8 4.548718408312013
      vertex 6.9 -2.8 5
    endloop
  endfacet
  facet normal 0 -1 0
    outer loop
      vertex -6.9 -2.8 5
      vertex 6.9 -2.8 5
      vertex 6.885226570346364 -2.8 5.451281591687987
    endloop
  endfacet
  facet normal 0 -1 0
    outer loop
      vertex -6.885226570346364 -2.8 5.451281591687987
      vertex 6.885226570346364 -2.8 5.451281591687987
      vertex 6.840969543479292 -2.8 5.900630726318356
    endloop
  endfacet
  facet normal 0 -1 0
    outer loop
      vertex -6.840969543479292 -2.8 5.900630726318356
      vertex 6.840969543479292 -2.8 5.900630726318356
      vertex 6.76741843478229 -2.8 6.346123221911285
    endloop
  endfacet
  facet normal 0 -1 0
    outer loop
      vertex -6.76741843478229 -2.8 6.346123221911285
      vertex 6.76741843478229 -2.8 6.346123221911285
      vertex 6.664888201394572 -2.8 6.785851411207393
    endloop
  endfacet
  facet normal 0 -1 0
    outer loop
      vertex -6.664888201394572 -2.8 6.785851411207393
      vertex 6.664888201394572 -2.8 6.785851411207393
      vertex 6.53381789351623 -2.8 7.217932310591815
    endloop
  endfacet
  facet normal 0 -1 0
    outer loop
      vertex -6.53381789351623 -2.8 7.217932310591815
      vertex 6.53381789351623 -2.8 7.217932310591815
      vertex 6.374768774327879 -2.8 7.640515683319119
    endloop
  endfacet
  facet normal 0 1 0
    outer loop
      vertex 2.6 0.20999999999999996 0.09999999999999964
      vertex 2.6 0.20999999999999996 10
      vertex 4.549486124190476 0.20999999999999996 10.187694671604945
    endloop
  endfacet
  facet normal 0 1 0
    outer loop
      vertex 2.6 0.20999999999999996 0.09999999999999964
      vertex 6.76741843478229 0.20999999999999996 6.346123221911285
      vertex 6.840969543479292 0.20999999999999996 5.900630726318356
    endloop
  endfacet
  facet normal 0 1 0
    outer loop
      vertex 2.6 0.20999999999999996 0.09999999999999964
      vertex 6.664888201394572 0.20999999999999996 6.785851411207393
      vertex 6.76741843478229 0.20999999999999996 6.346123221911285
    endloop
  endfacet
  facet normal 0 1 0
    outer loop
      vertex 2.6 0.20999999999999996 0.09999999999999964
      vertex 6.53381789351623 0.20999999999999996 7.217932310591815
      vertex 6.664888201394572 0.20999999999999996 6.785851411207393
    endloop
  endfacet
  facet normal 0 1 0
    outer loop
      vertex 2.6 0.20999999999999996 0.09999999999999964
      vertex 6.374768774327879 0.20999999999999996 7.640515683319119
      vertex 6.53381789351623 0.20999999999999996 7.217932310591815
    endloop
  endfacet
  facet normal 0 1 0
    outer loop
      vertex 2.6 0.20999999999999996 0.09999999999999964
      vertex 6.18842191657555 0.20999999999999996 8.051791962511109
      vertex 6.374768774327879 0.20999999999999996 7.640515683319119
    endloop
  endfacet
  facet normal 0 1 0
    outer loop
      vertex 2.6 0.20999999999999996 0.09999999999999964
      vertex 5.737140324887562 0.20999999999999996 8.833434607835255
      vertex 5.975575286112627 0.20999999999999996 8.45
    endloop
  endfacet
  facet normal 0 1 0
    outer loop
      vertex 2.6 0.20999999999999996 0.09999999999999964
      vertex 5.975575286112627 0.20999999999999996 8.45
      vertex 6.18842191657555 0.20999999999999996 8.051791962511109
    endloop
  endfacet
  facet normal 0 1 0
    outer loop
      vertex 2.6 0.20999999999999996 0.09999999999999964
      vertex 4.549486124190476 0.20999999999999996 10.187694671604945
      vertex 4.879036790187178 0.20999999999999996 9.879036790187179
    endloop
  endfacet
  facet normal 0 1 0
    outer loop
      vertex 2.6 0.20999999999999996 0.09999999999999964
      vertex 5.4741380480095225 0.20999999999999996 9.200453860160174
      vertex 5.737140324887562 0.20999999999999996 8.833434607835255
    endloop
  endfacet
  facet normal 0 1 0
    outer loop
      vertex 2.6 0.20999999999999996 0.09999999999999964
      vertex 5.187694671604945 0.20999999999999996 9.549486124190476
      vertex 5.4741380480095225 0.20999999999999996 9.200453860160174
    endloop
  endfacet
  facet normal 0 1 0
    outer loop
      vertex 2.6 0.20999999999999996 0.09999999999999964
      vertex 4.879036790187178 0.20999999999999996 9.879036790187179
      vertex 5.187694671604945 0.20999999999999996 9.549486124190476
    endloop
  endfacet
  facet normal 0.8492021815265783 0 -0.5280678506503688
    outer loop
      vertex 5.737140324887562 -2.8 1.166565392164745
      vertex 5.737140324887562 0.20999999999999996 1.166565392164745
      vertex 5.975575286112627 -2.8 1.5499999999999998
    endloop
  endfacet
  facet normal 0.8492021815265783 0 -0.5280678506503688
    outer loop
      vertex 5.975575286112627 -2.8 1.5499999999999998
      vertex 5.737140324887562 0.20999999999999996 1.166565392164745
      vertex 5.975575286112627 0.20999999999999996 1.5499999999999998
    endloop
  endfacet
  facet normal 0.881921264348355 0 -0.47139673682599775
    outer loop
      vertex 5.975575286112627 -2.8 1.5499999999999998
      vertex 5.975575286112627 0.20999999999999996 1.5499999999999998
      vertex 6.18842191657555 -2.8 1.9482080374888908
    endloop
  endfacet
  facet normal 0.881921264348355 0 -0.47139673682599775
    outer loop
      vertex 5.975575286112627 0.20999999999999996 1.5499999999999998
      vertex 6.18842191657555 0.20999999999999996 1.9482080374888908
      vertex 6.18842191657555 -2.8 1.9482080374888908
    endloop
  endfacet
  facet normal 0.9108638249211759 0 -0.4127070298043942
    outer loop
      vertex 6.18842191657555 -2.8 1.9482080374888908
      vertex 6.18842191657555 0.20999999999999996 1.9482080374888908
      vertex 6.374768774327879 -2.8 2.3594843166808803
    endloop
  endfacet
  facet normal 0.9108638249211759 0 -0.4127070298043942
    outer loop
      vertex 6.18842191657555 0.20999999999999996 1.9482080374888908
      vertex 6.374768774327879 0.20999999999999996 2.3594843166808803
      vertex 6.374768774327879 -2.8 2.3594843166808803
    endloop
  endfacet
  facet normal 0.9359059267573252 0 -0.35225004792123493
    outer loop
      vertex 6.374768774327879 -2.8 2.3594843166808803
      vertex 6.374768774327879 0.20999999999999996 2.3594843166808803
      vertex 6.53381789351623 -2.8 2.782067689408185
    endloop
  endfacet
  facet normal 0.9359059267573252 0 -0.35225004792123493
    outer loop
      vertex 6.53381789351623 -2.8 2.782067689408185
      vertex 6.374768774327879 0.20999999999999996 2.3594843166808803
      vertex 6.53381789351623 0.20999999999999996 2.782067689408185
    endloop
  endfacet
  facet normal 0.956940335732209 0 -0.29028467725446133
    outer loop
      vertex 6.53381789351623 -2.8 2.782067689408185
      vertex 6.53381789351623 0.20999999999999996 2.782067689408185
      vertex 6.664888201394572 -2.8 3.214148588792607
    endloop
  endfacet
  facet normal 0.9738769792773336 0 -0.22707626303437298
    outer loop
      vertex 6.664888201394572 -2.8 3.214148588792607
      vertex 6.664888201394572 0.20999999999999996 3.214148588792607
      vertex 6.76741843478229 -2.8 3.6538767780887147
    endloop
  endfacet
  facet normal 0.956940335732209 0 -0.29028467725446133
    outer loop
      vertex 6.53381789351623 0.20999999999999996 2.782067689408185
      vertex 6.664888201394572 0.20999999999999996 3.214148588792607
      vertex 6.664888201394572 -2.8 3.214148588792607
    endloop
  endfacet
  facet normal 0.9738769792773336 0 -0.22707626303437298
    outer loop
      vertex 6.664888201394572 0.20999999999999996 3.214148588792607
      vertex 6.76741843478229 0.20999999999999996 3.6538767780887147
      vertex 6.76741843478229 -2.8 3.6538767780887147
    endloop
  endfacet
  facet normal 0.986643332084879 0 -0.1628954733945888
    outer loop
      vertex 6.76741843478229 -2.8 3.6538767780887147
      vertex 6.76741843478229 0.20999999999999996 3.6538767780887147
      vertex 6.840969543479292 -2.8 4.099369273681644
    endloop
  endfacet
  facet normal 0.9951847266721969 0 -0.09801714032956005
    outer loop
      vertex 6.840969543479292 -2.8 4.099369273681644
      vertex 6.840969543479292 0.20999999999999996 4.099369273681644
      vertex 6.885226570346364 -2.8 4.548718408312013
    endloop
  endfacet
  facet normal 0.986643332084879 0 -0.1628954733945888
    outer loop
      vertex 6.76741843478229 0.20999999999999996 3.6538767780887147
      vertex 6.840969543479292 0.20999999999999996 4.099369273681644
      vertex 6.840969543479292 -2.8 4.099369273681644
    endloop
  endfacet
  facet normal 0.9994645874763656 0 -0.0327190828217769
    outer loop
      vertex 6.885226570346364 -2.8 4.548718408312013
      vertex 6.885226570346364 0.20999999999999996 4.548718408312013
      vertex 6.9 -2.8 5
    endloop
  endfacet
  facet normal 0.9951847266721969 0 -0.09801714032956005
    outer loop
      vertex 6.885226570346364 -2.8 4.548718408312013
      vertex 6.840969543479292 0.20999999999999996 4.099369273681644
      vertex 6.885226570346364 0.20999999999999996 4.548718408312013
    endloop
  endfacet
  facet normal 0.9994645874763656 0 0.0327190828217769
    outer loop
      vertex 6.9 -2.8 5
      vertex 6.9 0.20999999999999996 5
      vertex 6.885226570346364 -2.8 5.451281591687987
    endloop
  endfacet
  facet normal 0.9994645874763656 0 -0.0327190828217769
    outer loop
      vertex 6.885226570346364 0.20999999999999996 4.548718408312013
      vertex 6.9 0.20999999999999996 5
      vertex 6.9 -2.8 5
    endloop
  endfacet
  facet normal 0.9994645874763656 0 0.0327190828217769
    outer loop
      vertex 6.885226570346364 -2.8 5.451281591687987
      vertex 6.9 0.20999999999999996 5
      vertex 6.885226570346364 0.20999999999999996 5.451281591687987
    endloop
  endfacet
  facet normal 0.9951847266721969 0 0.09801714032956005
    outer loop
      vertex 6.885226570346364 -2.8 5.451281591687987
      vertex 6.885226570346364 0.20999999999999996 5.451281591687987
      vertex 6.840969543479292 -2.8 5.900630726318356
    endloop
  endfacet
  facet normal 0.9951847266721969 0 0.09801714032956005
    outer loop
      vertex 6.885226570346364 0.20999999999999996 5.451281591687987
      vertex 6.840969543479292 0.20999999999999996 5.900630726318356
      vertex 6.840969543479292 -2.8 5.900630726318356
    endloop
  endfacet
  facet normal 0.9738769792773336 0 0.2270762630343732
    outer loop
      vertex 6.664888201394572 -2.8 6.785851411207393
      vertex 6.76741843478229 -2.8 6.346123221911285
      vertex 6.76741843478229 0.20999999999999996 6.346123221911285
    endloop
  endfacet
  facet normal 0.9738769792773336 0 0.2270762630343732
    outer loop
      vertex 6.664888201394572 -2.8 6.785851411207393
      vertex 6.76741843478229 0.20999999999999996 6.346123221911285
      vertex 6.664888201394572 0.20999999999999996 6.785851411207393
    endloop
  endfacet
  facet normal 0.956940335732209 0 0.29028467725446133
    outer loop
      vertex 6.664888201394572 -2.8 6.785851411207393
      vertex 6.664888201394572 0.20999999999999996 6.785851411207393
      vertex 6.53381789351623 -2.8 7.217932310591815
    endloop
  endfacet
  facet normal 0.956940335732209 0 0.29028467725446133
    outer loop
      vertex 6.53381789351623 -2.8 7.217932310591815
      vertex 6.664888201394572 0.20999999999999996 6.785851411207393
      vertex 6.53381789351623 0.20999999999999996 7.217932310591815
    endloop
  endfacet
  facet normal 0.9359059267573252 0 0.35225004792123493
    outer loop
      vertex 6.53381789351623 -2.8 7.217932310591815
      vertex 6.53381789351623 0.20999999999999996 7.217932310591815
      vertex 6.374768774327879 -2.8 7.640515683319119
    endloop
  endfacet
  facet normal 0.9359059267573252 0 0.35225004792123493
    outer loop
      vertex 6.374768774327879 -2.8 7.640515683319119
      vertex 6.53381789351623 0.20999999999999996 7.217932310591815
      vertex 6.374768774327879 0.20999999999999996 7.640515683319119
    endloop
  endfacet
  facet normal 0.986643332084879 0 0.1628954733945888
    outer loop
      vertex 6.840969543479292 -2.8 5.900630726318356
      vertex 6.840969543479292 0.20999999999999996 5.900630726318356
      vertex 6.76741843478229 -2.8 6.346123221911285
    endloop
  endfacet
  facet normal 0.986643332084879 0 0.1628954733945888
    outer loop
      vertex 6.76741843478229 -2.8 6.346123221911285
      vertex 6.840969543479292 0.20999999999999996 5.900630726318356
      vertex 6.76741843478229 0.20999999999999996 6.346123221911285
    endloop
  endfacet
  facet normal 0 -1 0
    outer loop
      vertex -6.18842191657555 -2.8 8.051791962511109
      vertex 6.18842191657555 -2.8 8.051791962511109
      vertex 5.975575286112627 -2.8 8.45
    endloop
  endfacet
  facet normal 0 -1 0
    outer loop
      vertex -5.975575286112627 -2.8 8.45
      vertex 5.975575286112627 -2.8 8.45
      vertex 5.737140324887562 -2.8 8.833434607835255
    endloop
  endfacet
  facet normal 0 -1 0
    outer loop
      vertex -6.374768774327879 -2.8 7.640515683319119
      vertex 6.374768774327879 -2.8 7.640515683319119
      vertex 6.18842191657555 -2.8 8.051791962511109
    endloop
  endfacet
  facet normal 0 -1 0
    outer loop
      vertex -5.737140324887562 -2.8 8.833434607835255
      vertex 5.737140324887562 -2.8 8.833434607835255
      vertex 5.4741380480095225 -2.8 9.200453860160174
    endloop
  endfacet
  facet normal 0 -1 0
    outer loop
      vertex -5.4741380480095225 -2.8 9.200453860160174
      vertex 5.4741380480095225 -2.8 9.200453860160174
      vertex 5.187694671604945 -2.8 9.549486124190476
    endloop
  endfacet
  facet normal 0 -1 0
    outer loop
      vertex -5.187694671604945 -2.8 9.549486124190476
      vertex 5.187694671604945 -2.8 9.549486124190476
      vertex 4.879036790187178 -2.8 9.879036790187179
    endloop
  endfacet
  facet normal 0 -1 0
    outer loop
      vertex -4.879036790187178 -2.8 9.879036790187179
      vertex 4.879036790187178 -2.8 9.879036790187179
      vertex 4.549486124190476 -2.8 10.187694671604945
    endloop
  endfacet
  facet normal 0 1 0
    outer loop
      vertex -4.200453860160173 0.20999999999999996 10.474138048009522
      vertex 4.200453860160173 0.20999999999999996 10.474138048009522
      vertex 4.549486124190476 0.20999999999999996 10.187694671604945
    endloop
  endfacet
  facet normal 0.29028467725446316 0 0.9569403357322086
    outer loop
      vertex 2.217932310591815 -2.8 11.533817893516229
      vertex 2.217932310591815 0.20999999999999996 11.533817893516229
      vertex 1.785851411207393 0.20999999999999996 11.664888201394572
    endloop
  endfacet
  facet normal 0.3522500479212315 0 0.9359059267573264
    outer loop
      vertex 2.217932310591815 -2.8 11.533817893516229
      vertex 2.6405156833191197 -2.8 11.37476877432788
      vertex 2.217932310591815 0.20999999999999996 11.533817893516229
    endloop
  endfacet
  facet normal 0.3522500479212315 0 0.9359059267573264
    outer loop
      vertex 2.217932310591815 0.20999999999999996 11.533817893516229
      vertex 2.6405156833191197 -2.8 11.37476877432788
      vertex 2.6405156833191197 0.20999999999999996 11.37476877432788
    endloop
  endfacet
  facet normal 0.4127070298043959 0 0.9108638249211753
    outer loop
      vertex 2.6405156833191197 -2.8 11.37476877432788
      vertex 3.051791962511109 -2.8 11.18842191657555
      vertex 2.6405156833191197 0.20999999999999996 11.37476877432788
    endloop
  endfacet
  facet normal 0.4127070298043959 0 0.9108638249211753
    outer loop
      vertex 3.051791962511109 -2.8 11.18842191657555
      vertex 3.051791962511109 0.20999999999999996 11.18842191657555
      vertex 2.6405156833191197 0.20999999999999996 11.37476877432788
    endloop
  endfacet
  facet normal 0.47139673682599925 0 0.8819212643483542
    outer loop
      vertex 3.051791962511109 -2.8 11.18842191657555
      vertex 3.45 -2.8 10.975575286112626
      vertex 3.051791962511109 0.20999999999999996 11.18842191657555
    endloop
  endfacet
  facet normal 0.47139673682599925 0 0.8819212643483542
    outer loop
      vertex 3.051791962511109 0.20999999999999996 11.18842191657555
      vertex 3.45 -2.8 10.975575286112626
      vertex 3.45 0.20999999999999996 10.975575286112626
    endloop
  endfacet
  facet normal 0.5280678506503673 0 0.8492021815265793
    outer loop
      vertex 3.45 -2.8 10.975575286112626
      vertex 3.833434607835255 -2.8 10.737140324887562
      vertex 3.45 0.20999999999999996 10.975575286112626
    endloop
  endfacet
  facet normal 0.7298640726978349 0 0.683592302022872
    outer loop
      vertex 5.187694671604945 -2.8 9.549486124190476
      vertex 5.187694671604945 0.20999999999999996 9.549486124190476
      vertex 4.879036790187178 -2.8 9.879036790187179
    endloop
  endfacet
  facet normal 0.8128466845916165 0 0.5824776968678003
    outer loop
      vertex 5.4741380480095225 -2.8 9.200453860160174
      vertex 5.737140324887562 -2.8 8.833434607835255
      vertex 5.737140324887562 0.20999999999999996 8.833434607835255
    endloop
  endfacet
  facet normal 0.8128466845916165 0 0.5824776968678003
    outer loop
      vertex 5.4741380480095225 -2.8 9.200453860160174
      vertex 5.737140324887562 0.20999999999999996 8.833434607835255
      vertex 5.4741380480095225 0.20999999999999996 9.200453860160174
    endloop
  endfacet
  facet normal 0.7730104533627377 0 0.6343932841636447
    outer loop
      vertex 5.187694671604945 -2.8 9.549486124190476
      vertex 5.4741380480095225 -2.8 9.200453860160174
      vertex 5.4741380480095225 0.20999999999999996 9.200453860160174
    endloop
  endfacet
  facet normal 0.7730104533627377 0 0.6343932841636447
    outer loop
      vertex 5.187694671604945 -2.8 9.549486124190476
      vertex 5.4741380480095225 0.20999999999999996 9.200453860160174
      vertex 5.187694671604945 0.20999999999999996 9.549486124190476
    endloop
  endfacet
  facet normal 0.582477696867803 0 0.8128466845916146
    outer loop
      vertex 4.200453860160173 -2.8 10.474138048009522
      vertex 4.200453860160173 0.20999999999999996 10.474138048009522
      vertex 3.833434607835255 0.20999999999999996 10.737140324887562
    endloop
  endfacet
  facet normal 0.6343932841636435 0 0.7730104533627387
    outer loop
      vertex 4.200453860160173 -2.8 10.474138048009522
      vertex 4.549486124190476 -2.8 10.187694671604945
      vertex 4.200453860160173 0.20999999999999996 10.474138048009522
    endloop
  endfacet
  facet normal 0.6343932841636435 0 0.7730104533627387
    outer loop
      vertex 4.549486124190476 -2.8 10.187694671604945
      vertex 4.549486124190476 0.20999999999999996 10.187694671604945
      vertex 4.200453860160173 0.20999999999999996 10.474138048009522
    endloop
  endfacet
  facet normal 0.5280678506503673 0 0.8492021815265793
    outer loop
      vertex 3.45 0.20999999999999996 10.975575286112626
      vertex 3.833434607835255 -2.8 10.737140324887562
      vertex 3.833434607835255 0.20999999999999996 10.737140324887562
    endloop
  endfacet
  facet normal 0.582477696867803 0 0.8128466845916146
    outer loop
      vertex 4.200453860160173 -2.8 10.474138048009522
      vertex 3.833434607835255 0.20999999999999996 10.737140324887562
      vertex 3.833434607835255 -2.8 10.737140324887562
    endloop
  endfacet
  facet normal 0.683592302022871 0 0.7298640726978359
    outer loop
      vertex 4.549486124190476 -2.8 10.187694671604945
      vertex 4.879036790187178 -2.8 9.879036790187179
      vertex 4.549486124190476 0.20999999999999996 10.187694671604945
    endloop
  endfacet
  facet normal 0.683592302022871 0 0.7298640726978359
    outer loop
      vertex 4.549486124190476 0.20999999999999996 10.187694671604945
      vertex 4.879036790187178 -2.8 9.879036790187179
      vertex 4.879036790187178 0.20999999999999996 9.879036790187179
    endloop
  endfacet
  facet normal 0.7298640726978349 0 0.683592302022872
    outer loop
      vertex 5.187694671604945 0.20999999999999996 9.549486124190476
      vertex 4.879036790187178 0.20999999999999996 9.879036790187179
      vertex 4.879036790187178 -2.8 9.879036790187179
    endloop
  endfacet
  facet normal 0.227076263034371 0 0.9738769792773342
    outer loop
      vertex 1.346123221911285 0.20999999999999996 11.76741843478229
      vertex 1.785851411207393 -2.8 11.664888201394572
      vertex 1.785851411207393 0.20999999999999996 11.664888201394572
    endloop
  endfacet
  facet normal 0.29028467725446316 0 0.9569403357322086
    outer loop
      vertex 2.217932310591815 -2.8 11.533817893516229
      vertex 1.785851411207393 0.20999999999999996 11.664888201394572
      vertex 1.785851411207393 -2.8 11.664888201394572
    endloop
  endfacet
  facet normal 0.8819212643483547 0 0.47139673682599814
    outer loop
      vertex 6.18842191657555 -2.8 8.051791962511109
      vertex 6.18842191657555 0.20999999999999996 8.051791962511109
      vertex 5.975575286112627 -2.8 8.45
    endloop
  endfacet
  facet normal 0.8492021815265787 0 0.5280678506503683
    outer loop
      vertex 5.975575286112627 -2.8 8.45
      vertex 5.975575286112627 0.20999999999999996 8.45
      vertex 5.737140324887562 -2.8 8.833434607835255
    endloop
  endfacet
  facet normal 0.8492021815265787 0 0.5280678506503683
    outer loop
      vertex 5.975575286112627 0.20999999999999996 8.45
      vertex 5.737140324887562 0.20999999999999996 8.833434607835255
      vertex 5.737140324887562 -2.8 8.833434607835255
    endloop
  endfacet
  facet normal 0.8819212643483547 0 0.47139673682599814
    outer loop
      vertex 5.975575286112627 -2.8 8.45
      vertex 6.18842191657555 0.20999999999999996 8.051791962511109
      vertex 5.975575286112627 0.20999999999999996 8.45
    endloop
  endfacet
  facet normal 0.9108638249211759 0 0.4127070298043942
    outer loop
      vertex 6.374768774327879 -2.8 7.640515683319119
      vertex 6.374768774327879 0.20999999999999996 7.640515683319119
      vertex 6.18842191657555 -2.8 8.051791962511109
    endloop
  endfacet
  facet normal 0.9108638249211759 0 0.4127070298043942
    outer loop
      vertex 6.374768774327879 0.20999999999999996 7.640515683319119
      vertex 6.18842191657555 0.20999999999999996 8.051791962511109
      vertex 6.18842191657555 -2.8 8.051791962511109
    endloop
  endfacet
  facet normal 0 0 -1
    outer loop
      vertex -4.8566545988641785 0.20999999999999996 0.09999999999999964
      vertex -2.6 0.20999999999999996 0.09999999999999964
      vertex -2.6 0 0.09999999999999964
    endloop
  endfacet
  facet normal 0 0 -1
    outer loop
      vertex -4.8566545988641785 -2.8 0.09999999999999964
      vertex -4.8566545988641785 0.20999999999999996 0.09999999999999964
      vertex 4.8566545988641785 -2.8 0.09999999999999964
    endloop
  endfacet
  facet normal 0 0 -1
    outer loop
      vertex -4.8566545988641785 0.20999999999999996 0.09999999999999964
      vertex -2.6 0 0.09999999999999964
      vertex 4.8566545988641785 -2.8 0.09999999999999964
    endloop
  endfacet
  facet normal 0 0 -1
    outer loop
      vertex -2.6 0 0.09999999999999964
      vertex 2.6 0 0.09999999999999964
      vertex 4.8566545988641785 -2.8 0.09999999999999964
    endloop
  endfacet
  facet normal 0 0 -1
    outer loop
      vertex 2.6 0 0.09999999999999964
      vertex 2.6 0.20999999999999996 0.09999999999999964
      vertex 4.8566545988641785 0.20999999999999996 0.09999999999999964
    endloop
  endfacet
  facet normal 0 0 -1
    outer loop
      vertex 2.6 0 0.09999999999999964
      vertex 4.8566545988641785 0.20999999999999996 0.09999999999999964
      vertex 4.8566545988641785 -2.8 0.09999999999999964
    endloop
  endfacet
  facet normal -1 0 0
    outer loop
      vertex -2.6 0 0
      vertex -2.6 0 0.09999999999999964
      vertex -2.6 0.20999999999999996 0.09999999999999964
    endloop
  endfacet
  facet normal 0 -1 0
    outer loop
      vertex -2.6 0 0
      vertex 2.6 0 0.09999999999999964
      vertex -2.6 0 0.09999999999999964
    endloop
  endfacet
  facet normal -1 0 0
    outer loop
      vertex -2.6 0 0
      vertex -2.6 0.20999999999999996 0.09999999999999964
      vertex -2.6 38.45 9.99
    endloop
  endfacet
  facet normal 0 -1 0
    outer loop
      vertex -2.6 0 0
      vertex 2.6 0 0
      vertex 2.6 0 0.09999999999999964
    endloop
  endfacet
  facet normal -1 0 0
    outer loop
      vertex -2.6 0.20999999999999996 0.09999999999999964
      vertex -2.6 0.20999999999999996 10
      vertex -2.6 38.45 9.99
    endloop
  endfacet
  facet normal 0 0 -1
    outer loop
      vertex -2.6 0 0
      vertex 2.6 57.75 0
      vertex 2.6 0 0
    endloop
  endfacet
  facet normal -1 0 0
    outer loop
      vertex -2.6 0 0
      vertex -2.6 38.45 9.99
      vertex -2.6 46.45 9.99
    endloop
  endfacet
  facet normal 0 0 1
    outer loop
      vertex -2.6 0.20999999999999996 10
      vertex 2.6 0.20999999999999996 10
      vertex -0.20000000000000018 38.45 10
    endloop
  endfacet
  facet normal -1 0 0
    outer loop
      vertex -2.6 0.20999999999999996 10
      vertex -2.6 38.45 10
      vertex -2.6 38.45 9.99
    endloop
  endfacet
  facet normal 0 0 1
    outer loop
      vertex -2.6 0.20999999999999996 10
      vertex -0.20000000000000018 38.45 10
      vertex -2.6 38.45 10
    endloop
  endfacet
  facet normal 0 0 1
    outer loop
      vertex -0.20000000000000018 38.45 10
      vertex 2.6 0.20999999999999996 10
      vertex -0.20000000000000018 46.45 10
    endloop
  endfacet
  facet normal 0 0 1
    outer loop
      vertex -0.20000000000000018 46.45 10
      vertex 2.6 0.20999999999999996 10
      vertex 0.20000000000000018 48.85 10
    endloop
  endfacet
  facet normal 0 0 -1
    outer loop
      vertex -2.6 0 0
      vertex -2.6 72.25 0
      vertex 2.6 72.25 0
    endloop
  endfacet
  facet normal -1 0 0
    outer loop
      vertex -2.6 0 0
      vertex -2.6 72.25 10
      vertex -2.6 72.25 0
    endloop
  endfacet
  facet normal 0 0 -1
    outer loop
      vertex -2.6 0 0
      vertex 2.6 59.883333331953594 0
      vertex 2.6 57.75 0
    endloop
  endfacet
  facet normal 0 0 -1
    outer loop
      vertex -2.6 0 0
      vertex 2.6 61.716666667922226 0
      vertex 2.6 59.883333331953594 0
    endloop
  endfacet
  facet normal 0 0 -1
    outer loop
      vertex -2.6 0 0
      vertex 2.6 72.25 0
      vertex 2.6 61.716666667922226 0
    endloop
  endfacet
  facet normal -1 0 0
    outer loop
      vertex -2.6 0 0
      vertex -2.6 46.45 9.99
      vertex -2.6 72.25 10
    endloop
  endfacet
  facet normal 0 1 0
    outer loop
      vertex -2.6 72.25 0
      vertex -2.6 72.25 10
      vertex 2.6 72.25 0
    endloop
  endfacet
  facet normal 0 1 0
    outer loop
      vertex -2.6 72.25 10
      vertex 2.6 72.25 10
      vertex 2.6 72.25 0
    endloop
  endfacet
  facet normal 0 0 1
    outer loop
      vertex -2.6 46.45 10
      vertex -0.20000000000000018 46.45 10
      vertex 0.20000000000000018 48.85 10
    endloop
  endfacet
  facet normal -1 0 0
    outer loop
      vertex -2.6 46.45 9.99
      vertex -2.6 46.45 10
      vertex -2.6 72.25 10
    endloop
  endfacet
  facet normal 0 0 1
    outer loop
      vertex -2.6 46.45 10
      vertex 0.20000000000000018 48.85 10
      vertex -2.6 72.25 10
    endloop
  endfacet
  facet normal 0 0 1
    outer loop
      vertex 0.20000000000000018 48.85 10
      vertex 0.20000000000000018 51.25 10
      vertex -2.6 72.25 10
    endloop
  endfacet
  facet normal 0 0 1
    outer loop
      vertex 0.20000000000000018 51.25 10
      vertex 0.20000000000000018 58.25 10
      vertex -2.6 72.25 10
    endloop
  endfacet
  facet normal 0 0 1
    outer loop
      vertex -2.6 72.25 10
      vertex 0.20000000000000018 58.25 10
      vertex 0.20000000000000018 60.65 10
    endloop
  endfacet
  facet normal 0 0 1
    outer loop
      vertex 0.20000000000000018 51.25 10
      vertex 2.6 57.75 10
      vertex 0.20000000000000018 58.25 10
    endloop
  endfacet
  facet normal 0 0 1
    outer loop
      vertex -2.6 72.25 10
      vertex 0.20000000000000018 60.65 10
      vertex 2.6 60.65 10
    endloop
  endfacet
  facet normal 0 0 1
    outer loop
      vertex -2.6 72.25 10
      vertex 2.6 60.65 10
      vertex 2.6 61.716666667922226 10
    endloop
  endfacet
  facet normal 0 0 1
    outer loop
      vertex -2.6 72.25 10
      vertex 2.6 61.716666667922226 10
      vertex 2.6 72.25 10
    endloop
  endfacet
  facet normal 1 0 0
    outer loop
      vertex 2.6 0 0
      vertex 2.6 0.20999999999999996 0.09999999999999964
      vertex 2.6 0 0.09999999999999964
    endloop
  endfacet
  facet normal 1 0 0
    outer loop
      vertex 2.6 0 0
      vertex 2.6 57.75 0
      vertex 2.6 0.20999999999999996 0.09999999999999964
    endloop
  endfacet
  facet normal 1 0 0
    outer loop
      vertex 2.6 0.20999999999999996 0.09999999999999964
      vertex 2.6 48.85 9.99
      vertex 2.6 0.20999999999999996 10
    endloop
  endfacet
  facet normal 1 0 0
    outer loop
      vertex 2.6 0.20999999999999996 0.09999999999999964
      vertex 2.6 49.60463362357669 9.99
      vertex 2.6 48.85 9.99
    endloop
  endfacet
  facet normal 1 0 0
    outer loop
      vertex 2.6 0.20999999999999996 0.09999999999999964
      vertex 2.6 51.25 9.99
      vertex 2.6 49.60463362357669 9.99
    endloop
  endfacet
  facet normal 0 0 1
    outer loop
      vertex 0.20000000000000018 48.85 10
      vertex 2.6 0.20999999999999996 10
      vertex 2.6 48.85 10
    endloop
  endfacet
  facet normal 1 0 0
    outer loop
      vertex 2.6 0.20999999999999996 10
      vertex 2.6 48.85 9.99
      vertex 2.6 48.85 10
    endloop
  endfacet
  facet normal 1 0 0
    outer loop
      vertex 2.6 0.20999999999999996 0.09999999999999964
      vertex 2.6 57.75 0
      vertex 2.6 51.25 9.99
    endloop
  endfacet
  facet normal 1 0 0
    outer loop
      vertex 2.6 61.716666667922226 0
      vertex 2.6 72.25 0
      vertex 2.6 61.716666667922226 10
    endloop
  endfacet
  facet normal 1 0 0
    outer loop
      vertex 2.6 57.75 0
      vertex 2.6 57.75 10
      vertex 2.6 51.25 9.99
    endloop
  endfacet
  facet normal 1 0 0
    outer loop
      vertex 2.6 72.25 0
      vertex 2.6 72.25 10
      vertex 2.6 61.716666667922226 10
    endloop
  endfacet
  facet normal 0 0 1
    outer loop
      vertex 0.20000000000000018 51.25 10
      vertex 2.6 51.25 10
      vertex 2.6 57.75 10
    endloop
  endfacet
  facet normal 1 0 0
    outer loop
      vertex 2.6 49.59808743834866 10
      vertex 2.6 49.60463362357669 9.99
      vertex 2.6 51.245636363636365 10
    endloop
  endfacet
  facet normal 1 0 0
    outer loop
      vertex 2.6 49.60463362357669 9.99
      vertex 2.6 51.25 9.99
      vertex 2.6 51.245636363636365 10
    endloop
  endfacet
  facet normal 1 0 0
    outer loop
      vertex 2.6 51.25 9.99
      vertex 2.6 57.75 10
      vertex 2.6 51.25 10
    endloop
  endfacet
  facet normal 0 0 1
    outer loop
      vertex 2.6 57.75 10
      vertex 2.6 58.25 10
      vertex 0.20000000000000018 58.25 10
    endloop
  endfacet
  facet normal 0 -1 0
    outer loop
      vertex -2.6 38.45 10
      vertex -0.20000000000000018 38.45 10
      vertex -2.6 38.45 13.99
    endloop
  endfacet
  facet normal -1 0 0
    outer loop
      vertex -2.6 38.45 9.99
      vertex -2.6 46.45 10
      vertex -2.6 46.45 9.99
    endloop
  endfacet
  facet normal -1 0 0
    outer loop
      vertex -2.6 38.45 9.99
      vertex -2.6 38.45 10
      vertex -2.6 46.45 13.99
    endloop
  endfacet
  facet normal -1 0 0
    outer loop
      vertex -2.6 38.45 9.99
      vertex -2.6 46.45 13.99
      vertex -2.6 46.45 10
    endloop
  endfacet
  facet normal 0 1 0
    outer loop
      vertex -2.6 46.45 10
      vertex -0.20000000000000018 46.45 13.99
      vertex -0.20000000000000018 46.45 10
    endloop
  endfacet
  facet normal 1 0 0
    outer loop
      vertex -0.20000000000000018 38.45 10
      vertex -0.20000000000000018 46.45 10
      vertex -0.20000000000000018 38.45 13.99
    endloop
  endfacet
  facet normal -1 0 0
    outer loop
      vertex -2.6 38.45 10
      vertex -2.6 38.45 13.99
      vertex -2.6 46.45 13.99
    endloop
  endfacet
  facet normal 0 -1 0
    outer loop
      vertex -0.20000000000000018 38.45 10
      vertex -0.20000000000000018 38.45 13.99
      vertex -2.6 38.45 13.99
    endloop
  endfacet
  facet normal 0 0 1
    outer loop
      vertex -2.6 38.45 13.99
      vertex -0.20000000000000018 38.45 13.99
      vertex -2.6 46.45 13.99
    endloop
  endfacet
  facet normal 0 0 1
    outer loop
      vertex -2.6 46.45 13.99
      vertex -0.20000000000000018 38.45 13.99
      vertex -0.20000000000000018 46.45 13.99
    endloop
  endfacet
  facet normal 0 1 0
    outer loop
      vertex -2.6 46.45 10
      vertex -2.6 46.45 13.99
      vertex -0.20000000000000018 46.45 13.99
    endloop
  endfacet
  facet normal 1 0 0
    outer loop
      vertex -0.20000000000000018 46.45 10
      vertex -0.20000000000000018 46.45 13.99
      vertex -0.20000000000000018 38.45 13.99
    endloop
  endfacet
  facet normal -1 0 0
    outer loop
      vertex 0.20000000000000018 48.85 10
      vertex 0.20000000000000018 51.25 15.49
      vertex 0.20000000000000018 51.25 10
    endloop
  endfacet
  facet normal 0 -1 0
    outer loop
      vertex 0.20000000000000018 48.85 10
      vertex 2.6 48.85 10
      vertex 0.20000000000000018 48.85 15.49
    endloop
  endfacet
  facet normal -1 0 0
    outer loop
      vertex 0.20000000000000018 48.85 10
      vertex 0.20000000000000018 48.85 15.49
      vertex 0.20000000000000018 51.25 15.49
    endloop
  endfacet
  facet normal 0 1 0
    outer loop
      vertex 0.20000000000000018 51.25 10
      vertex 0.20000000000000018 51.25 15.49
      vertex 2.6 51.25 15.49
    endloop
  endfacet
  facet normal 0 0 1
    outer loop
      vertex 0.20000000000000018 48.85 15.49
      vertex 2.6 48.85 15.49
      vertex 0.20000000000000018 51.25 15.49
    endloop
  endfacet
  facet normal 1 0 0
    outer loop
      vertex 2.6 48.85 9.99
      vertex 2.6 49.59808743834866 10
      vertex 2.6 48.85 10
    endloop
  endfacet
  facet normal 1 0 0
    outer loop
      vertex 2.6 48.85 9.99
      vertex 2.6 49.60463362357669 9.99
      vertex 2.6 49.59808743834866 10
    endloop
  endfacet
  facet normal 1 0 0
    outer loop
      vertex 2.6 51.25 9.99
      vertex 2.6 51.25 10
      vertex 2.6 51.245636363636365 10
    endloop
  endfacet
  facet normal 0 1 0
    outer loop
      vertex 0.20000000000000018 51.25 10
      vertex 2.6 51.25 15.49
      vertex 2.6 51.25 10
    endloop
  endfacet
  facet normal 1 0 0
    outer loop
      vertex 2.6 48.85 10
      vertex 2.6 49.59808743834866 10
      vertex 2.6 48.85 15.49
    endloop
  endfacet
  facet normal 1 0 0
    outer loop
      vertex 2.6 49.59808743834866 10
      vertex 2.6 51.245636363636365 10
      vertex 2.6 48.85 15.49
    endloop
  endfacet
  facet normal 1 0 0
    outer loop
      vertex 2.6 51.25 10
      vertex 2.6 51.25 15.49
      vertex 2.6 51.245636363636365 10
    endloop
  endfacet
  facet normal 0 -1 0
    outer loop
      vertex 0.20000000000000018 48.85 15.49
      vertex 2.6 48.85 10
      vertex 2.6 48.85 15.49
    endloop
  endfacet
  facet normal 0 0 1
    outer loop
      vertex 0.20000000000000018 51.25 15.49
      vertex 2.6 48.85 15.49
      vertex 2.6 51.25 15.49
    endloop
  endfacet
  facet normal 1 0 0
    outer loop
      vertex 2.6 51.245636363636365 10
      vertex 2.6 51.25 15.49
      vertex 2.6 48.85 15.49
    endloop
  endfacet
  facet normal -1 0 0
    outer loop
      vertex 0.20000000000000018 58.25 15.49
      vertex 0.20000000000000018 60.65 10
      vertex 0.20000000000000018 58.25 10
    endloop
  endfacet
  facet normal 0 1 0
    outer loop
      vertex 0.20000000000000018 60.65 15.49
      vertex 2.6 60.65 10
      vertex 0.20000000000000018 60.65 10
    endloop
  endfacet
  facet normal -1 0 0
    outer loop
      vertex 0.20000000000000018 58.25 15.49
      vertex 0.20000000000000018 60.65 15.49
      vertex 0.20000000000000018 60.65 10
    endloop
  endfacet
  facet normal 0 -1 0
    outer loop
      vertex 0.20000000000000018 58.25 15.49
      vertex 0.20000000000000018 58.25 10
      vertex 2.6 58.25 15.49
    endloop
  endfacet
  facet normal 0 0 1
    outer loop
      vertex 0.20000000000000018 58.25 15.49
      vertex 2.6 58.25 15.49
      vertex 0.20000000000000018 60.65 15.49
    endloop
  endfacet
  facet normal 0 -1 0
    outer loop
      vertex 2.6 58.25 15.49
      vertex 0.20000000000000018 58.25 10
      vertex 2.6 58.25 10
    endloop
  endfacet
  facet normal 1 0 0
    outer loop
      vertex 2.6 60.65 15.49
      vertex 2.6 58.25 10
      vertex 2.6 60.65 10
    endloop
  endfacet
  facet normal 0 1 0
    outer loop
      vertex 0.20000000000000018 60.65 15.49
      vertex 2.6 60.65 15.49
      vertex 2.6 60.65 10
    endloop
  endfacet
  facet normal 0 0 1
    outer loop
      vertex 0.20000000000000018 60.65 15.49
      vertex 2.6 58.25 15.49
      vertex 2.6 60.65 15.49
    endloop
  endfacet
  facet normal 1 0 0
    outer loop
      vertex 2.6 58.25 15.49
      vertex 2.6 58.25 10
      vertex 2.6 60.65 15.49
    endloop
  endfacet
  facet normal 0 0 -1
    outer loop
      vertex 2.6000000029802326 57.75 0
      vertex 2.6 57.75 0
      vertex 2.6 59.883333331953594 0
    endloop
  endfacet
  facet normal 0 -1 0
    outer loop
      vertex 2.6000000029802326 57.75 0
      vertex 2.6000000029802326 57.75 10
      vertex 2.6 57.75 0
    endloop
  endfacet
  facet normal 0 0 -1
    outer loop
      vertex 2.6000000029802326 57.75 0
      vertex 2.6 59.883333331953594 0
      vertex 8.600000002980233 70.54999999701977 0
    endloop
  endfacet
  facet normal 0.8543360052060706 -0.5197210696215162 0
    outer loop
      vertex 2.6000000029802326 57.75 0
      vertex 9.9 69.75 0
      vertex 2.6000000029802326 57.75 10
    endloop
  endfacet
  facet normal 0 0 -1
    outer loop
      vertex 2.6 59.883333331953594 0
      vertex 2.6 61.716666667922226 0
      vertex 8.600000002980233 70.54999999701977 0
    endloop
  endfacet
  facet normal -0.8272166910200675 0.5618830359583837 0
    outer loop
      vertex 2.6 61.716666667922226 0
      vertex 2.6 61.716666667922226 10
      vertex 8.600000002980233 70.54999999701977 0
    endloop
  endfacet
  facet normal 0 -1 0
    outer loop
      vertex 2.6 57.75 0
      vertex 2.6000000029802326 57.75 10
      vertex 2.6 57.75 10
    endloop
  endfacet
  facet normal 0 0 -1
    outer loop
      vertex 2.6000000029802326 57.75 0
      vertex 8.600000002980233 70.54999999701977 0
      vertex 9.9 69.75 0
    endloop
  endfacet
  facet normal 0.5240974251196696 0.8516583170397225 0
    outer loop
      vertex 8.600000002980233 70.54999999701977 0
      vertex 9.9 69.75 10
      vertex 9.9 69.75 0
    endloop
  endfacet
  facet normal -0.8272166910200675 0.5618830359583837 0
    outer loop
      vertex 8.600000002980233 70.54999999701977 0
      vertex 2.6 61.716666667922226 10
      vertex 8.600000002980233 70.54999999701977 10
    endloop
  endfacet
  facet normal 0.8543360052060706 -0.5197210696215162 0
    outer loop
      vertex 9.9 69.75 0
      vertex 9.9 69.75 10
      vertex 2.6000000029802326 57.75 10
    endloop
  endfacet
  facet normal 0.5240974251196696 0.8516583170397225 0
    outer loop
      vertex 8.600000002980233 70.54999999701977 0
      vertex 8.600000002980233 70.54999999701977 10
      vertex 9.9 69.75 10
    endloop
  endfacet
  facet normal 0 0 1
    outer loop
      vertex 2.6000000029802326 57.75 10
      vertex 8.600000002980233 70.54999999701977 10
      vertex 2.6 57.75 10
    endloop
  endfacet
  facet normal 0 0 1
    outer loop
      vertex 2.6 57.75 10
      vertex 8.600000002980233 70.54999999701977 10
      vertex 2.6 58.25 10
    endloop
  endfacet
  facet normal 0 0 1
    outer loop
      vertex 8.600000002980233 70.54999999701977 10
      vertex 2.6 60.65 10
      vertex 2.6 58.25 10
    endloop
  endfacet
  facet normal 0 0 1
    outer loop
      vertex 2.6 61.716666667922226 10
      vertex 2.6 60.65 10
      vertex 8.600000002980233 70.54999999701977 10
    endloop
  endfacet
  facet normal 0 0 1
    outer loop
      vertex 2.6000000029802326 57.75 10
      vertex 9.9 69.75 10
      vertex 8.600000002980233 70.54999999701977 10
    endloop
  endfacet
endsolid OpenSCAD_Model
