solid OpenSCAD_Model
  facet normal 0.7622512672279786 -0.6472812415089293 0
    outer loop
      vertex 87.52656249701977 44.946874998509884 5.99
      vertex 86.64687500149012 43.91093750298023 24
      vertex 86.64687500149012 43.91093750298023 5.99
    endloop
  endfacet
  facet normal 0.7622512672279786 -0.6472812415089293 0
    outer loop
      vertex 87.52656249701977 44.946874998509884 5.99
      vertex 87.52656249701977 44.946874998509884 24
      vertex 86.64687500149012 43.91093750298023 24
    endloop
  endfacet
  facet normal 0.7610963484956044 -0.648638842736586 0
    outer loop
      vertex 88.03125 45.5390625 5.99
      vertex 87.52656249701977 44.946874998509884 24
      vertex 87.52656249701977 44.946874998509884 5.99
    endloop
  endfacet
  facet normal 0.7610963484956044 -0.648638842736586 0
    outer loop
      vertex 88.03125 45.5390625 5.99
      vertex 88.03125 45.5390625 24
      vertex 87.52656249701977 44.946874998509884 24
    endloop
  endfacet
  facet normal 0.7631138459296107 -0.6462640777194091 0
    outer loop
      vertex 89.578125 47.365625001490116 5.99
      vertex 88.03125 45.5390625 24
      vertex 88.03125 45.5390625 5.99
    endloop
  endfacet
  facet normal 0.7631138459296107 -0.6462640777194091 0
    outer loop
      vertex 89.578125 47.365625001490116 5.99
      vertex 89.578125 47.365625001490116 24
      vertex 88.03125 45.5390625 24
    endloop
  endfacet
  facet normal 0.7570884296190097 -0.653312413579462 0
    outer loop
      vertex 118.71406249701977 81.12968750298023 5.99
      vertex 89.578125 47.365625001490116 24
      vertex 89.578125 47.365625001490116 5.99
    endloop
  endfacet
  facet normal 0.7570884296190097 -0.653312413579462 0
    outer loop
      vertex 118.71406249701977 81.12968750298023 5.99
      vertex 118.71406249701977 81.12968750298023 24
      vertex 89.578125 47.365625001490116 24
    endloop
  endfacet
  facet normal 0.7626941972120965 0.6467592763455314 0
    outer loop
      vertex 114.22500000149012 86.42343749850988 5.99
      vertex 118.71406249701977 81.12968750298023 24
      vertex 118.71406249701977 81.12968750298023 5.99
    endloop
  endfacet
  facet normal 0.7626941972120965 0.6467592763455314 0
    outer loop
      vertex 114.22500000149012 86.42343749850988 5.99
      vertex 114.22500000149012 86.42343749850988 24
      vertex 118.71406249701977 81.12968750298023 24
    endloop
  endfacet
  facet normal -0.756830097999391 0.6536116605158082 0
    outer loop
      vertex 85.07656250149012 52.671875 5.99
      vertex 114.22500000149012 86.42343749850988 24
      vertex 114.22500000149012 86.42343749850988 5.99
    endloop
  endfacet
  facet normal -0.756830097999391 0.6536116605158082 0
    outer loop
      vertex 85.07656250149012 52.671875 5.99
      vertex 85.07656250149012 52.671875 24
      vertex 114.22500000149012 86.42343749850988 24
    endloop
  endfacet
  facet normal -0.7631138459296107 0.6462640777194091 0
    outer loop
      vertex 83.52968750149012 50.845312498509884 5.99
      vertex 85.07656250149012 52.671875 24
      vertex 85.07656250149012 52.671875 5.99
    endloop
  endfacet
  facet normal -0.7631138459296107 0.6462640777194091 0
    outer loop
      vertex 83.52968750149012 50.845312498509884 5.99
      vertex 83.52968750149012 50.845312498509884 24
      vertex 85.07656250149012 52.671875 24
    endloop
  endfacet
  facet normal -0.7610963484956044 0.648638842736586 0
    outer loop
      vertex 83.02499999850988 50.25312499701977 5.99
      vertex 83.52968750149012 50.845312498509884 24
      vertex 83.52968750149012 50.845312498509884 5.99
    endloop
  endfacet
  facet normal -0.7610963484956044 0.648638842736586 0
    outer loop
      vertex 83.02499999850988 50.25312499701977 5.99
      vertex 83.02499999850988 50.25312499701977 24
      vertex 83.52968750149012 50.845312498509884 24
    endloop
  endfacet
  facet normal -0.7661915438277354 0.6426122611395394 0
    outer loop
      vertex 82.70000000298023 49.865625001490116 5.99
      vertex 83.02499999850988 50.25312499701977 24
      vertex 83.02499999850988 50.25312499701977 5.99
    endloop
  endfacet
  facet normal -0.7661915438277354 0.6426122611395394 0
    outer loop
      vertex 82.70000000298023 49.865625001490116 5.99
      vertex 82.70000000298023 49.865625001490116 24
      vertex 83.02499999850988 50.25312499701977 24
    endloop
  endfacet
  facet normal 0 1 0
    outer loop
      vertex 39.81562499701977 49.865625001490116 5.99
      vertex 82.70000000298023 49.865625001490116 24
      vertex 82.70000000298023 49.865625001490116 5.99
    endloop
  endfacet
  facet normal 0 1 0
    outer loop
      vertex 39.81562499701977 49.865625001490116 5.99
      vertex 39.81562499701977 49.865625001490116 24
      vertex 82.70000000298023 49.865625001490116 24
    endloop
  endfacet
  facet normal 0.7626548840296785 -0.6468056337615478 0
    outer loop
      vertex 61.58124999701977 75.52968750149012 5.99
      vertex 39.81562499701977 49.865625001490116 24
      vertex 39.81562499701977 49.865625001490116 5.99
    endloop
  endfacet
  facet normal 0.7626548840296785 -0.6468056337615478 0
    outer loop
      vertex 61.58124999701977 75.52968750149012 5.99
      vertex 61.58124999701977 75.52968750149012 24
      vertex 39.81562499701977 49.865625001490116 24
    endloop
  endfacet
  facet normal 0.7640740826347157 -0.6451285114191728 0
    outer loop
      vertex 62.08124999701977 76.12187500298023 5.99
      vertex 61.58124999701977 75.52968750149012 24
      vertex 61.58124999701977 75.52968750149012 5.99
    endloop
  endfacet
  facet normal 0.7640740826347157 -0.6451285114191728 0
    outer loop
      vertex 62.08124999701977 76.12187500298023 5.99
      vertex 62.08124999701977 76.12187500298023 24
      vertex 61.58124999701977 75.52968750149012 24
    endloop
  endfacet
  facet normal 0.7624214535181963 -0.6470807733314295 0
    outer loop
      vertex 63.6328125 77.95000000298023 5.99
      vertex 62.08124999701977 76.12187500298023 24
      vertex 62.08124999701977 76.12187500298023 5.99
    endloop
  endfacet
  facet normal 0.7624214535181963 -0.6470807733314295 0
    outer loop
      vertex 63.6328125 77.95000000298023 5.99
      vertex 63.6328125 77.95000000298023 24
      vertex 62.08124999701977 76.12187500298023 24
    endloop
  endfacet
  facet normal 0.7624619495507348 -0.6470330559463657 0
    outer loop
      vertex 74.84375 91.16093750298023 5.99
      vertex 63.6328125 77.95000000298023 24
      vertex 63.6328125 77.95000000298023 5.99
    endloop
  endfacet
  facet normal 0.7624619495507348 -0.6470330559463657 0
    outer loop
      vertex 74.84375 91.16093750298023 5.99
      vertex 74.84375 91.16093750298023 24
      vertex 63.6328125 77.95000000298023 24
    endloop
  endfacet
  facet normal 0.7625942050947047 -0.646877174087922 0
    outer loop
      vertex 80.70468749850988 98.0703125 5.99
      vertex 74.84375 91.16093750298023 24
      vertex 74.84375 91.16093750298023 5.99
    endloop
  endfacet
  facet normal 0.7625942050947047 -0.646877174087922 0
    outer loop
      vertex 80.70468749850988 98.0703125 5.99
      vertex 80.70468749850988 98.0703125 24
      vertex 74.84375 91.16093750298023 24
    endloop
  endfacet
  facet normal 0.7627266222510664 -0.6467210370086002 0
    outer loop
      vertex 83.20468749850988 101.01874999701977 5.99
      vertex 80.70468749850988 98.0703125 24
      vertex 80.70468749850988 98.0703125 5.99
    endloop
  endfacet
  facet normal 0.7627266222510664 -0.6467210370086002 0
    outer loop
      vertex 83.20468749850988 101.01874999701977 5.99
      vertex 83.20468749850988 101.01874999701977 24
      vertex 80.70468749850988 98.0703125 24
    endloop
  endfacet
  facet normal 0.7625243900871604 -0.6469594689949316 0
    outer loop
      vertex 99.0546875 119.70000000298023 5.99
      vertex 83.20468749850988 101.01874999701977 24
      vertex 83.20468749850988 101.01874999701977 5.99
    endloop
  endfacet
  facet normal 0.7625243900871604 -0.6469594689949316 0
    outer loop
      vertex 99.0546875 119.70000000298023 5.99
      vertex 99.0546875 119.70000000298023 24
      vertex 83.20468749850988 101.01874999701977 24
    endloop
  endfacet
  facet normal 0.7620723414277496 -0.6474918890849733 0
    outer loop
      vertex 103.55781249701977 125 5.99
      vertex 99.0546875 119.70000000298023 24
      vertex 99.0546875 119.70000000298023 5.99
    endloop
  endfacet
  facet normal 0.7620723414277496 -0.6474918890849733 0
    outer loop
      vertex 103.55781249701977 125 5.99
      vertex 103.55781249701977 125 24
      vertex 99.0546875 119.70000000298023 24
    endloop
  endfacet
  facet normal 0.7625972130335182 -0.6468736280553651 0
    outer loop
      vertex 125 150.27812500298023 5.99
      vertex 103.55781249701977 125 24
      vertex 103.55781249701977 125 5.99
    endloop
  endfacet
  facet normal 0.7625972130335182 -0.6468736280553651 0
    outer loop
      vertex 125 150.27812500298023 5.99
      vertex 125 150.27812500298023 24
      vertex 103.55781249701977 125 24
    endloop
  endfacet
  facet normal 0.7620890145057237 -0.6474722650196646 0
    outer loop
      vertex 129.50156249850988 155.57656250149012 5.99
      vertex 125 150.27812500298023 24
      vertex 125 150.27812500298023 5.99
    endloop
  endfacet
  facet normal 0.7620890145057237 -0.6474722650196646 0
    outer loop
      vertex 129.50156249850988 155.57656250149012 5.99
      vertex 129.50156249850988 155.57656250149012 24
      vertex 125 150.27812500298023 24
    endloop
  endfacet
  facet normal 0.7626534342926993 0.6468073431567944 0
    outer loop
      vertex 125 160.88437499850988 5.99
      vertex 129.50156249850988 155.57656250149012 24
      vertex 129.50156249850988 155.57656250149012 5.99
    endloop
  endfacet
  facet normal 0.7626534342926993 0.6468073431567944 0
    outer loop
      vertex 125 160.88437499850988 5.99
      vertex 125 160.88437499850988 24
      vertex 129.50156249850988 155.57656250149012 24
    endloop
  endfacet
  facet normal 0.762220705324375 0.6473172300926433 0
    outer loop
      vertex 120.12343750149012 166.62656249850988 5.99
      vertex 125 160.88437499850988 24
      vertex 125 160.88437499850988 5.99
    endloop
  endfacet
  facet normal 0.762220705324375 0.6473172300926433 0
    outer loop
      vertex 120.12343750149012 166.62656249850988 5.99
      vertex 120.12343750149012 166.62656249850988 24
      vertex 125 160.88437499850988 24
    endloop
  endfacet
  facet normal 0.7625638502030188 0.6469129573316241 0
    outer loop
      vertex 85.87968750298023 206.9921875 5.99
      vertex 120.12343750149012 166.62656249850988 24
      vertex 120.12343750149012 166.62656249850988 5.99
    endloop
  endfacet
  facet normal 0.7625638502030188 0.6469129573316241 0
    outer loop
      vertex 85.87968750298023 206.9921875 5.99
      vertex 85.87968750298023 206.9921875 24
      vertex 120.12343750149012 166.62656249850988 24
    endloop
  endfacet
  facet normal 0 1 0
    outer loop
      vertex 25 206.9921875 5.99
      vertex 85.87968750298023 206.9921875 24
      vertex 85.87968750298023 206.9921875 5.99
    endloop
  endfacet
  facet normal 0 1 0
    outer loop
      vertex 25 206.9921875 5.99
      vertex 25 206.9921875 24
      vertex 85.87968750298023 206.9921875 24
    endloop
  endfacet
  facet normal -0.7625538848256621 -0.6469247040709535 0
    outer loop
      vertex 94.55937500298023 125 5.99
      vertex 25 206.9921875 24
      vertex 25 206.9921875 5.99
    endloop
  endfacet
  facet normal -0.7625538848256621 -0.6469247040709535 0
    outer loop
      vertex 94.55937500298023 125 5.99
      vertex 94.55937500298023 125 24
      vertex 25 206.9921875 24
    endloop
  endfacet
  facet normal -0.7625470136015589 0.6469328033477233 0
    outer loop
      vertex 74.21406249701977 101.01874999701977 5.99
      vertex 94.55937500298023 125 24
      vertex 94.55937500298023 125 5.99
    endloop
  endfacet
  facet normal -0.7625470136015589 0.6469328033477233 0
    outer loop
      vertex 74.21406249701977 101.01874999701977 5.99
      vertex 74.21406249701977 101.01874999701977 24
      vertex 94.55937500298023 125 24
    endloop
  endfacet
  facet normal -0.7627266222510664 0.6467210370086002 0
    outer loop
      vertex 71.71406249701977 98.0703125 5.99
      vertex 74.21406249701977 101.01874999701977 24
      vertex 74.21406249701977 101.01874999701977 5.99
    endloop
  endfacet
  facet normal -0.7627266222510664 0.6467210370086002 0
    outer loop
      vertex 71.71406249701977 98.0703125 5.99
      vertex 71.71406249701977 98.0703125 24
      vertex 74.21406249701977 101.01874999701977 24
    endloop
  endfacet
  facet normal -0.7625942050947047 0.646877174087922 0
    outer loop
      vertex 65.85312499850988 91.16093750298023 5.99
      vertex 71.71406249701977 98.0703125 24
      vertex 71.71406249701977 98.0703125 5.99
    endloop
  endfacet
  facet normal -0.7625942050947047 0.646877174087922 0
    outer loop
      vertex 65.85312499850988 91.16093750298023 5.99
      vertex 65.85312499850988 91.16093750298023 24
      vertex 71.71406249701977 98.0703125 24
    endloop
  endfacet
  facet normal -0.7624145980739738 0.6470888506563076 0
    outer loop
      vertex 59.13750000298023 83.24843750149012 5.99
      vertex 65.85312499850988 91.16093750298023 24
      vertex 65.85312499850988 91.16093750298023 5.99
    endloop
  endfacet
  facet normal -0.7624145980739738 0.6470888506563076 0
    outer loop
      vertex 59.13750000298023 83.24843750149012 5.99
      vertex 59.13750000298023 83.24843750149012 24
      vertex 65.85312499850988 91.16093750298023 24
    endloop
  endfacet
  facet normal -0.762148398896266 0.6474023617966328 0
    outer loop
      vertex 57.5859375 81.421875 5.99
      vertex 59.13750000298023 83.24843750149012 24
      vertex 59.13750000298023 83.24843750149012 5.99
    endloop
  endfacet
  facet normal -0.762148398896266 0.6474023617966328 0
    outer loop
      vertex 57.5859375 81.421875 5.99
      vertex 57.5859375 81.421875 24
      vertex 59.13750000298023 83.24843750149012 24
    endloop
  endfacet
  facet normal -0.7640740826347157 0.6451285114191728 0
    outer loop
      vertex 57.0859375 80.82968749850988 5.99
      vertex 57.5859375 81.421875 24
      vertex 57.5859375 81.421875 5.99
    endloop
  endfacet
  facet normal -0.7640740826347157 0.6451285114191728 0
    outer loop
      vertex 57.0859375 80.82968749850988 5.99
      vertex 57.0859375 80.82968749850988 24
      vertex 57.5859375 81.421875 24
    endloop
  endfacet
  facet normal -0.762562349859003 0.646914725893232 0
    outer loop
      vertex 25 43.0078125 5.99
      vertex 57.0859375 80.82968749850988 24
      vertex 57.0859375 80.82968749850988 5.99
    endloop
  endfacet
  facet normal -0.762562349859003 0.646914725893232 0
    outer loop
      vertex 25 43.0078125 5.99
      vertex 25 43.0078125 24
      vertex 57.0859375 80.82968749850988 24
    endloop
  endfacet
  facet normal 0 -1 0
    outer loop
      vertex 85.87968750298023 43.0078125 5.99
      vertex 25 43.0078125 24
      vertex 25 43.0078125 5.99
    endloop
  endfacet
  facet normal 0 -1 0
    outer loop
      vertex 85.87968750298023 43.0078125 5.99
      vertex 85.87968750298023 43.0078125 24
      vertex 25 43.0078125 24
    endloop
  endfacet
  facet normal 0.7621344870331758 -0.6474187390512249 0
    outer loop
      vertex 86.64687500149012 43.91093750298023 5.99
      vertex 85.87968750298023 43.0078125 24
      vertex 85.87968750298023 43.0078125 5.99
    endloop
  endfacet
  facet normal 0.7621344870331758 -0.6474187390512249 0
    outer loop
      vertex 86.64687500149012 43.91093750298023 5.99
      vertex 86.64687500149012 43.91093750298023 24
      vertex 85.87968750298023 43.0078125 24
    endloop
  endfacet
  facet normal 0 0 1
    outer loop
      vertex 118.71406249701977 81.12968750298023 24
      vertex 114.22500000149012 86.42343749850988 24
      vertex 85.07656250149012 52.671875 24
    endloop
  endfacet
  facet normal 0 0 1
    outer loop
      vertex 89.578125 47.365625001490116 24
      vertex 118.71406249701977 81.12968750298023 24
      vertex 85.07656250149012 52.671875 24
    endloop
  endfacet
  facet normal 0 0 1
    outer loop
      vertex 89.578125 47.365625001490116 24
      vertex 85.07656250149012 52.671875 24
      vertex 83.52968750149012 50.845312498509884 24
    endloop
  endfacet
  facet normal 0 0 1
    outer loop
      vertex 88.03125 45.5390625 24
      vertex 89.578125 47.365625001490116 24
      vertex 83.52968750149012 50.845312498509884 24
    endloop
  endfacet
  facet normal 0 0 1
    outer loop
      vertex 88.03125 45.5390625 24
      vertex 83.52968750149012 50.845312498509884 24
      vertex 83.02499999850988 50.25312499701977 24
    endloop
  endfacet
  facet normal 0 0 1
    outer loop
      vertex 88.03125 45.5390625 24
      vertex 83.02499999850988 50.25312499701977 24
      vertex 82.70000000298023 49.865625001490116 24
    endloop
  endfacet
  facet normal 0 0 1
    outer loop
      vertex 87.52656249701977 44.946874998509884 24
      vertex 88.03125 45.5390625 24
      vertex 82.70000000298023 49.865625001490116 24
    endloop
  endfacet
  facet normal 0 0 1
    outer loop
      vertex 86.64687500149012 43.91093750298023 24
      vertex 87.52656249701977 44.946874998509884 24
      vertex 82.70000000298023 49.865625001490116 24
    endloop
  endfacet
  facet normal 0 0 1
    outer loop
      vertex 125 150.27812500298023 24
      vertex 129.50156249850988 155.57656250149012 24
      vertex 125 160.88437499850988 24
    endloop
  endfacet
  facet normal 0 0 1
    outer loop
      vertex 85.87968750298023 43.0078125 24
      vertex 86.64687500149012 43.91093750298023 24
      vertex 82.70000000298023 49.865625001490116 24
    endloop
  endfacet
  facet normal 0 0 1
    outer loop
      vertex 85.87968750298023 43.0078125 24
      vertex 82.70000000298023 49.865625001490116 24
      vertex 39.81562499701977 49.865625001490116 24
    endloop
  endfacet
  facet normal 0 0 1
    outer loop
      vertex 25 43.0078125 24
      vertex 85.87968750298023 43.0078125 24
      vertex 39.81562499701977 49.865625001490116 24
    endloop
  endfacet
  facet normal 0 0 1
    outer loop
      vertex 57.0859375 80.82968749850988 24
      vertex 25 43.0078125 24
      vertex 39.81562499701977 49.865625001490116 24
    endloop
  endfacet
  facet normal 0 0 1
    outer loop
      vertex 57.0859375 80.82968749850988 24
      vertex 39.81562499701977 49.865625001490116 24
      vertex 61.58124999701977 75.52968750149012 24
    endloop
  endfacet
  facet normal 0 0 1
    outer loop
      vertex 57.0859375 80.82968749850988 24
      vertex 61.58124999701977 75.52968750149012 24
      vertex 62.08124999701977 76.12187500298023 24
    endloop
  endfacet
  facet normal 0 0 1
    outer loop
      vertex 57.5859375 81.421875 24
      vertex 57.0859375 80.82968749850988 24
      vertex 62.08124999701977 76.12187500298023 24
    endloop
  endfacet
  facet normal 0 0 1
    outer loop
      vertex 57.5859375 81.421875 24
      vertex 62.08124999701977 76.12187500298023 24
      vertex 63.6328125 77.95000000298023 24
    endloop
  endfacet
  facet normal 0 0 1
    outer loop
      vertex 59.13750000298023 83.24843750149012 24
      vertex 57.5859375 81.421875 24
      vertex 63.6328125 77.95000000298023 24
    endloop
  endfacet
  facet normal 0 0 1
    outer loop
      vertex 65.85312499850988 91.16093750298023 24
      vertex 59.13750000298023 83.24843750149012 24
      vertex 63.6328125 77.95000000298023 24
    endloop
  endfacet
  facet normal 0 0 1
    outer loop
      vertex 65.85312499850988 91.16093750298023 24
      vertex 63.6328125 77.95000000298023 24
      vertex 74.84375 91.16093750298023 24
    endloop
  endfacet
  facet normal 0 0 1
    outer loop
      vertex 71.71406249701977 98.0703125 24
      vertex 65.85312499850988 91.16093750298023 24
      vertex 74.84375 91.16093750298023 24
    endloop
  endfacet
  facet normal 0 0 1
    outer loop
      vertex 71.71406249701977 98.0703125 24
      vertex 74.84375 91.16093750298023 24
      vertex 80.70468749850988 98.0703125 24
    endloop
  endfacet
  facet normal 0 0 1
    outer loop
      vertex 74.21406249701977 101.01874999701977 24
      vertex 71.71406249701977 98.0703125 24
      vertex 80.70468749850988 98.0703125 24
    endloop
  endfacet
  facet normal 0 0 1
    outer loop
      vertex 74.21406249701977 101.01874999701977 24
      vertex 80.70468749850988 98.0703125 24
      vertex 83.20468749850988 101.01874999701977 24
    endloop
  endfacet
  facet normal 0 0 1
    outer loop
      vertex 94.55937500298023 125 24
      vertex 74.21406249701977 101.01874999701977 24
      vertex 83.20468749850988 101.01874999701977 24
    endloop
  endfacet
  facet normal 0 0 1
    outer loop
      vertex 94.55937500298023 125 24
      vertex 83.20468749850988 101.01874999701977 24
      vertex 99.0546875 119.70000000298023 24
    endloop
  endfacet
  facet normal 0 0 1
    outer loop
      vertex 94.55937500298023 125 24
      vertex 99.0546875 119.70000000298023 24
      vertex 103.55781249701977 125 24
    endloop
  endfacet
  facet normal 0 0 1
    outer loop
      vertex 85.87968750298023 206.9921875 24
      vertex 25 206.9921875 24
      vertex 94.55937500298023 125 24
    endloop
  endfacet
  facet normal 0 0 1
    outer loop
      vertex 120.12343750149012 166.62656249850988 24
      vertex 85.87968750298023 206.9921875 24
      vertex 94.55937500298023 125 24
    endloop
  endfacet
  facet normal 0 0 1
    outer loop
      vertex 125 160.88437499850988 24
      vertex 120.12343750149012 166.62656249850988 24
      vertex 94.55937500298023 125 24
    endloop
  endfacet
  facet normal 0 0 1
    outer loop
      vertex 125 150.27812500298023 24
      vertex 125 160.88437499850988 24
      vertex 94.55937500298023 125 24
    endloop
  endfacet
  facet normal 0 0 1
    outer loop
      vertex 103.55781249701977 125 24
      vertex 125 150.27812500298023 24
      vertex 94.55937500298023 125 24
    endloop
  endfacet
  facet normal 0 0 -1
    outer loop
      vertex 85.07656250149012 52.671875 5.99
      vertex 114.22500000149012 86.42343749850988 5.99
      vertex 118.71406249701977 81.12968750298023 5.99
    endloop
  endfacet
  facet normal 0 0 -1
    outer loop
      vertex 85.07656250149012 52.671875 5.99
      vertex 118.71406249701977 81.12968750298023 5.99
      vertex 89.578125 47.365625001490116 5.99
    endloop
  endfacet
  facet normal 0 0 -1
    outer loop
      vertex 83.52968750149012 50.845312498509884 5.99
      vertex 85.07656250149012 52.671875 5.99
      vertex 89.578125 47.365625001490116 5.99
    endloop
  endfacet
  facet normal 0 0 -1
    outer loop
      vertex 83.52968750149012 50.845312498509884 5.99
      vertex 89.578125 47.365625001490116 5.99
      vertex 88.03125 45.5390625 5.99
    endloop
  endfacet
  facet normal 0 0 -1
    outer loop
      vertex 83.02499999850988 50.25312499701977 5.99
      vertex 83.52968750149012 50.845312498509884 5.99
      vertex 88.03125 45.5390625 5.99
    endloop
  endfacet
  facet normal 0 0 -1
    outer loop
      vertex 82.70000000298023 49.865625001490116 5.99
      vertex 83.02499999850988 50.25312499701977 5.99
      vertex 88.03125 45.5390625 5.99
    endloop
  endfacet
  facet normal 0 0 -1
    outer loop
      vertex 82.70000000298023 49.865625001490116 5.99
      vertex 88.03125 45.5390625 5.99
      vertex 87.52656249701977 44.946874998509884 5.99
    endloop
  endfacet
  facet normal 0 0 -1
    outer loop
      vertex 82.70000000298023 49.865625001490116 5.99
      vertex 87.52656249701977 44.946874998509884 5.99
      vertex 86.64687500149012 43.91093750298023 5.99
    endloop
  endfacet
  facet normal 0 0 -1
    outer loop
      vertex 125 160.88437499850988 5.99
      vertex 129.50156249850988 155.57656250149012 5.99
      vertex 125 150.27812500298023 5.99
    endloop
  endfacet
  facet normal 0 0 -1
    outer loop
      vertex 82.70000000298023 49.865625001490116 5.99
      vertex 86.64687500149012 43.91093750298023 5.99
      vertex 85.87968750298023 43.0078125 5.99
    endloop
  endfacet
  facet normal 0 0 -1
    outer loop
      vertex 39.81562499701977 49.865625001490116 5.99
      vertex 82.70000000298023 49.865625001490116 5.99
      vertex 85.87968750298023 43.0078125 5.99
    endloop
  endfacet
  facet normal 0 0 -1
    outer loop
      vertex 39.81562499701977 49.865625001490116 5.99
      vertex 85.87968750298023 43.0078125 5.99
      vertex 25 43.0078125 5.99
    endloop
  endfacet
  facet normal 0 0 -1
    outer loop
      vertex 39.81562499701977 49.865625001490116 5.99
      vertex 25 43.0078125 5.99
      vertex 57.0859375 80.82968749850988 5.99
    endloop
  endfacet
  facet normal 0 0 -1
    outer loop
      vertex 61.58124999701977 75.52968750149012 5.99
      vertex 39.81562499701977 49.865625001490116 5.99
      vertex 57.0859375 80.82968749850988 5.99
    endloop
  endfacet
  facet normal 0 0 -1
    outer loop
      vertex 62.08124999701977 76.12187500298023 5.99
      vertex 61.58124999701977 75.52968750149012 5.99
      vertex 57.0859375 80.82968749850988 5.99
    endloop
  endfacet
  facet normal 0 0 -1
    outer loop
      vertex 62.08124999701977 76.12187500298023 5.99
      vertex 57.0859375 80.82968749850988 5.99
      vertex 57.5859375 81.421875 5.99
    endloop
  endfacet
  facet normal 0 0 -1
    outer loop
      vertex 63.6328125 77.95000000298023 5.99
      vertex 62.08124999701977 76.12187500298023 5.99
      vertex 57.5859375 81.421875 5.99
    endloop
  endfacet
  facet normal 0 0 -1
    outer loop
      vertex 63.6328125 77.95000000298023 5.99
      vertex 57.5859375 81.421875 5.99
      vertex 59.13750000298023 83.24843750149012 5.99
    endloop
  endfacet
  facet normal 0 0 -1
    outer loop
      vertex 63.6328125 77.95000000298023 5.99
      vertex 59.13750000298023 83.24843750149012 5.99
      vertex 65.85312499850988 91.16093750298023 5.99
    endloop
  endfacet
  facet normal 0 0 -1
    outer loop
      vertex 74.84375 91.16093750298023 5.99
      vertex 63.6328125 77.95000000298023 5.99
      vertex 65.85312499850988 91.16093750298023 5.99
    endloop
  endfacet
  facet normal 0 0 -1
    outer loop
      vertex 74.84375 91.16093750298023 5.99
      vertex 65.85312499850988 91.16093750298023 5.99
      vertex 71.71406249701977 98.0703125 5.99
    endloop
  endfacet
  facet normal 0 0 -1
    outer loop
      vertex 80.70468749850988 98.0703125 5.99
      vertex 74.84375 91.16093750298023 5.99
      vertex 71.71406249701977 98.0703125 5.99
    endloop
  endfacet
  facet normal 0 0 -1
    outer loop
      vertex 80.70468749850988 98.0703125 5.99
      vertex 71.71406249701977 98.0703125 5.99
      vertex 74.21406249701977 101.01874999701977 5.99
    endloop
  endfacet
  facet normal 0 0 -1
    outer loop
      vertex 83.20468749850988 101.01874999701977 5.99
      vertex 80.70468749850988 98.0703125 5.99
      vertex 74.21406249701977 101.01874999701977 5.99
    endloop
  endfacet
  facet normal 0 0 -1
    outer loop
      vertex 83.20468749850988 101.01874999701977 5.99
      vertex 74.21406249701977 101.01874999701977 5.99
      vertex 94.55937500298023 125 5.99
    endloop
  endfacet
  facet normal 0 0 -1
    outer loop
      vertex 99.0546875 119.70000000298023 5.99
      vertex 83.20468749850988 101.01874999701977 5.99
      vertex 94.55937500298023 125 5.99
    endloop
  endfacet
  facet normal 0 0 -1
    outer loop
      vertex 103.55781249701977 125 5.99
      vertex 99.0546875 119.70000000298023 5.99
      vertex 94.55937500298023 125 5.99
    endloop
  endfacet
  facet normal 0 0 -1
    outer loop
      vertex 94.55937500298023 125 5.99
      vertex 25 206.9921875 5.99
      vertex 85.87968750298023 206.9921875 5.99
    endloop
  endfacet
  facet normal 0 0 -1
    outer loop
      vertex 94.55937500298023 125 5.99
      vertex 85.87968750298023 206.9921875 5.99
      vertex 120.12343750149012 166.62656249850988 5.99
    endloop
  endfacet
  facet normal 0 0 -1
    outer loop
      vertex 94.55937500298023 125 5.99
      vertex 120.12343750149012 166.62656249850988 5.99
      vertex 125 160.88437499850988 5.99
    endloop
  endfacet
  facet normal 0 0 -1
    outer loop
      vertex 94.55937500298023 125 5.99
      vertex 125 160.88437499850988 5.99
      vertex 125 150.27812500298023 5.99
    endloop
  endfacet
  facet normal 0 0 -1
    outer loop
      vertex 94.55937500298023 125 5.99
      vertex 125 150.27812500298023 5.99
      vertex 103.55781249701977 125 5.99
    endloop
  endfacet
endsolid OpenSCAD_Model
