solid OpenSCAD_Model
  facet normal 0.7625711042949236 0.6469044063031423 0
    outer loop
      vertex 155.44062499701977 125 5.99
      vertex 185.1875 89.93437500298023 24
      vertex 185.1875 89.93437500298023 5.99
    endloop
  endfacet
  facet normal 0.7625711042949236 0.6469044063031423 0
    outer loop
      vertex 155.44062499701977 125 5.99
      vertex 155.44062499701977 125 24
      vertex 185.1875 89.93437500298023 24
    endloop
  endfacet
  facet normal 0.7625594846479726 -0.6469181032970235 0
    outer loop
      vertex 159.94218750298023 130.30624999850988 5.99
      vertex 155.44062499701977 125 24
      vertex 155.44062499701977 125 5.99
    endloop
  endfacet
  facet normal 0.7625594846479726 -0.6469181032970235 0
    outer loop
      vertex 159.94218750298023 130.30624999850988 5.99
      vertex 159.94218750298023 130.30624999850988 24
      vertex 155.44062499701977 125 24
    endloop
  endfacet
  facet normal 0.7625182975114255 -0.6469666498052872 0
    outer loop
      vertex 181.38437499850988 155.578125 5.99
      vertex 159.94218750298023 130.30624999850988 24
      vertex 159.94218750298023 130.30624999850988 5.99
    endloop
  endfacet
  facet normal 0.7625182975114255 -0.6469666498052872 0
    outer loop
      vertex 181.38437499850988 155.578125 5.99
      vertex 181.38437499850988 155.578125 24
      vertex 159.94218750298023 130.30624999850988 24
    endloop
  endfacet
  facet normal 0.762532665925842 -0.6469497147352552 0
    outer loop
      vertex 185.87968750298023 160.87656249850988 5.99
      vertex 181.38437499850988 155.578125 24
      vertex 181.38437499850988 155.578125 5.99
    endloop
  endfacet
  facet normal 0.762532665925842 -0.6469497147352552 0
    outer loop
      vertex 185.87968750298023 160.87656249850988 5.99
      vertex 185.87968750298023 160.87656249850988 24
      vertex 181.38437499850988 155.578125 24
    endloop
  endfacet
  facet normal 0.7625751811503801 -0.646899600474034 0
    outer loop
      vertex 225 206.9921875 5.99
      vertex 185.87968750298023 160.87656249850988 24
      vertex 185.87968750298023 160.87656249850988 5.99
    endloop
  endfacet
  facet normal 0.7625751811503801 -0.646899600474034 0
    outer loop
      vertex 225 206.9921875 5.99
      vertex 225 206.9921875 24
      vertex 185.87968750298023 160.87656249850988 24
    endloop
  endfacet
  facet normal 0 1 0
    outer loop
      vertex 164.12031249701977 206.9921875 5.99
      vertex 225 206.9921875 24
      vertex 225 206.9921875 5.99
    endloop
  endfacet
  facet normal 0 1 0
    outer loop
      vertex 164.12031249701977 206.9921875 5.99
      vertex 164.12031249701977 206.9921875 24
      vertex 225 206.9921875 24
    endloop
  endfacet
  facet normal -0.7625761393018703 0.6468984709886509 0
    outer loop
      vertex 139.54062499850988 178.01718749850988 5.99
      vertex 164.12031249701977 206.9921875 24
      vertex 164.12031249701977 206.9921875 5.99
    endloop
  endfacet
  facet normal -0.7625761393018703 0.6468984709886509 0
    outer loop
      vertex 139.54062499850988 178.01718749850988 5.99
      vertex 139.54062499850988 178.01718749850988 24
      vertex 164.12031249701977 206.9921875 24
    endloop
  endfacet
  facet normal -0.7621686031020577 0.647378575831374 0
    outer loop
      vertex 133.01093749701977 170.32968749850988 5.99
      vertex 139.54062499850988 178.01718749850988 24
      vertex 139.54062499850988 178.01718749850988 5.99
    endloop
  endfacet
  facet normal -0.7621686031020577 0.647378575831374 0
    outer loop
      vertex 133.01093749701977 170.32968749850988 5.99
      vertex 133.01093749701977 170.32968749850988 24
      vertex 139.54062499850988 178.01718749850988 24
    endloop
  endfacet
  facet normal -0.7631452093632681 0.6462270417012071 0
    outer loop
      vertex 131.421875 168.453125 5.99
      vertex 133.01093749701977 170.32968749850988 24
      vertex 133.01093749701977 170.32968749850988 5.99
    endloop
  endfacet
  facet normal -0.7631452093632681 0.6462270417012071 0
    outer loop
      vertex 131.421875 168.453125 5.99
      vertex 131.421875 168.453125 24
      vertex 133.01093749701977 170.32968749850988 24
    endloop
  endfacet
  facet normal -0.7631138459296107 -0.6462640777194091 0
    outer loop
      vertex 132.96875 166.62656249850988 5.99
      vertex 131.421875 168.453125 24
      vertex 131.421875 168.453125 5.99
    endloop
  endfacet
  facet normal -0.7631138459296107 -0.6462640777194091 0
    outer loop
      vertex 132.96875 166.62656249850988 5.99
      vertex 132.96875 166.62656249850988 24
      vertex 131.421875 168.453125 24
    endloop
  endfacet
  facet normal -0.7622685876538632 -0.6472608440777061 0
    outer loop
      vertex 135.92343749850988 163.14687500149012 5.99
      vertex 132.96875 166.62656249850988 24
      vertex 132.96875 166.62656249850988 5.99
    endloop
  endfacet
  facet normal -0.7622685876538632 -0.6472608440777061 0
    outer loop
      vertex 135.92343749850988 163.14687500149012 5.99
      vertex 135.92343749850988 163.14687500149012 24
      vertex 132.96875 166.62656249850988 24
    endloop
  endfacet
  facet normal 0.762831877850943 -0.6465968807026554 0
    outer loop
      vertex 137.51406250149012 165.0234375 5.99
      vertex 135.92343749850988 163.14687500149012 24
      vertex 135.92343749850988 163.14687500149012 5.99
    endloop
  endfacet
  facet normal 0.762831877850943 -0.6465968807026554 0
    outer loop
      vertex 137.51406250149012 165.0234375 5.99
      vertex 137.51406250149012 165.0234375 24
      vertex 135.92343749850988 163.14687500149012 24
    endloop
  endfacet
  facet normal 0.7625693143029427 -0.6469065163402977 0
    outer loop
      vertex 144.04218749701977 172.71875 5.99
      vertex 137.51406250149012 165.0234375 24
      vertex 137.51406250149012 165.0234375 5.99
    endloop
  endfacet
  facet normal 0.7625693143029427 -0.6469065163402977 0
    outer loop
      vertex 144.04218749701977 172.71875 5.99
      vertex 144.04218749701977 172.71875 24
      vertex 137.51406250149012 165.0234375 24
    endloop
  endfacet
  facet normal 0.7625630584306758 -0.6469138906507214 0
    outer loop
      vertex 167.29999999701977 200.13437499850988 5.99
      vertex 144.04218749701977 172.71875 24
      vertex 144.04218749701977 172.71875 5.99
    endloop
  endfacet
  facet normal 0.7625630584306758 -0.6469138906507214 0
    outer loop
      vertex 167.29999999701977 200.13437499850988 5.99
      vertex 167.29999999701977 200.13437499850988 24
      vertex 144.04218749701977 172.71875 24
    endloop
  endfacet
  facet normal 0 -1 0
    outer loop
      vertex 210.18437500298023 200.13437499850988 5.99
      vertex 167.29999999701977 200.13437499850988 24
      vertex 167.29999999701977 200.13437499850988 5.99
    endloop
  endfacet
  facet normal 0 -1 0
    outer loop
      vertex 210.18437500298023 200.13437499850988 5.99
      vertex 210.18437500298023 200.13437499850988 24
      vertex 167.29999999701977 200.13437499850988 24
    endloop
  endfacet
  facet normal -0.7625909751066501 0.6468809818551544 0
    outer loop
      vertex 181.38437499850988 166.18281249701977 5.99
      vertex 210.18437500298023 200.13437499850988 24
      vertex 210.18437500298023 200.13437499850988 5.99
    endloop
  endfacet
  facet normal -0.7625909751066501 0.6468809818551544 0
    outer loop
      vertex 181.38437499850988 166.18281249701977 5.99
      vertex 181.38437499850988 166.18281249701977 24
      vertex 210.18437500298023 200.13437499850988 24
    endloop
  endfacet
  facet normal -0.7626267599505855 0.646838793678357 0
    outer loop
      vertex 176.88906250149012 160.8828125 5.99
      vertex 181.38437499850988 166.18281249701977 24
      vertex 181.38437499850988 166.18281249701977 5.99
    endloop
  endfacet
  facet normal -0.7626267599505855 0.646838793678357 0
    outer loop
      vertex 176.88906250149012 160.8828125 5.99
      vertex 176.88906250149012 160.8828125 24
      vertex 181.38437499850988 166.18281249701977 24
    endloop
  endfacet
  facet normal -0.7625774872460604 0.6468968820032174 0
    outer loop
      vertex 155.44687499850988 135.60625000298023 5.99
      vertex 176.88906250149012 160.8828125 24
      vertex 176.88906250149012 160.8828125 5.99
    endloop
  endfacet
  facet normal -0.7625774872460604 0.6468968820032174 0
    outer loop
      vertex 155.44687499850988 135.60625000298023 5.99
      vertex 155.44687499850988 135.60625000298023 24
      vertex 176.88906250149012 160.8828125 24
    endloop
  endfacet
  facet normal -0.7624487188790977 0.6470486466098379 0
    outer loop
      vertex 150.94375000149012 130.29999999701977 5.99
      vertex 155.44687499850988 135.60625000298023 24
      vertex 155.44687499850988 135.60625000298023 5.99
    endloop
  endfacet
  facet normal -0.7624487188790977 0.6470486466098379 0
    outer loop
      vertex 150.94375000149012 130.29999999701977 5.99
      vertex 150.94375000149012 130.29999999701977 24
      vertex 155.44687499850988 135.60625000298023 24
    endloop
  endfacet
  facet normal -0.7621832052591375 0.6473613840977136 0
    outer loop
      vertex 146.44218750298023 125 5.99
      vertex 150.94375000149012 130.29999999701977 24
      vertex 150.94375000149012 130.29999999701977 5.99
    endloop
  endfacet
  facet normal -0.7621832052591375 0.6473613840977136 0
    outer loop
      vertex 146.44218750298023 125 5.99
      vertex 146.44218750298023 125 24
      vertex 150.94375000149012 130.29999999701977 24
    endloop
  endfacet
  facet normal -0.7621832052591375 -0.6473613840977136 0
    outer loop
      vertex 150.94375000149012 119.70000000298023 5.99
      vertex 146.44218750298023 125 24
      vertex 146.44218750298023 125 5.99
    endloop
  endfacet
  facet normal -0.7621832052591375 -0.6473613840977136 0
    outer loop
      vertex 150.94375000149012 119.70000000298023 5.99
      vertex 150.94375000149012 119.70000000298023 24
      vertex 146.44218750298023 125 24
    endloop
  endfacet
  facet normal -0.7625779993044639 -0.6468962783760632 0
    outer loop
      vertex 210.18437500298023 49.865625001490116 5.99
      vertex 150.94375000149012 119.70000000298023 24
      vertex 150.94375000149012 119.70000000298023 5.99
    endloop
  endfacet
  facet normal -0.7625779993044639 -0.6468962783760632 0
    outer loop
      vertex 210.18437500298023 49.865625001490116 5.99
      vertex 210.18437500298023 49.865625001490116 24
      vertex 150.94375000149012 119.70000000298023 24
    endloop
  endfacet
  facet normal 0 1 0
    outer loop
      vertex 167.29999999701977 49.865625001490116 5.99
      vertex 210.18437500298023 49.865625001490116 24
      vertex 210.18437500298023 49.865625001490116 5.99
    endloop
  endfacet
  facet normal 0 1 0
    outer loop
      vertex 167.29999999701977 49.865625001490116 5.99
      vertex 167.29999999701977 49.865625001490116 24
      vertex 210.18437500298023 49.865625001490116 24
    endloop
  endfacet
  facet normal 0.7625812457455929 0.6468924513681541 0
    outer loop
      vertex 144.04218749701977 77.28281249850988 5.99
      vertex 167.29999999701977 49.865625001490116 24
      vertex 167.29999999701977 49.865625001490116 5.99
    endloop
  endfacet
  facet normal 0.7625812457455929 0.6468924513681541 0
    outer loop
      vertex 144.04218749701977 77.28281249850988 5.99
      vertex 144.04218749701977 77.28281249850988 24
      vertex 167.29999999701977 49.865625001490116 24
    endloop
  endfacet
  facet normal 0.762465487786584 0.6470288864759954 0
    outer loop
      vertex 139.54062499850988 82.58749999850988 5.99
      vertex 144.04218749701977 77.28281249850988 24
      vertex 144.04218749701977 77.28281249850988 5.99
    endloop
  endfacet
  facet normal 0.762465487786584 0.6470288864759954 0
    outer loop
      vertex 139.54062499850988 82.58749999850988 5.99
      vertex 139.54062499850988 82.58749999850988 24
      vertex 144.04218749701977 77.28281249850988 24
    endloop
  endfacet
  facet normal 0.7626220014829032 0.64684440389804 0
    outer loop
      vertex 129.50156249850988 94.42343749850988 5.99
      vertex 139.54062499850988 82.58749999850988 24
      vertex 139.54062499850988 82.58749999850988 5.99
    endloop
  endfacet
  facet normal 0.7626220014829032 0.64684440389804 0
    outer loop
      vertex 129.50156249850988 94.42343749850988 5.99
      vertex 129.50156249850988 94.42343749850988 24
      vertex 139.54062499850988 82.58749999850988 24
    endloop
  endfacet
  facet normal 0.7620890145057237 0.6474722650196646 0
    outer loop
      vertex 125 99.72187499701977 5.99
      vertex 129.50156249850988 94.42343749850988 24
      vertex 129.50156249850988 94.42343749850988 5.99
    endloop
  endfacet
  facet normal 0.7620890145057237 0.6474722650196646 0
    outer loop
      vertex 125 99.72187499701977 5.99
      vertex 125 99.72187499701977 24
      vertex 129.50156249850988 94.42343749850988 24
    endloop
  endfacet
  facet normal 0.7628197366581493 0.6466112041751145 0
    outer loop
      vertex 118.09687499701977 107.86562500149012 5.99
      vertex 125 99.72187499701977 24
      vertex 125 99.72187499701977 5.99
    endloop
  endfacet
  facet normal 0.7628197366581493 0.6466112041751145 0
    outer loop
      vertex 118.09687499701977 107.86562500149012 5.99
      vertex 118.09687499701977 107.86562500149012 24
      vertex 125 99.72187499701977 24
    endloop
  endfacet
  facet normal 0.7687924278166194 0.6394983994755796 0
    outer loop
      vertex 116.52031250298023 109.76093749701977 5.99
      vertex 118.09687499701977 107.86562500149012 24
      vertex 118.09687499701977 107.86562500149012 5.99
    endloop
  endfacet
  facet normal 0.7687924278166194 0.6394983994755796 0
    outer loop
      vertex 116.52031250298023 109.76093749701977 5.99
      vertex 116.52031250298023 109.76093749701977 24
      vertex 118.09687499701977 107.86562500149012 24
    endloop
  endfacet
  facet normal 0.7695077087094384 0.6386375233547981 0
    outer loop
      vertex 112.07500000298023 115.1171875 5.99
      vertex 116.52031250298023 109.76093749701977 24
      vertex 116.52031250298023 109.76093749701977 5.99
    endloop
  endfacet
  facet normal 0.7695077087094384 0.6386375233547981 0
    outer loop
      vertex 112.07500000298023 115.1171875 5.99
      vertex 112.07500000298023 115.1171875 24
      vertex 116.52031250298023 109.76093749701977 24
    endloop
  endfacet
  facet normal -0.7627617974656699 0.6466795499526333 0
    outer loop
      vertex 107.59218750149012 109.82968749850988 5.99
      vertex 112.07500000298023 115.1171875 24
      vertex 112.07500000298023 115.1171875 5.99
    endloop
  endfacet
  facet normal -0.7627617974656699 0.6466795499526333 0
    outer loop
      vertex 107.59218750149012 109.82968749850988 5.99
      vertex 107.59218750149012 109.82968749850988 24
      vertex 112.07500000298023 115.1171875 24
    endloop
  endfacet
  facet normal -0.7711198332300467 -0.6366900366734701 0
    outer loop
      vertex 112.02499999850988 104.4609375 5.99
      vertex 107.59218750149012 109.82968749850988 24
      vertex 107.59218750149012 109.82968749850988 5.99
    endloop
  endfacet
  facet normal -0.7711198332300467 -0.6366900366734701 0
    outer loop
      vertex 112.02499999850988 104.4609375 5.99
      vertex 112.02499999850988 104.4609375 24
      vertex 107.59218750149012 109.82968749850988 24
    endloop
  endfacet
  facet normal -0.7710699473642553 -0.6367504505469036 0
    outer loop
      vertex 113.59531249850988 102.55937500298023 5.99
      vertex 112.02499999850988 104.4609375 24
      vertex 112.02499999850988 104.4609375 5.99
    endloop
  endfacet
  facet normal -0.7710699473642553 -0.6367504505469036 0
    outer loop
      vertex 113.59531249850988 102.55937500298023 5.99
      vertex 113.59531249850988 102.55937500298023 24
      vertex 112.02499999850988 104.4609375 24
    endloop
  endfacet
  facet normal -0.7625135137402997 -0.6469722879408528 0
    outer loop
      vertex 120.49843750149012 94.42343749850988 5.99
      vertex 113.59531249850988 102.55937500298023 24
      vertex 113.59531249850988 102.55937500298023 5.99
    endloop
  endfacet
  facet normal -0.7625135137402997 -0.6469722879408528 0
    outer loop
      vertex 120.49843750149012 94.42343749850988 5.99
      vertex 120.49843750149012 94.42343749850988 24
      vertex 113.59531249850988 102.55937500298023 24
    endloop
  endfacet
  facet normal -0.7626534342926993 -0.6468073431567944 0
    outer loop
      vertex 125 89.11562500149012 5.99
      vertex 120.49843750149012 94.42343749850988 24
      vertex 120.49843750149012 94.42343749850988 5.99
    endloop
  endfacet
  facet normal -0.7626534342926993 -0.6468073431567944 0
    outer loop
      vertex 125 89.11562500149012 5.99
      vertex 125 89.11562500149012 24
      vertex 120.49843750149012 94.42343749850988 24
    endloop
  endfacet
  facet normal -0.7621686027375847 -0.6473785762604736 0
    outer loop
      vertex 127.17656250298023 86.55312500149012 5.99
      vertex 125 89.11562500149012 24
      vertex 125 89.11562500149012 5.99
    endloop
  endfacet
  facet normal -0.7621686027375847 -0.6473785762604736 0
    outer loop
      vertex 127.17656250298023 86.55312500149012 5.99
      vertex 127.17656250298023 86.55312500149012 24
      vertex 125 89.11562500149012 24
    endloop
  endfacet
  facet normal -0.7625326664548104 -0.6469497141117823 0
    outer loop
      vertex 131.671875 81.25468750298023 5.99
      vertex 127.17656250298023 86.55312500149012 24
      vertex 127.17656250298023 86.55312500149012 5.99
    endloop
  endfacet
  facet normal -0.7625326664548104 -0.6469497141117823 0
    outer loop
      vertex 131.671875 81.25468750298023 5.99
      vertex 131.671875 81.25468750298023 24
      vertex 127.17656250298023 86.55312500149012 24
    endloop
  endfacet
  facet normal -0.762891408074889 -0.6465266425179345 0
    outer loop
      vertex 133.68593750149012 78.87812499701977 5.99
      vertex 131.671875 81.25468750298023 24
      vertex 131.671875 81.25468750298023 5.99
    endloop
  endfacet
  facet normal -0.762891408074889 -0.6465266425179345 0
    outer loop
      vertex 133.68593750149012 78.87812499701977 5.99
      vertex 133.68593750149012 78.87812499701977 24
      vertex 131.671875 81.25468750298023 24
    endloop
  endfacet
  facet normal -0.7626207854905267 -0.6468458375361259 0
    outer loop
      vertex 135.0390625 77.28281249850988 5.99
      vertex 133.68593750149012 78.87812499701977 24
      vertex 133.68593750149012 78.87812499701977 5.99
    endloop
  endfacet
  facet normal -0.7626207854905267 -0.6468458375361259 0
    outer loop
      vertex 135.0390625 77.28281249850988 5.99
      vertex 135.0390625 77.28281249850988 24
      vertex 133.68593750149012 78.87812499701977 24
    endloop
  endfacet
  facet normal -0.762629332681318 -0.6468357604013923 0
    outer loop
      vertex 138.18124999850988 73.578125 5.99
      vertex 135.0390625 77.28281249850988 24
      vertex 135.0390625 77.28281249850988 5.99
    endloop
  endfacet
  facet normal -0.762629332681318 -0.6468357604013923 0
    outer loop
      vertex 138.18124999850988 73.578125 5.99
      vertex 138.18124999850988 73.578125 24
      vertex 135.0390625 77.28281249850988 24
    endloop
  endfacet
  facet normal -0.7623979309449863 -0.6471084877289153 0
    outer loop
      vertex 139.54062499850988 71.9765625 5.99
      vertex 138.18124999850988 73.578125 24
      vertex 138.18124999850988 73.578125 5.99
    endloop
  endfacet
  facet normal -0.7623979309449863 -0.6471084877289153 0
    outer loop
      vertex 139.54062499850988 71.9765625 5.99
      vertex 139.54062499850988 71.9765625 24
      vertex 138.18124999850988 73.578125 24
    endloop
  endfacet
  facet normal -0.762507290901274 -0.646979622030246 0
    outer loop
      vertex 164.12031249701977 43.0078125 5.99
      vertex 139.54062499850988 71.9765625 24
      vertex 139.54062499850988 71.9765625 5.99
    endloop
  endfacet
  facet normal -0.762507290901274 -0.646979622030246 0
    outer loop
      vertex 164.12031249701977 43.0078125 5.99
      vertex 164.12031249701977 43.0078125 24
      vertex 139.54062499850988 71.9765625 24
    endloop
  endfacet
  facet normal 0 -1 0
    outer loop
      vertex 225 43.0078125 5.99
      vertex 164.12031249701977 43.0078125 24
      vertex 164.12031249701977 43.0078125 5.99
    endloop
  endfacet
  facet normal 0 -1 0
    outer loop
      vertex 225 43.0078125 5.99
      vertex 225 43.0078125 24
      vertex 164.12031249701977 43.0078125 24
    endloop
  endfacet
  facet normal 0.7625410178235473 0.646939870572705 0
    outer loop
      vertex 185.1875 89.93437500298023 5.99
      vertex 225 43.0078125 24
      vertex 225 43.0078125 5.99
    endloop
  endfacet
  facet normal 0.7625410178235473 0.646939870572705 0
    outer loop
      vertex 185.1875 89.93437500298023 5.99
      vertex 185.1875 89.93437500298023 24
      vertex 225 43.0078125 24
    endloop
  endfacet
  facet normal 0 0 1
    outer loop
      vertex 116.52031250298023 109.76093749701977 24
      vertex 112.07500000298023 115.1171875 24
      vertex 107.59218750149012 109.82968749850988 24
    endloop
  endfacet
  facet normal 0 0 1
    outer loop
      vertex 116.52031250298023 109.76093749701977 24
      vertex 107.59218750149012 109.82968749850988 24
      vertex 112.02499999850988 104.4609375 24
    endloop
  endfacet
  facet normal 0 0 1
    outer loop
      vertex 118.09687499701977 107.86562500149012 24
      vertex 116.52031250298023 109.76093749701977 24
      vertex 112.02499999850988 104.4609375 24
    endloop
  endfacet
  facet normal 0 0 1
    outer loop
      vertex 118.09687499701977 107.86562500149012 24
      vertex 112.02499999850988 104.4609375 24
      vertex 113.59531249850988 102.55937500298023 24
    endloop
  endfacet
  facet normal 0 0 1
    outer loop
      vertex 125 99.72187499701977 24
      vertex 118.09687499701977 107.86562500149012 24
      vertex 113.59531249850988 102.55937500298023 24
    endloop
  endfacet
  facet normal 0 0 1
    outer loop
      vertex 125 99.72187499701977 24
      vertex 113.59531249850988 102.55937500298023 24
      vertex 120.49843750149012 94.42343749850988 24
    endloop
  endfacet
  facet normal 0 0 1
    outer loop
      vertex 132.96875 166.62656249850988 24
      vertex 135.92343749850988 163.14687500149012 24
      vertex 137.51406250149012 165.0234375 24
    endloop
  endfacet
  facet normal 0 0 1
    outer loop
      vertex 129.50156249850988 94.42343749850988 24
      vertex 125 99.72187499701977 24
      vertex 120.49843750149012 94.42343749850988 24
    endloop
  endfacet
  facet normal 0 0 1
    outer loop
      vertex 129.50156249850988 94.42343749850988 24
      vertex 120.49843750149012 94.42343749850988 24
      vertex 125 89.11562500149012 24
    endloop
  endfacet
  facet normal 0 0 1
    outer loop
      vertex 129.50156249850988 94.42343749850988 24
      vertex 125 89.11562500149012 24
      vertex 127.17656250298023 86.55312500149012 24
    endloop
  endfacet
  facet normal 0 0 1
    outer loop
      vertex 133.01093749701977 170.32968749850988 24
      vertex 131.421875 168.453125 24
      vertex 132.96875 166.62656249850988 24
    endloop
  endfacet
  facet normal 0 0 1
    outer loop
      vertex 150.94375000149012 130.29999999701977 24
      vertex 146.44218750298023 125 24
      vertex 150.94375000149012 119.70000000298023 24
    endloop
  endfacet
  facet normal 0 0 1
    outer loop
      vertex 133.01093749701977 170.32968749850988 24
      vertex 132.96875 166.62656249850988 24
      vertex 137.51406250149012 165.0234375 24
    endloop
  endfacet
  facet normal 0 0 1
    outer loop
      vertex 133.01093749701977 170.32968749850988 24
      vertex 137.51406250149012 165.0234375 24
      vertex 144.04218749701977 172.71875 24
    endloop
  endfacet
  facet normal 0 0 1
    outer loop
      vertex 139.54062499850988 178.01718749850988 24
      vertex 133.01093749701977 170.32968749850988 24
      vertex 144.04218749701977 172.71875 24
    endloop
  endfacet
  facet normal 0 0 1
    outer loop
      vertex 139.54062499850988 178.01718749850988 24
      vertex 144.04218749701977 172.71875 24
      vertex 167.29999999701977 200.13437499850988 24
    endloop
  endfacet
  facet normal 0 0 1
    outer loop
      vertex 164.12031249701977 206.9921875 24
      vertex 139.54062499850988 178.01718749850988 24
      vertex 167.29999999701977 200.13437499850988 24
    endloop
  endfacet
  facet normal 0 0 1
    outer loop
      vertex 164.12031249701977 206.9921875 24
      vertex 167.29999999701977 200.13437499850988 24
      vertex 210.18437500298023 200.13437499850988 24
    endloop
  endfacet
  facet normal 0 0 1
    outer loop
      vertex 225 206.9921875 24
      vertex 164.12031249701977 206.9921875 24
      vertex 210.18437500298023 200.13437499850988 24
    endloop
  endfacet
  facet normal 0 0 1
    outer loop
      vertex 185.87968750298023 160.87656249850988 24
      vertex 225 206.9921875 24
      vertex 210.18437500298023 200.13437499850988 24
    endloop
  endfacet
  facet normal 0 0 1
    outer loop
      vertex 185.87968750298023 160.87656249850988 24
      vertex 210.18437500298023 200.13437499850988 24
      vertex 181.38437499850988 166.18281249701977 24
    endloop
  endfacet
  facet normal 0 0 1
    outer loop
      vertex 185.87968750298023 160.87656249850988 24
      vertex 181.38437499850988 166.18281249701977 24
      vertex 176.88906250149012 160.8828125 24
    endloop
  endfacet
  facet normal 0 0 1
    outer loop
      vertex 181.38437499850988 155.578125 24
      vertex 185.87968750298023 160.87656249850988 24
      vertex 176.88906250149012 160.8828125 24
    endloop
  endfacet
  facet normal 0 0 1
    outer loop
      vertex 181.38437499850988 155.578125 24
      vertex 176.88906250149012 160.8828125 24
      vertex 155.44687499850988 135.60625000298023 24
    endloop
  endfacet
  facet normal 0 0 1
    outer loop
      vertex 159.94218750298023 130.30624999850988 24
      vertex 181.38437499850988 155.578125 24
      vertex 155.44687499850988 135.60625000298023 24
    endloop
  endfacet
  facet normal 0 0 1
    outer loop
      vertex 159.94218750298023 130.30624999850988 24
      vertex 155.44687499850988 135.60625000298023 24
      vertex 150.94375000149012 130.29999999701977 24
    endloop
  endfacet
  facet normal 0 0 1
    outer loop
      vertex 155.44062499701977 125 24
      vertex 159.94218750298023 130.30624999850988 24
      vertex 150.94375000149012 130.29999999701977 24
    endloop
  endfacet
  facet normal 0 0 1
    outer loop
      vertex 155.44062499701977 125 24
      vertex 150.94375000149012 130.29999999701977 24
      vertex 150.94375000149012 119.70000000298023 24
    endloop
  endfacet
  facet normal 0 0 1
    outer loop
      vertex 185.1875 89.93437500298023 24
      vertex 155.44062499701977 125 24
      vertex 150.94375000149012 119.70000000298023 24
    endloop
  endfacet
  facet normal 0 0 1
    outer loop
      vertex 185.1875 89.93437500298023 24
      vertex 150.94375000149012 119.70000000298023 24
      vertex 210.18437500298023 49.865625001490116 24
    endloop
  endfacet
  facet normal 0 0 1
    outer loop
      vertex 225 43.0078125 24
      vertex 185.1875 89.93437500298023 24
      vertex 210.18437500298023 49.865625001490116 24
    endloop
  endfacet
  facet normal 0 0 1
    outer loop
      vertex 164.12031249701977 43.0078125 24
      vertex 225 43.0078125 24
      vertex 210.18437500298023 49.865625001490116 24
    endloop
  endfacet
  facet normal 0 0 1
    outer loop
      vertex 164.12031249701977 43.0078125 24
      vertex 210.18437500298023 49.865625001490116 24
      vertex 167.29999999701977 49.865625001490116 24
    endloop
  endfacet
  facet normal 0 0 1
    outer loop
      vertex 139.54062499850988 71.9765625 24
      vertex 164.12031249701977 43.0078125 24
      vertex 167.29999999701977 49.865625001490116 24
    endloop
  endfacet
  facet normal 0 0 1
    outer loop
      vertex 139.54062499850988 71.9765625 24
      vertex 167.29999999701977 49.865625001490116 24
      vertex 144.04218749701977 77.28281249850988 24
    endloop
  endfacet
  facet normal 0 0 1
    outer loop
      vertex 138.18124999850988 73.578125 24
      vertex 139.54062499850988 71.9765625 24
      vertex 144.04218749701977 77.28281249850988 24
    endloop
  endfacet
  facet normal 0 0 1
    outer loop
      vertex 135.0390625 77.28281249850988 24
      vertex 138.18124999850988 73.578125 24
      vertex 144.04218749701977 77.28281249850988 24
    endloop
  endfacet
  facet normal 0 0 1
    outer loop
      vertex 135.0390625 77.28281249850988 24
      vertex 144.04218749701977 77.28281249850988 24
      vertex 139.54062499850988 82.58749999850988 24
    endloop
  endfacet
  facet normal 0 0 1
    outer loop
      vertex 133.68593750149012 78.87812499701977 24
      vertex 135.0390625 77.28281249850988 24
      vertex 139.54062499850988 82.58749999850988 24
    endloop
  endfacet
  facet normal 0 0 1
    outer loop
      vertex 131.671875 81.25468750298023 24
      vertex 133.68593750149012 78.87812499701977 24
      vertex 139.54062499850988 82.58749999850988 24
    endloop
  endfacet
  facet normal 0 0 1
    outer loop
      vertex 127.17656250298023 86.55312500149012 24
      vertex 131.671875 81.25468750298023 24
      vertex 139.54062499850988 82.58749999850988 24
    endloop
  endfacet
  facet normal 0 0 1
    outer loop
      vertex 127.17656250298023 86.55312500149012 24
      vertex 139.54062499850988 82.58749999850988 24
      vertex 129.50156249850988 94.42343749850988 24
    endloop
  endfacet
  facet normal 0 0 -1
    outer loop
      vertex 107.59218750149012 109.82968749850988 5.99
      vertex 112.07500000298023 115.1171875 5.99
      vertex 116.52031250298023 109.76093749701977 5.99
    endloop
  endfacet
  facet normal 0 0 -1
    outer loop
      vertex 112.02499999850988 104.4609375 5.99
      vertex 107.59218750149012 109.82968749850988 5.99
      vertex 116.52031250298023 109.76093749701977 5.99
    endloop
  endfacet
  facet normal 0 0 -1
    outer loop
      vertex 112.02499999850988 104.4609375 5.99
      vertex 116.52031250298023 109.76093749701977 5.99
      vertex 118.09687499701977 107.86562500149012 5.99
    endloop
  endfacet
  facet normal 0 0 -1
    outer loop
      vertex 113.59531249850988 102.55937500298023 5.99
      vertex 112.02499999850988 104.4609375 5.99
      vertex 118.09687499701977 107.86562500149012 5.99
    endloop
  endfacet
  facet normal 0 0 -1
    outer loop
      vertex 113.59531249850988 102.55937500298023 5.99
      vertex 118.09687499701977 107.86562500149012 5.99
      vertex 125 99.72187499701977 5.99
    endloop
  endfacet
  facet normal 0 0 -1
    outer loop
      vertex 120.49843750149012 94.42343749850988 5.99
      vertex 113.59531249850988 102.55937500298023 5.99
      vertex 125 99.72187499701977 5.99
    endloop
  endfacet
  facet normal 0 0 -1
    outer loop
      vertex 137.51406250149012 165.0234375 5.99
      vertex 135.92343749850988 163.14687500149012 5.99
      vertex 132.96875 166.62656249850988 5.99
    endloop
  endfacet
  facet normal 0 0 -1
    outer loop
      vertex 120.49843750149012 94.42343749850988 5.99
      vertex 125 99.72187499701977 5.99
      vertex 129.50156249850988 94.42343749850988 5.99
    endloop
  endfacet
  facet normal 0 0 -1
    outer loop
      vertex 125 89.11562500149012 5.99
      vertex 120.49843750149012 94.42343749850988 5.99
      vertex 129.50156249850988 94.42343749850988 5.99
    endloop
  endfacet
  facet normal 0 0 -1
    outer loop
      vertex 127.17656250298023 86.55312500149012 5.99
      vertex 125 89.11562500149012 5.99
      vertex 129.50156249850988 94.42343749850988 5.99
    endloop
  endfacet
  facet normal 0 0 -1
    outer loop
      vertex 132.96875 166.62656249850988 5.99
      vertex 131.421875 168.453125 5.99
      vertex 133.01093749701977 170.32968749850988 5.99
    endloop
  endfacet
  facet normal 0 0 -1
    outer loop
      vertex 150.94375000149012 119.70000000298023 5.99
      vertex 146.44218750298023 125 5.99
      vertex 150.94375000149012 130.29999999701977 5.99
    endloop
  endfacet
  facet normal 0 0 -1
    outer loop
      vertex 137.51406250149012 165.0234375 5.99
      vertex 132.96875 166.62656249850988 5.99
      vertex 133.01093749701977 170.32968749850988 5.99
    endloop
  endfacet
  facet normal 0 0 -1
    outer loop
      vertex 144.04218749701977 172.71875 5.99
      vertex 137.51406250149012 165.0234375 5.99
      vertex 133.01093749701977 170.32968749850988 5.99
    endloop
  endfacet
  facet normal 0 0 -1
    outer loop
      vertex 144.04218749701977 172.71875 5.99
      vertex 133.01093749701977 170.32968749850988 5.99
      vertex 139.54062499850988 178.01718749850988 5.99
    endloop
  endfacet
  facet normal 0 0 -1
    outer loop
      vertex 167.29999999701977 200.13437499850988 5.99
      vertex 144.04218749701977 172.71875 5.99
      vertex 139.54062499850988 178.01718749850988 5.99
    endloop
  endfacet
  facet normal 0 0 -1
    outer loop
      vertex 167.29999999701977 200.13437499850988 5.99
      vertex 139.54062499850988 178.01718749850988 5.99
      vertex 164.12031249701977 206.9921875 5.99
    endloop
  endfacet
  facet normal 0 0 -1
    outer loop
      vertex 210.18437500298023 200.13437499850988 5.99
      vertex 167.29999999701977 200.13437499850988 5.99
      vertex 164.12031249701977 206.9921875 5.99
    endloop
  endfacet
  facet normal 0 0 -1
    outer loop
      vertex 210.18437500298023 200.13437499850988 5.99
      vertex 164.12031249701977 206.9921875 5.99
      vertex 225 206.9921875 5.99
    endloop
  endfacet
  facet normal 0 0 -1
    outer loop
      vertex 210.18437500298023 200.13437499850988 5.99
      vertex 225 206.9921875 5.99
      vertex 185.87968750298023 160.87656249850988 5.99
    endloop
  endfacet
  facet normal 0 0 -1
    outer loop
      vertex 181.38437499850988 166.18281249701977 5.99
      vertex 210.18437500298023 200.13437499850988 5.99
      vertex 185.87968750298023 160.87656249850988 5.99
    endloop
  endfacet
  facet normal 0 0 -1
    outer loop
      vertex 176.88906250149012 160.8828125 5.99
      vertex 181.38437499850988 166.18281249701977 5.99
      vertex 185.87968750298023 160.87656249850988 5.99
    endloop
  endfacet
  facet normal 0 0 -1
    outer loop
      vertex 176.88906250149012 160.8828125 5.99
      vertex 185.87968750298023 160.87656249850988 5.99
      vertex 181.38437499850988 155.578125 5.99
    endloop
  endfacet
  facet normal 0 0 -1
    outer loop
      vertex 155.44687499850988 135.60625000298023 5.99
      vertex 176.88906250149012 160.8828125 5.99
      vertex 181.38437499850988 155.578125 5.99
    endloop
  endfacet
  facet normal 0 0 -1
    outer loop
      vertex 155.44687499850988 135.60625000298023 5.99
      vertex 181.38437499850988 155.578125 5.99
      vertex 159.94218750298023 130.30624999850988 5.99
    endloop
  endfacet
  facet normal 0 0 -1
    outer loop
      vertex 150.94375000149012 130.29999999701977 5.99
      vertex 155.44687499850988 135.60625000298023 5.99
      vertex 159.94218750298023 130.30624999850988 5.99
    endloop
  endfacet
  facet normal 0 0 -1
    outer loop
      vertex 150.94375000149012 130.29999999701977 5.99
      vertex 159.94218750298023 130.30624999850988 5.99
      vertex 155.44062499701977 125 5.99
    endloop
  endfacet
  facet normal 0 0 -1
    outer loop
      vertex 150.94375000149012 119.70000000298023 5.99
      vertex 150.94375000149012 130.29999999701977 5.99
      vertex 155.44062499701977 125 5.99
    endloop
  endfacet
  facet normal 0 0 -1
    outer loop
      vertex 150.94375000149012 119.70000000298023 5.99
      vertex 155.44062499701977 125 5.99
      vertex 185.1875 89.93437500298023 5.99
    endloop
  endfacet
  facet normal 0 0 -1
    outer loop
      vertex 210.18437500298023 49.865625001490116 5.99
      vertex 150.94375000149012 119.70000000298023 5.99
      vertex 185.1875 89.93437500298023 5.99
    endloop
  endfacet
  facet normal 0 0 -1
    outer loop
      vertex 210.18437500298023 49.865625001490116 5.99
      vertex 185.1875 89.93437500298023 5.99
      vertex 225 43.0078125 5.99
    endloop
  endfacet
  facet normal 0 0 -1
    outer loop
      vertex 210.18437500298023 49.865625001490116 5.99
      vertex 225 43.0078125 5.99
      vertex 164.12031249701977 43.0078125 5.99
    endloop
  endfacet
  facet normal 0 0 -1
    outer loop
      vertex 167.29999999701977 49.865625001490116 5.99
      vertex 210.18437500298023 49.865625001490116 5.99
      vertex 164.12031249701977 43.0078125 5.99
    endloop
  endfacet
  facet normal 0 0 -1
    outer loop
      vertex 167.29999999701977 49.865625001490116 5.99
      vertex 164.12031249701977 43.0078125 5.99
      vertex 139.54062499850988 71.9765625 5.99
    endloop
  endfacet
  facet normal 0 0 -1
    outer loop
      vertex 144.04218749701977 77.28281249850988 5.99
      vertex 167.29999999701977 49.865625001490116 5.99
      vertex 139.54062499850988 71.9765625 5.99
    endloop
  endfacet
  facet normal 0 0 -1
    outer loop
      vertex 144.04218749701977 77.28281249850988 5.99
      vertex 139.54062499850988 71.9765625 5.99
      vertex 138.18124999850988 73.578125 5.99
    endloop
  endfacet
  facet normal 0 0 -1
    outer loop
      vertex 144.04218749701977 77.28281249850988 5.99
      vertex 138.18124999850988 73.578125 5.99
      vertex 135.0390625 77.28281249850988 5.99
    endloop
  endfacet
  facet normal 0 0 -1
    outer loop
      vertex 139.54062499850988 82.58749999850988 5.99
      vertex 144.04218749701977 77.28281249850988 5.99
      vertex 135.0390625 77.28281249850988 5.99
    endloop
  endfacet
  facet normal 0 0 -1
    outer loop
      vertex 139.54062499850988 82.58749999850988 5.99
      vertex 135.0390625 77.28281249850988 5.99
      vertex 133.68593750149012 78.87812499701977 5.99
    endloop
  endfacet
  facet normal 0 0 -1
    outer loop
      vertex 139.54062499850988 82.58749999850988 5.99
      vertex 133.68593750149012 78.87812499701977 5.99
      vertex 131.671875 81.25468750298023 5.99
    endloop
  endfacet
  facet normal 0 0 -1
    outer loop
      vertex 139.54062499850988 82.58749999850988 5.99
      vertex 131.671875 81.25468750298023 5.99
      vertex 127.17656250298023 86.55312500149012 5.99
    endloop
  endfacet
  facet normal 0 0 -1
    outer loop
      vertex 129.50156249850988 94.42343749850988 5.99
      vertex 139.54062499850988 82.58749999850988 5.99
      vertex 127.17656250298023 86.55312500149012 5.99
    endloop
  endfacet
endsolid OpenSCAD_Model
